<svg width="400" height="400" viewBox="0 0 400 400" fill="none" xmlns="http://www.w3.org/2000/svg">
<style type="text/css">
@keyframes step1 {
  0% {
    opacity: 0;
  }
  50% {
    opacity: 0;
  }
  51% {
    opacity: 1;
  }
  100% {
    opacity: 1;
  }
}
@keyframes step2 {
  0% {
    opacity: 0;
  }
  49% {
    opacity: 0;
  }
  50% {
    opacity: 1;
  }
  100% {
    opacity: 1;
  }
}
#step1 {
  animation: step1 2s infinite;
}
#step2 {
  animation: step2 2s infinite reverse;
}
</style>
<g clip-path="url(#clip0_132_2029)" id="step1">
<path d="M264.757 147.159L260.559 144.717L260.539 138.692L264.741 141.13L264.757 147.159Z" fill="#887C7D"/>
<path d="M264.741 141.13L260.539 138.692L269.067 129.312L273.269 131.75L264.741 141.13Z" fill="#D97E7E"/>
<path d="M273.269 131.75L269.067 129.312L269.031 116.864L273.233 119.302L273.269 131.75Z" fill="#C76969"/>
<path d="M267.912 116.964L263.71 114.526L273.293 109L277.495 111.438L267.912 116.964Z" fill="#FFC2C2"/>
<path d="M264.685 121.763L260.487 119.326L263.71 114.526L267.912 116.964L264.685 121.763Z" fill="#FFADAD"/>
<path d="M264.701 127.162L260.503 124.724L260.487 119.326L264.685 121.763L264.701 127.162Z" fill="#FFC2C2"/>
<path d="M277.495 111.438L277.559 133.94L264.757 147.159L264.741 141.13L273.269 131.75L273.233 119.302L268.567 121.995L264.701 127.162L264.685 121.763L267.912 116.964L277.495 111.438Z" fill="#E08B8B"/>
<path d="M192.55 281.197L192.534 286.049L190.137 284.664L190.149 279.812L192.55 281.197Z" fill="#524748"/>
<path d="M190.149 279.812L190.137 284.664L185.767 286.26L185.783 281.404L190.149 279.812Z" fill="#766668"/>
<path d="M185.783 281.404L185.767 286.26L181.629 283.87L181.641 279.019L185.783 281.404Z" fill="#524748"/>
<path d="M215.677 274.462L215.661 279.314L200.495 288.119L200.511 283.268L215.677 274.462Z" fill="#766768"/>
<path d="M194.004 286.144L193.988 291L189.794 288.582L189.81 283.727L194.004 286.144Z" fill="#524748"/>
<path d="M200.511 283.268L200.495 288.119L193.988 291L194.004 286.144L200.511 283.268Z" fill="#766768"/>
<path d="M215.677 274.462L200.511 283.268L194.004 286.144L189.81 283.726L192.55 281.197L190.149 279.812L185.783 281.404L181.641 279.019L186.546 275.212L201.713 266.411L215.677 274.462Z" fill="#847374"/>
<path d="M160.878 262.952L160.862 267.803L158.465 266.423L158.477 261.571L160.878 262.952Z" fill="#524748"/>
<path d="M158.477 261.571L158.465 266.423L154.096 268.015L154.111 263.163L158.477 261.571Z" fill="#766668"/>
<path d="M154.111 263.163L154.095 268.015L149.957 265.629L149.969 260.777L154.111 263.163Z" fill="#524748"/>
<path d="M184.014 256.217L183.998 261.068L168.823 269.878L168.839 265.022L184.014 256.217Z" fill="#766768"/>
<path d="M162.332 267.903L162.316 272.754L158.13 270.341L158.146 265.489L162.332 267.903Z" fill="#524748"/>
<path d="M168.839 265.022L168.823 269.878L162.316 272.755L162.332 267.903L168.839 265.022Z" fill="#766768"/>
<path d="M184.014 256.217L168.839 265.022L162.332 267.903L158.146 265.489L160.878 262.951L158.477 261.571L154.112 263.163L149.969 260.777L154.878 256.975L170.057 248.165L184.014 256.217Z" fill="#847374"/>
<path d="M168.995 226.484L184.118 217.703L184.006 256.245L168.887 265.022L168.995 226.484Z" fill="#C76969"/>
<path d="M200.67 241.829L215.793 233.048L215.673 274.506L200.555 283.284L200.67 241.829Z" fill="#E08B8B"/>
<path d="M155.074 215.532L170.197 206.755L215.793 233.048L200.67 241.829L155.074 215.532Z" fill="#DBADB2"/>
<path d="M200.67 241.829L200.555 283.284L186.626 275.252L186.734 236.714L168.995 226.484L168.887 265.022L154.958 256.991L155.074 215.532L200.67 241.829Z" fill="#FFADAD"/>
<path d="M267.589 237.712L267.577 242.568L265.176 241.183L265.192 236.331L267.589 237.712Z" fill="#524748"/>
<path d="M265.192 236.331L265.176 241.183L260.802 242.771L260.814 237.919L265.192 236.331Z" fill="#766668"/>
<path d="M260.814 237.919L260.802 242.771L256.668 240.389L256.684 235.537L260.814 237.919Z" fill="#524748"/>
<path d="M290.712 230.977L290.696 235.829L275.53 244.634L275.542 239.783L290.712 230.977Z" fill="#766768"/>
<path d="M269.035 242.659L269.023 247.511L264.837 245.097L264.849 240.245L269.035 242.659Z" fill="#524748"/>
<path d="M275.542 239.783L275.53 244.634L269.023 247.511L269.035 242.659L275.542 239.783Z" fill="#766768"/>
<path d="M290.712 230.977L275.542 239.783L269.035 242.659L264.849 240.245L267.589 237.712L265.192 236.331L260.814 237.919L256.684 235.537L261.585 231.731L276.752 222.926L290.712 230.977Z" fill="#847374"/>
<path d="M235.921 219.474L235.909 224.326L233.508 222.941L233.524 218.09L235.921 219.474Z" fill="#524748"/>
<path d="M233.524 218.09L233.508 222.941L229.143 224.537L229.154 219.682L233.524 218.09Z" fill="#766668"/>
<path d="M229.154 219.682L229.143 224.537L225 222.148L225.016 217.296L229.154 219.682Z" fill="#524748"/>
<path d="M259.049 212.74L259.037 217.595L243.87 226.397L243.882 221.545L259.049 212.74Z" fill="#766768"/>
<path d="M237.375 224.426L237.363 229.277L233.169 226.86L233.181 222.004L237.375 224.426Z" fill="#524748"/>
<path d="M243.882 221.545L243.87 226.397L237.363 229.277L237.375 224.426L243.882 221.545Z" fill="#766768"/>
<path d="M259.049 212.739L243.882 221.545L237.375 224.426L233.181 222.004L235.921 219.474L233.524 218.09L229.155 219.682L225.016 217.296L229.917 213.49L245.084 204.688L259.049 212.739Z" fill="#847374"/>
<path d="M244.038 183.003L259.161 174.226L259.049 212.763L243.93 221.541L244.038 183.003Z" fill="#C49BA0"/>
<path d="M275.713 198.348L290.836 189.571L290.716 231.025L275.594 239.802L275.713 198.348Z" fill="#E08B8B"/>
<path d="M230.117 172.051L245.24 163.274L290.836 189.571L275.713 198.348L230.117 172.051Z" fill="#DBADB2"/>
<path d="M275.713 198.348L275.594 239.803L261.669 231.771L261.777 193.233L244.038 183.003L243.93 221.541L230.001 213.51L230.117 172.051L275.713 198.348Z" fill="#C76969"/>
<path d="M270.656 145.674L225.288 119.338L245.484 125.793L290.852 152.13L270.656 145.674Z" fill="#D97E7E"/>
<path d="M200.702 256.771L155.334 230.438L145.907 191.198L191.276 217.531L200.702 256.771Z" fill="#FFADAD"/>
<path d="M191.2 191.494L145.835 165.161L225.288 119.338L270.656 145.674L191.2 191.494Z" fill="#FFADAD"/>
<path d="M270.656 145.675L290.852 152.13L291 204.696L200.702 256.771L191.275 217.531L191.2 191.494L270.656 145.675Z" fill="#E08B8B"/>
<path d="M156.197 240.01L113.616 215.293L113.496 173.711L156.077 198.428L156.197 240.01Z" fill="#FFADAD"/>
<path d="M156.077 198.428L113.496 173.711L149.726 152.82L192.306 177.533L156.077 198.428Z" fill="#FFC2C2"/>
<path d="M192.306 177.533L192.426 219.115L156.197 240.01L156.077 198.428L192.306 177.533Z" fill="#E08B8B"/>
<path d="M125.631 197.881L120.566 194.961V186.199L125.631 189.116V197.881Z" fill="#2E1C1E"/>
<path d="M147.637 210.525L142.572 207.605V198.843L147.637 201.759V210.525Z" fill="#2E1C1E"/>
<path d="M133.396 219.865L146.498 212.261L146.442 232.677L133.341 240.281L133.396 219.865Z" fill="#E08B8B"/>
<path d="M108.056 205.251L121.158 197.646L146.498 212.261L133.396 219.865L108.056 205.251Z" fill="#FFC2C2"/>
<path d="M133.396 219.865L133.341 240.281L108 225.667L108.056 205.251L133.396 219.865Z" fill="#FFADAD"/>
<path d="M116.991 225.551L112.366 222.886V213.51L116.991 216.175V225.551Z" fill="#912729"/>
<path d="M128.435 232.15L123.814 229.485V220.113L128.435 222.778V232.15Z" fill="#912729"/>
<path d="M173.225 187.253L161.761 180.597L161.733 170.595L173.197 177.25L173.225 187.253Z" fill="#C96767"/>
<path d="M165.356 181.77L153.892 175.115L153.876 169.266L165.34 175.921L165.356 181.77Z" fill="#E08B8B"/>
<path d="M165.34 175.921L153.876 169.266L165.915 162.324L177.379 168.979L165.34 175.921Z" fill="#FFC2C2"/>
<path d="M177.379 168.979L177.423 184.831L173.225 187.253L173.197 177.25L165.356 181.771L165.34 175.921L177.379 168.979Z" fill="#E08B8B"/>
<path d="M144.473 170.866L133.009 164.211L132.977 154.217L144.441 160.872L144.473 170.866Z" fill="#C96767"/>
<path d="M136.6 165.392L125.136 158.737L125.12 152.88L136.584 159.535L136.6 165.392Z" fill="#E08B8B"/>
<path d="M136.584 159.535L125.12 152.88L137.159 145.938L148.623 152.593L136.584 159.535Z" fill="#FFC2C2"/>
<path d="M148.623 152.593L148.671 168.444L144.473 170.866L144.441 160.872L136.6 165.392L136.584 159.535L148.623 152.593Z" fill="#E08B8B"/>
</g>
<defs>
<clipPath id="clip0_132_2029">
<rect width="183" height="182" fill="white" transform="translate(108 109)"/>
</clipPath>
</defs>
<g clip-path="url(#clip0_217_3600)" id="step2">
<path d="M264.176 146.051L259.885 143.552L259.869 137.387L264.16 139.882L264.176 146.051Z" fill="#887C7D"/>
<path d="M264.16 139.881L259.869 137.387L268.581 127.787L272.876 130.282L264.16 139.881Z" fill="#D97E7E"/>
<path d="M272.876 130.282L268.581 127.787L268.545 115.048L272.84 117.543L272.876 130.282Z" fill="#C76969"/>
<path d="M267.401 115.15L263.106 112.655L272.901 107L277.196 109.495L267.401 115.15Z" fill="#FFC2C2"/>
<path d="M264.102 120.062L259.811 117.567L263.106 112.655L267.401 115.15L264.102 120.062Z" fill="#FFADAD"/>
<path d="M264.119 125.586L259.828 123.092L259.811 117.567L264.102 120.062L264.119 125.586Z" fill="#FFC2C2"/>
<path d="M277.196 109.495L277.261 132.524L264.176 146.051L264.16 139.881L272.876 130.282L272.84 117.543L268.071 120.299L264.119 125.586L264.102 120.062L267.401 115.15L277.196 109.495Z" fill="#E08B8B"/>
<path d="M190.371 283.224L190.354 288.189L187.905 286.772L187.917 281.807L190.371 283.224Z" fill="#524748"/>
<path d="M187.917 281.807L187.905 286.772L183.442 288.405L183.455 283.436L187.917 281.807Z" fill="#766668"/>
<path d="M183.455 283.436L183.442 288.406L179.208 285.96L179.221 280.995L183.455 283.436Z" fill="#524748"/>
<path d="M214.01 276.332L213.998 281.297L198.492 290.308L198.508 285.343L214.01 276.332Z" fill="#766768"/>
<path d="M191.857 288.287L191.841 293.256L187.554 290.782L187.57 285.813L191.857 288.287Z" fill="#524748"/>
<path d="M198.508 285.343L198.491 290.308L191.841 293.256L191.857 288.287L198.508 285.343Z" fill="#766768"/>
<path d="M214.01 276.332L198.508 285.343L191.857 288.287L187.57 285.813L190.371 283.224L187.917 281.807L183.455 283.436L179.221 280.995L184.234 277.099L199.737 268.092L214.01 276.332Z" fill="#847374"/>
<path d="M157.998 264.552L157.982 269.517L155.532 268.104L155.548 263.139L157.998 264.552Z" fill="#524748"/>
<path d="M155.548 263.139L155.532 268.104L151.07 269.733L151.082 264.768L155.548 263.139Z" fill="#766668"/>
<path d="M151.082 264.768L151.07 269.733L146.836 267.292L146.852 262.326L151.082 264.768Z" fill="#524748"/>
<path d="M181.646 257.659L181.634 262.625L166.119 271.64L166.135 266.671L181.646 257.659Z" fill="#766768"/>
<path d="M159.484 269.619L159.468 274.584L155.189 272.114L155.206 267.149L159.484 269.619Z" fill="#524748"/>
<path d="M166.135 266.671L166.119 271.64L159.468 274.584L159.484 269.619L166.135 266.671Z" fill="#766768"/>
<path d="M181.646 257.659L166.135 266.671L159.484 269.619L155.205 267.149L157.998 264.552L155.548 263.139L151.082 264.768L146.852 262.326L151.87 258.435L167.38 249.42L181.646 257.659Z" fill="#847374"/>
<path d="M166.294 227.232L181.752 218.245L181.642 257.688L166.184 266.671L166.294 227.232Z" fill="#C76969"/>
<path d="M198.671 242.936L214.129 233.949L214.006 276.377L198.553 285.359L198.671 242.936Z" fill="#E08B8B"/>
<path d="M152.066 216.024L167.523 207.041L214.129 233.949L198.671 242.936L152.066 216.024Z" fill="#DBADB2"/>
<path d="M198.671 242.936L198.553 285.359L184.316 277.14L184.426 237.701L166.294 227.232L166.184 266.671L151.947 258.452L152.066 216.024L198.671 242.936Z" fill="#FFADAD"/>
<path d="M267.071 238.722L267.058 243.691L264.609 242.274L264.621 237.309L267.071 238.722Z" fill="#524748"/>
<path d="M264.621 237.309L264.609 242.274L260.134 243.899L260.15 238.934L264.621 237.309Z" fill="#766668"/>
<path d="M260.15 238.934L260.134 243.899L255.912 241.462L255.924 236.497L260.15 238.934Z" fill="#524748"/>
<path d="M290.706 231.83L290.69 236.795L275.187 245.806L275.2 240.841L290.706 231.83Z" fill="#766768"/>
<path d="M268.549 243.785L268.536 248.75L264.258 246.28L264.27 241.315L268.549 243.785Z" fill="#524748"/>
<path d="M275.2 240.841L275.187 245.806L268.536 248.75L268.549 243.785L275.2 240.841Z" fill="#766768"/>
<path d="M290.706 231.83L275.2 240.841L268.549 243.785L264.27 241.315L267.071 238.722L264.621 237.309L260.15 238.934L255.925 236.497L260.934 232.601L276.437 223.59L290.706 231.83Z" fill="#847374"/>
<path d="M234.702 220.058L234.69 225.023L232.24 223.606L232.252 218.641L234.702 220.058Z" fill="#524748"/>
<path d="M232.252 218.641L232.24 223.606L227.773 225.239L227.786 220.27L232.252 218.641Z" fill="#766668"/>
<path d="M227.786 220.27L227.773 225.239L223.544 222.794L223.556 217.828L227.786 220.27Z" fill="#524748"/>
<path d="M258.346 213.166L258.329 218.135L242.827 227.142L242.839 222.177L258.346 213.166Z" fill="#766768"/>
<path d="M236.188 225.125L236.176 230.09L231.889 227.616L231.901 222.647L236.188 225.125Z" fill="#524748"/>
<path d="M242.839 222.177L242.827 227.142L236.176 230.09L236.188 225.125L242.839 222.177Z" fill="#766768"/>
<path d="M258.346 213.166L242.839 222.177L236.188 225.125L231.901 222.647L234.702 220.058L232.252 218.641L227.786 220.27L223.556 217.828L228.566 213.933L244.068 204.926L258.346 213.166Z" fill="#847374"/>
<path d="M242.998 182.734L258.456 173.751L258.342 213.19L242.888 222.173L242.998 182.734Z" fill="#C49BA0"/>
<path d="M275.375 198.438L290.833 189.455L290.71 231.879L275.257 240.861L275.375 198.438Z" fill="#E08B8B"/>
<path d="M228.77 171.526L244.227 162.543L290.833 189.455L275.375 198.438L228.77 171.526Z" fill="#DBADB2"/>
<path d="M275.375 198.438L275.257 240.861L261.02 232.642L261.13 193.203L242.998 182.734L242.888 222.173L228.651 213.954L228.77 171.526L275.375 198.438Z" fill="#C76969"/>
<path d="M270.206 144.532L223.834 117.579L244.476 124.186L290.849 151.139L270.206 144.532Z" fill="#D97E7E"/>
<path d="M198.704 258.227L152.331 231.278L142.696 191.121L189.068 218.069L198.704 258.227Z" fill="#FFADAD"/>
<path d="M188.991 191.423L142.622 164.474L223.834 117.579L270.206 144.532L188.991 191.423Z" fill="#FFADAD"/>
<path d="M270.206 144.532L290.849 151.139L291 204.934L198.704 258.227L189.068 218.069L188.991 191.423L270.206 144.532Z" fill="#E08B8B"/>
<path d="M153.213 241.074L109.69 215.779L109.572 173.224L153.095 198.519L153.213 241.074Z" fill="#FFADAD"/>
<path d="M153.095 198.519L109.572 173.224L146.599 151.845L190.122 177.136L153.095 198.519Z" fill="#FFC2C2"/>
<path d="M190.122 177.136L190.244 219.69L153.213 241.074L153.095 198.519L190.122 177.136Z" fill="#E08B8B"/>
<path d="M121.971 197.96L116.794 194.971V186.005L121.971 188.989V197.96Z" fill="#2E1C1E"/>
<path d="M144.464 210.899L139.287 207.911V198.944L144.464 201.929V210.899Z" fill="#2E1C1E"/>
<path d="M128.618 220.266L139.25 214.084L139.205 230.678L128.569 236.86L128.618 220.266Z" fill="#E08B8B"/>
<path d="M108.049 208.392L118.681 202.21L139.25 214.084L128.618 220.266L108.049 208.392Z" fill="#FFC2C2"/>
<path d="M128.618 220.266L128.569 236.86L108 224.982L108.049 208.392L128.618 220.266Z" fill="#FFADAD"/>
<path d="M115.296 224.888L111.544 222.72V215.101L115.296 217.269V224.888Z" fill="#912729"/>
<path d="M124.589 230.253L120.836 228.085V220.466L124.589 222.634V230.253Z" fill="#912729"/>
<path d="M170.618 187.082L158.901 180.272L158.872 170.035L170.59 176.846L170.618 187.082Z" fill="#C96767"/>
<path d="M162.575 181.472L150.857 174.662L150.841 168.676L162.559 175.486L162.575 181.472Z" fill="#E08B8B"/>
<path d="M162.559 175.486L150.841 168.676L163.147 161.571L174.864 168.382L162.559 175.486Z" fill="#FFC2C2"/>
<path d="M174.864 168.382L174.913 184.604L170.618 187.082L170.59 176.846L162.575 181.472L162.559 175.486L174.864 168.382Z" fill="#E08B8B"/>
<path d="M141.23 170.313L129.512 163.502L129.484 153.274L141.201 160.085L141.23 170.313Z" fill="#C96767"/>
<path d="M133.187 164.711L121.469 157.9L121.449 151.906L133.167 158.717L133.187 164.711Z" fill="#E08B8B"/>
<path d="M133.167 158.717L121.449 151.906L133.754 144.802L145.472 151.612L133.167 158.717Z" fill="#FFC2C2"/>
<path d="M145.472 151.612L145.521 167.835L141.23 170.313L141.201 160.085L133.187 164.711L133.167 158.717L145.472 151.612Z" fill="#E08B8B"/>
</g>
<defs>
<clipPath id="clip0_217_3600">
<rect width="183" height="186.256" fill="white" transform="translate(108 107)"/>
</clipPath>
</defs>
</svg>
