<svg width="1096" height="291" viewBox="0 0 1096 291" fill="none" xmlns="http://www.w3.org/2000/svg">
<g clip-path="url(#clip0_0_1)">
<path d="M880.036 55.1912L854.6 54.4359L854.888 42.9829L879.68 44.0129L880.036 55.1912Z" fill="#FFF380"/>
<path d="M68.7355 127.315L55.9148 108.329L63.4112 107.052L76.321 124.932L68.7355 127.315Z" fill="#FFF380"/>
<path d="M628.165 160.753L623.492 157.629L610.575 164.997L616.811 166.782L628.165 160.753Z" fill="#EBD065"/>
<path d="M79.2402 164.743L69.8045 179.251L58.6284 175.255L68.3381 161.399L79.2402 164.743Z" fill="#038437"/>
<path d="M325.916 31.9008L323.498 36.405L307.95 38.8288V31.9008H325.916Z" fill="#FFF380"/>
<path d="M110.754 265.595L99.434 282.678L89.7722 283.948L101.085 267.126L110.754 265.595Z" fill="#FFF380"/>
<path d="M161.824 42.6602L151.786 33.5898L141 40.1746L150.669 47.5078L161.824 42.6602Z" fill="#F47878"/>
<path d="M338.168 98.744L332.303 94.6036L324.368 99.6847L331.268 102.884L338.168 98.744Z" fill="#32B46E"/>
<path d="M396.406 47.6452L376.192 51.662L372.348 43.7932L389.39 41.7814L396.406 47.6452Z" fill="#FFF380"/>
<path d="M200.574 59.0569L205.213 67.5505L201.65 73.4624L197.258 64.4813L200.574 59.0569Z" fill="#F96EAE"/>
<path d="M955.829 8.99485L932.024 15.8474L932.833 5.39691L951.971 0.576782L955.829 8.99485Z" fill="#F96EAE"/>
<path d="M425.885 169.927L419.334 177.926C419.334 177.926 404.444 157.513 404.8 157.513C405.157 157.513 411.474 150.111 411.474 150.111L425.885 169.927Z" fill="#038437"/>
<path d="M598.33 57.0451L588.805 80.5621L582.255 76.5041L591.779 53.1038L598.33 57.0451Z" fill="#36C4F6"/>
<path d="M646.55 40.154L647.982 45.8874L640.595 44.0953L639.766 38.3619L646.55 40.154Z" fill="#E72838"/>
<path d="M157.774 34.2353L178.975 33.8164L184.526 28.5363L163.16 28.4813L157.774 34.2353Z" fill="#FFF380"/>
<path d="M483.451 3.50183L492.544 15.9847L479.916 44.6652L470.315 31.3377L483.451 3.50183Z" fill="#FFF380"/>
<path d="M327.116 71.4849L333.55 80.3218L324.615 100.612L317.824 91.1842L327.116 71.4849Z" fill="#EBD065"/>
<path d="M33.4462 126.079L27.8478 127.754L22.366 124.287L28.6769 122.021L33.4462 126.079Z" fill="#FFF380"/>
<path d="M718.986 23.1187L723.035 30.4039L709.098 26.7579L707.789 20.9696L718.986 23.1187Z" fill="#32B46E"/>
<path d="M915.983 59.1462L917.436 64.7216H907.52L906.554 59.1462H915.983Z" fill="#FFF380"/>
<path d="M1012.7 14.1171L1005.99 23.3591L994.51 21.258L1002.05 13.252L1012.7 14.1171Z" fill="#038437"/>
<path d="M858.773 54.944L863.042 65.4769L846.617 93.1343L842.677 80.9535L858.773 54.944Z" fill="#F47878"/>
<path d="M198.642 23.1119L205.192 31.1112C205.192 31.1112 220.082 10.6977 219.726 10.6977C219.37 10.6977 213.052 3.29584 213.052 3.29584L198.642 23.1119Z" fill="#FFF380"/>
<path d="M120.799 268.891L118.01 252.48L114.55 256.524L117.599 272.646L120.799 268.891Z" fill="#008DC4"/>
<path d="M1093.36 227.919L1074.92 231.25L1077.05 240.67L1096 237.505L1093.36 227.919Z" fill="#E72838"/>
<path d="M187.952 86.8173L195.188 79.5734L202.733 78.4885L195.339 85.1214L187.952 86.8173Z" fill="#32B46E"/>
<path d="M678.989 65.0924V81.132L687.301 86.5358V70.0293L678.989 65.0924Z" fill="#FFB0E1"/>
<path d="M637.574 8.56915L629.57 21.2168L650.511 25.8447L654.512 14.1171L637.574 8.56915Z" fill="#FFF380"/>
<path d="M399.737 74.4305L400.744 94.0818L388.924 99.2041V81.7363L399.737 74.4305Z" fill="#FFF380"/>
<path d="M496.018 33.7615L501.123 35.5056L520.933 26.085L514.979 24.0526L496.018 33.7615Z" fill="#F96EAE"/>
<path d="M1062.2 111.021L1067.31 123.106L1058.63 134.037L1052.51 120.098L1062.2 111.021Z" fill="#FFB0E1"/>
<path d="M326.403 154.471L329.11 163.514L314.658 159.442L311.047 150.468L326.403 154.471Z" fill="#FFF380"/>
<path d="M720.671 115.106L723.172 127.981L720.671 135.231L715.573 121.094L720.671 115.106Z" fill="#FFF380"/>
<path d="M812.993 32.4364L817.584 44.6927L803.29 40.875L800.234 29.3671L812.993 32.4364Z" fill="#32B46E"/>
<path d="M1059.98 74.712L1049.17 80.7544L1038.61 60.3478L1049.29 55.0607L1059.98 74.712Z" fill="#FFF380"/>
<path d="M368.168 40.6965H354.093L347.632 14.5909H359.74L368.168 40.6965Z" fill="#FFB0E1"/>
<path d="M273.147 37.3183L267.096 19.9946L258.024 25.625L263.855 43.3812L273.147 37.3183Z" fill="#EBD065"/>
<path d="M85.7636 206.043V221.925L61.3694 226.052V209.195L85.7636 206.043Z" fill="#FFF380"/>
<path d="M789.469 74.2657L793.402 78.564L788.4 89.9071L785.542 84.8879L789.469 74.2657Z" fill="#FFF380"/>
<path d="M259.943 44.3081L259.333 52.582L241.482 64.7902L243.463 54.0102L259.943 44.3081Z" fill="#F96EAE"/>
<path d="M683.717 92.997L681.202 87.0027L673.911 110.684L677.18 113.96L683.717 92.997Z" fill="#038437"/>
<path d="M721.562 140.264L738.124 159.655L729.182 154.677L710.832 134.291L721.562 140.264Z" fill="#EBD065"/>
<path d="M87.8054 42.3513L95.9939 57.0451L84.3998 68.6629L77.5818 55.5071L87.8054 42.3513Z" fill="#36C4F6"/>
<path d="M34.0902 55.7954V67.1316L31.6987 69.6516V57.5532L34.0902 55.7954Z" fill="#32B46E"/>
<path d="M744.497 46.2375V61.0275L721.781 64.8658V49.1695L744.497 46.2375Z" fill="#EBD065"/>
<path d="M780.917 82.3611L768.041 95.819L758.099 89.09L771.276 79.8755L780.917 82.3611Z" fill="#F96EAE"/>
<path d="M66.5085 15.9778L67.2075 39.2271L82.8171 42.468L81.3369 19.7886L66.5085 15.9778Z" fill="#FFF380"/>
<path d="M507.263 115.972L532.157 107.856H557.024L532.144 121.19L507.263 115.972Z" fill="#F47878"/>
<path d="M639.369 134.442L628.604 158.618L619.778 150.564L629.577 130.672L639.369 134.442Z" fill="#FFF380"/>
<path d="M346.713 124.609V135.238L362.261 146.712L361.418 135.238L346.713 124.609Z" fill="#E72838"/>
<path d="M36.5366 168.073L55.4147 194.233L62.966 182.883L47.2331 162.552L36.5366 168.073Z" fill="#E72838"/>
<path d="M1055.61 48.4005L1086.1 41.184L1076.79 38.1079L1050.05 45.9286L1055.61 48.4005Z" fill="#EBD065"/>
<path d="M990.091 72.199L991.598 77.9667H1005.71L1003.8 72.199H990.091Z" fill="#F96EAE"/>
<path d="M264.938 65.731L251.405 80.2943L270.262 104.937L284.618 89.4814L264.938 65.731Z" fill="#FFF380"/>
<path d="M503.823 144.302L511.936 150.983L520.406 146.115L512.114 141.054L503.823 144.302Z" fill="#FFF380"/>
<path d="M120.457 73.6203L122.581 80.5278L141.541 100.234L139.568 92.6193L120.457 73.6203Z" fill="#EBD065"/>
<path d="M544.094 44.6995L562.972 70.8601L570.524 59.5101L554.798 39.179L544.094 44.6995Z" fill="#32B46E"/>
<path d="M986.267 44.4249L989.707 64.0281L960.502 74.4099L956.85 53.6188L986.267 44.4249Z" fill="#36C4F6"/>
<path d="M609.273 105.555L632.003 117.022L637.19 106.819L614.899 95.8876L609.273 105.555Z" fill="#FFF380"/>
<path d="M964.223 228.414L971.363 242.339L974.591 238.26L968.136 224.644L964.223 228.414Z" fill="#FFF380"/>
<path d="M993.099 168.444L997.772 165.326L1010.69 172.687L1004.45 174.472L993.099 168.444Z" fill="#E72838"/>
<path d="M182.34 244.914L173.35 253.737L177.79 261.166L186.28 252.24L182.34 244.914Z" fill="#FFF380"/>
<path d="M225.256 199.205L227.682 203.709L243.223 206.126V199.205H225.256Z" fill="#F47878"/>
<path d="M175.68 177.404L187 194.481L196.668 195.758L185.348 178.935L175.68 177.404Z" fill="#FFF380"/>
<path d="M1066.55 145.806L1076.59 136.735L1087.37 143.32L1077.7 150.646L1066.55 145.806Z" fill="#F47878"/>
<path d="M825.258 159.38L831.124 155.24L839.059 160.314L832.159 163.521L825.258 159.38Z" fill="#FFB0E1"/>
<path d="M959.872 96.2035L964.833 116.253L973.57 116.397L968.15 100.083L959.872 96.2035Z" fill="#F47878"/>
<path d="M848.542 111.653L849.995 121.224L856.402 123.765L854.47 113.953L848.542 111.653Z" fill="#FFF380"/>
<path d="M823.189 240.787L807.155 245.291L811.3 250.99L823.949 246.973L823.189 240.787Z" fill="#008DC4"/>
<path d="M1061.01 19.8161L1067.56 27.8153C1067.56 27.8153 1082.45 7.40186 1082.09 7.40186C1081.73 7.40186 1075.42 0 1075.42 0L1061.01 19.8161Z" fill="#E72838"/>
<path d="M236.932 115.759L246.457 139.269L253.008 135.211L243.483 111.817L236.932 115.759Z" fill="#008DC4"/>
<path d="M169.732 176.134L168.3 181.86L175.686 180.068L176.522 174.342L169.732 176.134Z" fill="#FFB0E1"/>
<path d="M1080.21 171.286L1074.17 191.652L1067.62 195.614L1073.24 174.96L1080.21 171.286Z" fill="#FFF380"/>
<path d="M903.553 1.3252L893.809 14.6939L907.335 45.4136L917.614 31.1386L903.553 1.3252Z" fill="#F47878"/>
<path d="M885.456 84.6887L879.021 93.5188L887.957 113.815L894.748 104.381L885.456 84.6887Z" fill="#038437"/>
<path d="M1054.93 265.615L1060.53 267.291L1066.01 263.83L1059.7 261.557L1054.93 265.615Z" fill="#F96EAE"/>
<path d="M791.812 179.395L787.762 186.674L801.7 183.035L803.009 177.246L791.812 179.395Z" fill="#FFF380"/>
<path d="M416.956 118.643L415.504 124.218H425.419L426.392 118.643H416.956Z" fill="#F47878"/>
<path d="M883.695 188.692L891.027 199.157L902.169 197.825L894.103 188.61L883.695 188.692Z" fill="#E72838"/>
<path d="M759.531 21.2237L770.09 25.3915L797.513 8.63781L785.309 4.81329L759.531 21.2237Z" fill="#FFF380"/>
<path d="M14.0815 184.483L17.4802 189.338C17.4802 189.338 5.20086 196.692 5.24197 196.472C5.28309 196.245 2.16528 191.604 2.16528 191.604L14.0815 184.49V184.483Z" fill="#36C4F6"/>
<path d="M568.564 26.1743L571.359 9.76385L574.813 13.8012L571.771 29.9233L568.564 26.1743Z" fill="#E72838"/>
<path d="M15.082 272.413L21.0847 260.967L26.8132 264.318L20.8174 276.134L15.082 272.413Z" fill="#FFB0E1"/>
<path d="M687.589 186.777L680.353 179.526L672.808 178.441L680.195 185.081L687.589 186.777Z" fill="#E72838"/>
<path d="M936.382 221.719L920.368 221.644L915.017 213.294L931.49 213.363L936.382 221.719Z" fill="#36C4F6"/>
<path d="M59.1012 276.189L63.9458 283.845L51.269 286.647L48.8433 279.547L59.1012 276.189Z" fill="#E72838"/>
<path d="M595.158 203.235L583.714 200.111L579.178 206.435L589.463 208.687L595.158 203.235Z" fill="#FFF380"/>
<path d="M190.768 136.241L185.663 137.978L165.853 128.564L171.808 126.532L190.768 136.241Z" fill="#F96EAE"/>
<path d="M473.241 71.6016L468.143 83.6863L476.818 94.6174L482.944 80.6789L473.241 71.6016Z" fill="#008DC4"/>
<path d="M1029.77 210.486L1027.06 219.536L1041.51 215.464L1045.12 206.49L1029.77 210.486Z" fill="#EBD065"/>
<path d="M1032.65 124.081L1030.15 136.948L1032.65 144.199L1037.75 130.061L1032.65 124.081Z" fill="#36C4F6"/>
<path d="M793.738 149.609L789.147 161.873L803.434 158.048L806.497 146.54L793.738 149.609Z" fill="#36C4F6"/>
<path d="M955.068 169.185L965.874 175.228L976.434 154.821L965.751 149.534L955.068 169.185Z" fill="#EBD065"/>
<path d="M124.267 137.676L119.881 124.273L93.116 126.264L96.8916 137.793L124.267 137.676Z" fill="#EBD065"/>
<path d="M459.557 179.835L465.608 162.511L474.68 168.135L468.849 185.898L459.557 179.835Z" fill="#FFF380"/>
<path d="M683.594 38.053L698.395 26.4833L684.464 0.65918L668.758 12.9361L683.594 38.053Z" fill="#E72838"/>
<path d="M1019.82 247.193L1015.89 251.491L1020.89 262.828L1023.76 257.815L1019.82 247.193Z" fill="#32B46E"/>
<path d="M962.195 180.727L962.805 189.001L980.662 201.21L978.675 190.436L962.195 180.727Z" fill="#FFB0E1"/>
<path d="M555.435 158.639L557.95 152.644L565.24 176.326L561.972 179.601L555.435 158.639Z" fill="#32B46E"/>
<path d="M203.15 170.147L186.588 189.537L195.537 184.559L213.881 164.173L203.15 170.147Z" fill="#E72838"/>
<path d="M334.461 211.701L329.589 220.442L336.49 227.356L340.546 219.529L334.461 211.701Z" fill="#E72838"/>
<path d="M283.748 169.597V180.933L286.139 183.447V171.355L283.748 169.597Z" fill="#FFF380"/>
<path d="M1012.13 282.136V289.174L1022.94 291V283.536L1012.13 282.136Z" fill="#FFF380"/>
<path d="M21.0229 18.7655L33.8984 32.2235L43.8343 25.4945L30.6642 16.2868L21.0229 18.7655Z" fill="#E72838"/>
<path d="M934.745 118.993L934.039 142.235L918.436 145.476L919.909 122.797L934.745 118.993Z" fill="#FFF380"/>
<path d="M145.372 9.77757L120.477 1.66162H95.6104L120.491 14.9959L145.372 9.77757Z" fill="#32B46E"/>
<path d="M23.9694 98.3252L13.2044 122.508L4.37866 114.447L14.1775 94.5624L23.9694 98.3252Z" fill="#FFB0E1"/>
<path d="M308.45 187.477V195.188L297.171 203.51L297.788 195.188L308.45 187.477Z" fill="#F47878"/>
<path d="M882.948 162.443L872.073 177.507L867.729 170.971L876.788 159.263L882.948 162.443Z" fill="#FFF380"/>
<path d="M39.6954 251.134L0 241.741L12.108 237.731L46.9315 247.914L39.6954 251.134Z" fill="#EBD065"/>
<path d="M124.191 187.182L122.691 192.949H108.575L110.494 187.182H124.191Z" fill="#F96EAE"/>
<path d="M295.883 0.226562L309.416 14.7968L290.552 39.433L276.203 23.9839L295.883 0.226562Z" fill="#36C4F6"/>
<path d="M463.134 77.8431L455.028 84.524L446.552 79.6489L454.843 74.5884L463.134 77.8431Z" fill="#038437"/>
<path d="M1014.86 158.92L1008.02 156.647L988.741 137.257L996.299 139.392L1014.86 158.92Z" fill="#FFF380"/>
<path d="M859.595 7.00359L840.724 33.1641L833.173 21.821L848.899 1.48309L859.595 7.00359Z" fill="#008DC4"/>
<path d="M407.37 10.011L404.17 28.2342L431.312 37.8813L434.704 18.5596L407.37 10.011Z" fill="#E72838"/>
</g>
<mask id="path-117-outside-1_0_1" maskUnits="userSpaceOnUse" x="341" y="114" width="400" height="105" fill="black">
<rect fill="white" x="341" y="114" width="400" height="105"/>
<path d="M392.9 202.6C386.233 202.6 380.167 201.033 374.7 197.9C369.3 194.7 365 190.367 361.8 184.9C358.667 179.367 357.1 173.267 357.1 166.6C357.1 159.8 358.633 153.667 361.7 148.2C364.767 142.733 368.967 138.467 374.3 135.4C379.633 132.267 385.633 130.7 392.3 130.7C395.9 130.7 399.433 131.133 402.9 132C406.367 132.867 409.333 134.1 411.8 135.7L409.1 151.2C404.3 149.4 399.967 148.5 396.1 148.5C390.767 148.5 386.667 150.067 383.8 153.2C380.933 156.267 379.5 160.7 379.5 166.5C379.5 172.167 381 176.6 384 179.8C387.067 182.933 391.3 184.5 396.7 184.5C398.767 184.5 400.7 184.3 402.5 183.9C404.3 183.5 406.5 182.767 409.1 181.7L411.9 197.5C406.1 200.9 399.767 202.6 392.9 202.6ZM420.852 132.2H442.452V185.8H466.352V201H420.852V132.2ZM474.66 132.2H522.96V147.4H498.96V159.9H520.86V172.5H498.96V185.8H522.96V201H474.66V132.2ZM547.133 132.2H577.533L597.433 201H573.933L571.333 187.8H553.533L550.633 201H528.133L547.133 132.2ZM568.933 175.5L562.433 145.4L555.633 175.5H568.933ZM656.155 202.6C643.621 202.6 635.955 196.8 633.155 185.2L630.655 174.9H625.955V201H604.055V132.2H634.355C640.088 132.2 645.121 133.067 649.455 134.8C653.855 136.467 657.255 138.833 659.655 141.9C662.055 144.967 663.255 148.5 663.255 152.5C663.255 156.967 662.155 160.733 659.955 163.8C657.821 166.8 654.488 169.267 649.955 171.2C650.421 173.733 650.955 176.033 651.555 178.1C652.355 180.633 653.455 182.4 654.855 183.4C656.255 184.4 658.288 184.9 660.955 184.9C661.888 184.9 663.355 184.767 665.355 184.5V200.8C662.221 202 659.155 202.6 656.155 202.6ZM629.755 160.9C634.688 160.9 638.155 160.367 640.155 159.3C642.221 158.167 643.255 156.267 643.255 153.6C643.255 151.333 642.421 149.7 640.755 148.7C639.088 147.633 636.455 147.1 632.855 147.1H625.955V160.9H629.755ZM672.079 147.5V132H693.179V147.5L689.279 175.8H676.079L672.079 147.5ZM682.679 201.6C679.146 201.6 676.379 200.633 674.379 198.7C672.379 196.767 671.379 194.333 671.379 191.4C671.379 188.4 672.412 185.967 674.479 184.1C676.546 182.233 679.279 181.3 682.679 181.3C686.012 181.3 688.712 182.3 690.779 184.3C692.846 186.233 693.879 188.6 693.879 191.4C693.879 194.533 692.912 197.033 690.979 198.9C689.046 200.7 686.279 201.6 682.679 201.6ZM702.548 147.5V132H723.648V147.5L719.748 175.8H706.548L702.548 147.5ZM713.148 201.6C709.614 201.6 706.848 200.633 704.848 198.7C702.848 196.767 701.848 194.333 701.848 191.4C701.848 188.4 702.881 185.967 704.948 184.1C707.014 182.233 709.748 181.3 713.148 181.3C716.481 181.3 719.181 182.3 721.248 184.3C723.314 186.233 724.348 188.6 724.348 191.4C724.348 194.533 723.381 197.033 721.448 198.9C719.514 200.7 716.748 201.6 713.148 201.6Z"/>
</mask>
<path d="M392.9 202.6C386.233 202.6 380.167 201.033 374.7 197.9C369.3 194.7 365 190.367 361.8 184.9C358.667 179.367 357.1 173.267 357.1 166.6C357.1 159.8 358.633 153.667 361.7 148.2C364.767 142.733 368.967 138.467 374.3 135.4C379.633 132.267 385.633 130.7 392.3 130.7C395.9 130.7 399.433 131.133 402.9 132C406.367 132.867 409.333 134.1 411.8 135.7L409.1 151.2C404.3 149.4 399.967 148.5 396.1 148.5C390.767 148.5 386.667 150.067 383.8 153.2C380.933 156.267 379.5 160.7 379.5 166.5C379.5 172.167 381 176.6 384 179.8C387.067 182.933 391.3 184.5 396.7 184.5C398.767 184.5 400.7 184.3 402.5 183.9C404.3 183.5 406.5 182.767 409.1 181.7L411.9 197.5C406.1 200.9 399.767 202.6 392.9 202.6ZM420.852 132.2H442.452V185.8H466.352V201H420.852V132.2ZM474.66 132.2H522.96V147.4H498.96V159.9H520.86V172.5H498.96V185.8H522.96V201H474.66V132.2ZM547.133 132.2H577.533L597.433 201H573.933L571.333 187.8H553.533L550.633 201H528.133L547.133 132.2ZM568.933 175.5L562.433 145.4L555.633 175.5H568.933ZM656.155 202.6C643.621 202.6 635.955 196.8 633.155 185.2L630.655 174.9H625.955V201H604.055V132.2H634.355C640.088 132.2 645.121 133.067 649.455 134.8C653.855 136.467 657.255 138.833 659.655 141.9C662.055 144.967 663.255 148.5 663.255 152.5C663.255 156.967 662.155 160.733 659.955 163.8C657.821 166.8 654.488 169.267 649.955 171.2C650.421 173.733 650.955 176.033 651.555 178.1C652.355 180.633 653.455 182.4 654.855 183.4C656.255 184.4 658.288 184.9 660.955 184.9C661.888 184.9 663.355 184.767 665.355 184.5V200.8C662.221 202 659.155 202.6 656.155 202.6ZM629.755 160.9C634.688 160.9 638.155 160.367 640.155 159.3C642.221 158.167 643.255 156.267 643.255 153.6C643.255 151.333 642.421 149.7 640.755 148.7C639.088 147.633 636.455 147.1 632.855 147.1H625.955V160.9H629.755ZM672.079 147.5V132H693.179V147.5L689.279 175.8H676.079L672.079 147.5ZM682.679 201.6C679.146 201.6 676.379 200.633 674.379 198.7C672.379 196.767 671.379 194.333 671.379 191.4C671.379 188.4 672.412 185.967 674.479 184.1C676.546 182.233 679.279 181.3 682.679 181.3C686.012 181.3 688.712 182.3 690.779 184.3C692.846 186.233 693.879 188.6 693.879 191.4C693.879 194.533 692.912 197.033 690.979 198.9C689.046 200.7 686.279 201.6 682.679 201.6ZM702.548 147.5V132H723.648V147.5L719.748 175.8H706.548L702.548 147.5ZM713.148 201.6C709.614 201.6 706.848 200.633 704.848 198.7C702.848 196.767 701.848 194.333 701.848 191.4C701.848 188.4 702.881 185.967 704.948 184.1C707.014 182.233 709.748 181.3 713.148 181.3C716.481 181.3 719.181 182.3 721.248 184.3C723.314 186.233 724.348 188.6 724.348 191.4C724.348 194.533 723.381 197.033 721.448 198.9C719.514 200.7 716.748 201.6 713.148 201.6Z" fill="#E72838"/>
<path d="M374.7 197.9L366.543 211.665L366.643 211.724L366.744 211.781L374.7 197.9ZM361.8 184.9L347.877 192.784L347.934 192.884L347.992 192.983L361.8 184.9ZM361.7 148.2L375.654 156.028H375.654L361.7 148.2ZM374.3 135.4L382.276 149.271L382.34 149.233L382.405 149.195L374.3 135.4ZM402.9 132L406.781 116.478L406.781 116.478L402.9 132ZM411.8 135.7L427.563 138.446L429.377 128.03L420.507 122.277L411.8 135.7ZM409.1 151.2L403.482 166.181L421.551 172.957L424.863 153.946L409.1 151.2ZM383.8 153.2L395.488 164.126L395.547 164.063L395.605 164L383.8 153.2ZM384 179.8L372.327 190.743L372.445 190.869L372.565 190.991L384 179.8ZM402.5 183.9L399.029 168.281H399.029L402.5 183.9ZM409.1 181.7L424.855 178.908L421.391 159.363L403.027 166.897L409.1 181.7ZM411.9 197.5L419.992 211.303L429.598 205.672L427.655 194.708L411.9 197.5ZM392.9 186.6C388.857 186.6 385.559 185.682 382.656 184.019L366.744 211.781C374.774 216.384 383.61 218.6 392.9 218.6V186.6ZM382.857 184.135C379.814 182.332 377.45 179.964 375.608 176.817L347.992 192.983C352.55 200.77 358.786 207.068 366.543 211.665L382.857 184.135ZM375.723 177.016C374.018 174.005 373.1 170.642 373.1 166.6H341.1C341.1 175.891 343.315 184.728 347.877 192.784L375.723 177.016ZM373.1 166.6C373.1 162.302 374.041 158.903 375.654 156.028L347.746 140.372C343.225 148.43 341.1 157.298 341.1 166.6H373.1ZM375.654 156.028C377.337 153.028 379.493 150.871 382.276 149.271L366.324 121.529C358.441 126.063 352.196 132.439 347.746 140.372L375.654 156.028ZM382.405 149.195C385.091 147.617 388.254 146.7 392.3 146.7V114.7C383.013 114.7 374.176 116.916 366.195 121.605L382.405 149.195ZM392.3 146.7C394.602 146.7 396.831 146.975 399.019 147.522L406.781 116.478C402.035 115.291 397.198 114.7 392.3 114.7V146.7ZM399.019 147.522C401.129 148.05 402.388 148.666 403.093 149.123L420.507 122.277C416.279 119.534 411.604 117.684 406.781 116.478L399.019 147.522ZM396.037 132.954L393.337 148.454L424.863 153.946L427.563 138.446L396.037 132.954ZM414.718 136.219C408.673 133.952 402.397 132.5 396.1 132.5V164.5C397.536 164.5 399.927 164.848 403.482 166.181L414.718 136.219ZM396.1 132.5C387.505 132.5 378.633 135.144 371.995 142.4L395.605 164C395.479 164.138 395.316 164.282 395.13 164.408C394.945 164.532 394.8 164.597 394.736 164.621C394.617 164.666 394.978 164.5 396.1 164.5V132.5ZM372.112 142.274C365.565 149.277 363.5 158.206 363.5 166.5H395.5C395.5 164.88 395.705 164.04 395.799 163.747C395.873 163.519 395.829 163.761 395.488 164.126L372.112 142.274ZM363.5 166.5C363.5 175.004 365.808 183.789 372.327 190.743L395.673 168.857C395.839 169.034 395.848 169.146 395.781 168.947C395.693 168.688 395.5 167.945 395.5 166.5H363.5ZM372.565 190.991C379.311 197.884 388.059 200.5 396.7 200.5V168.5C395.533 168.5 395.057 168.33 395.028 168.32C395.016 168.315 395.078 168.338 395.18 168.403C395.284 168.47 395.373 168.545 395.435 168.609L372.565 190.991ZM396.7 200.5C399.796 200.5 402.904 200.201 405.971 199.519L399.029 168.281C398.496 168.399 397.737 168.5 396.7 168.5V200.5ZM405.971 199.519C408.992 198.848 412.119 197.756 415.173 196.503L403.027 166.897C400.881 167.778 399.608 168.152 399.029 168.281L405.971 199.519ZM393.345 184.492L396.145 200.292L427.655 194.708L424.855 178.908L393.345 184.492ZM403.808 183.697C400.517 185.626 396.986 186.6 392.9 186.6V218.6C402.547 218.6 411.683 216.174 419.992 211.303L403.808 183.697ZM420.852 132.2V116.2H404.852V132.2H420.852ZM442.452 132.2H458.452V116.2H442.452V132.2ZM442.452 185.8H426.452V201.8H442.452V185.8ZM466.352 185.8H482.352V169.8H466.352V185.8ZM466.352 201V217H482.352V201H466.352ZM420.852 201H404.852V217H420.852V201ZM420.852 148.2H442.452V116.2H420.852V148.2ZM426.452 132.2V185.8H458.452V132.2H426.452ZM442.452 201.8H466.352V169.8H442.452V201.8ZM450.352 185.8V201H482.352V185.8H450.352ZM466.352 185H420.852V217H466.352V185ZM436.852 201V132.2H404.852V201H436.852ZM474.66 132.2V116.2H458.66V132.2H474.66ZM522.96 132.2H538.96V116.2H522.96V132.2ZM522.96 147.4V163.4H538.96V147.4H522.96ZM498.96 147.4V131.4H482.96V147.4H498.96ZM498.96 159.9H482.96V175.9H498.96V159.9ZM520.86 159.9H536.86V143.9H520.86V159.9ZM520.86 172.5V188.5H536.86V172.5H520.86ZM498.96 172.5V156.5H482.96V172.5H498.96ZM498.96 185.8H482.96V201.8H498.96V185.8ZM522.96 185.8H538.96V169.8H522.96V185.8ZM522.96 201V217H538.96V201H522.96ZM474.66 201H458.66V217H474.66V201ZM474.66 148.2H522.96V116.2H474.66V148.2ZM506.96 132.2V147.4H538.96V132.2H506.96ZM522.96 131.4H498.96V163.4H522.96V131.4ZM482.96 147.4V159.9H514.96V147.4H482.96ZM498.96 175.9H520.86V143.9H498.96V175.9ZM504.86 159.9V172.5H536.86V159.9H504.86ZM520.86 156.5H498.96V188.5H520.86V156.5ZM482.96 172.5V185.8H514.96V172.5H482.96ZM498.96 201.8H522.96V169.8H498.96V201.8ZM506.96 185.8V201H538.96V185.8H506.96ZM522.96 185H474.66V217H522.96V185ZM490.66 201V132.2H458.66V201H490.66ZM547.133 132.2V116.2H534.952L531.71 127.941L547.133 132.2ZM577.533 132.2L592.903 127.754L589.561 116.2H577.533V132.2ZM597.433 201V217H618.717L612.803 196.554L597.433 201ZM573.933 201L558.234 204.092L560.777 217H573.933V201ZM571.333 187.8L587.031 184.708L584.489 171.8H571.333V187.8ZM553.533 187.8V171.8H540.666L537.906 184.367L553.533 187.8ZM550.633 201V217H563.499L566.26 204.433L550.633 201ZM528.133 201L512.71 196.741L507.115 217H528.133V201ZM568.933 175.5V191.5H588.757L584.572 172.123L568.933 175.5ZM562.433 145.4L578.072 142.023L546.826 141.874L562.433 145.4ZM555.633 175.5L540.026 171.974L535.615 191.5H555.633V175.5ZM547.133 148.2H577.533V116.2H547.133V148.2ZM562.163 136.646L582.063 205.446L612.803 196.554L592.903 127.754L562.163 136.646ZM597.433 185H573.933V217H597.433V185ZM589.631 197.908L587.031 184.708L555.634 190.892L558.234 204.092L589.631 197.908ZM571.333 171.8H553.533V203.8H571.333V171.8ZM537.906 184.367L535.006 197.567L566.26 204.433L569.16 191.233L537.906 184.367ZM550.633 185H528.133V217H550.633V185ZM543.556 205.259L562.556 136.459L531.71 127.941L512.71 196.741L543.556 205.259ZM584.572 172.123L578.072 142.023L546.793 148.777L553.293 178.877L584.572 172.123ZM546.826 141.874L540.026 171.974L571.24 179.026L578.04 148.926L546.826 141.874ZM555.633 191.5H568.933V159.5H555.633V191.5ZM633.155 185.2L648.708 181.446L648.706 181.436L648.703 181.426L633.155 185.2ZM630.655 174.9L646.203 171.126L643.236 158.9H630.655V174.9ZM625.955 174.9V158.9H609.955V174.9H625.955ZM625.955 201V217H641.955V201H625.955ZM604.055 201H588.055V217H604.055V201ZM604.055 132.2V116.2H588.055V132.2H604.055ZM649.455 134.8L643.512 149.656L643.649 149.71L643.787 149.763L649.455 134.8ZM659.655 141.9L672.255 132.039L672.255 132.039L659.655 141.9ZM659.955 163.8L646.954 154.473L646.935 154.501L646.915 154.528L659.955 163.8ZM649.955 171.2L643.678 156.483L631.9 161.506L634.219 174.099L649.955 171.2ZM651.555 178.1L636.189 182.561L636.241 182.74L636.297 182.918L651.555 178.1ZM654.855 183.4L645.555 196.42V196.42L654.855 183.4ZM665.355 184.5H681.355V166.225L663.24 168.64L665.355 184.5ZM665.355 200.8L671.077 215.742L681.355 211.806V200.8H665.355ZM640.155 159.3L647.684 173.418L647.766 173.374L647.848 173.329L640.155 159.3ZM640.755 148.7L632.13 162.176L632.325 162.301L632.523 162.42L640.755 148.7ZM625.955 147.1V131.1H609.955V147.1H625.955ZM625.955 160.9H609.955V176.9H625.955V160.9ZM656.155 186.6C652.312 186.6 650.971 185.727 650.658 185.49C650.43 185.317 649.456 184.544 648.708 181.446L617.601 188.954C619.653 197.456 623.913 205.383 631.352 211.01C638.705 216.573 647.464 218.6 656.155 218.6V186.6ZM648.703 181.426L646.203 171.126L615.106 178.674L617.606 188.974L648.703 181.426ZM630.655 158.9H625.955V190.9H630.655V158.9ZM609.955 174.9V201H641.955V174.9H609.955ZM625.955 185H604.055V217H625.955V185ZM620.055 201V132.2H588.055V201H620.055ZM604.055 148.2H634.355V116.2H604.055V148.2ZM634.355 148.2C638.503 148.2 641.447 148.829 643.512 149.656L655.397 119.944C648.796 117.304 641.673 116.2 634.355 116.2V148.2ZM643.787 149.763C646.025 150.61 646.798 151.434 647.055 151.761L672.255 132.039C667.711 126.233 661.685 122.323 655.122 119.837L643.787 149.763ZM647.055 151.761C647.132 151.86 647.169 151.923 647.183 151.949C647.197 151.975 647.202 151.987 647.205 151.995C647.207 152.004 647.218 152.036 647.229 152.104C647.24 152.174 647.255 152.302 647.255 152.5H679.255C679.255 145.031 676.922 138.002 672.255 132.039L647.055 151.761ZM647.255 152.5C647.255 153.421 647.142 153.949 647.071 154.19C647.008 154.407 646.959 154.467 646.954 154.473L672.955 173.127C677.444 166.87 679.255 159.682 679.255 152.5H647.255ZM646.915 154.528C646.978 154.44 646.391 155.326 643.678 156.483L656.231 185.917C662.586 183.208 668.665 179.16 672.994 173.072L646.915 154.528ZM634.219 174.099C634.765 177.06 635.414 179.892 636.189 182.561L666.92 173.639C666.495 172.175 666.078 170.407 665.69 168.301L634.219 174.099ZM636.297 182.918C637.608 187.067 640.168 192.572 645.555 196.42L664.155 170.38C665.487 171.332 666.227 172.329 666.562 172.868C666.884 173.385 666.914 173.604 666.812 173.282L636.297 182.918ZM645.555 196.42C650.79 200.159 656.664 200.9 660.955 200.9V168.9C660.577 168.9 660.731 168.86 661.25 168.988C661.788 169.12 662.888 169.476 664.154 170.38L645.555 196.42ZM660.955 200.9C663.021 200.9 665.38 200.638 667.469 200.36L663.24 168.64C662.387 168.754 661.753 168.825 661.306 168.866C660.814 168.91 660.745 168.9 660.955 168.9V200.9ZM649.355 184.5V200.8H681.355V184.5H649.355ZM659.632 185.858C658.11 186.441 656.981 186.6 656.155 186.6V218.6C661.329 218.6 666.332 217.559 671.077 215.742L659.632 185.858ZM629.755 176.9C634.912 176.9 641.908 176.498 647.684 173.418L632.625 145.182C633.301 144.822 633.772 144.677 633.885 144.644C634.012 144.607 633.944 144.636 633.622 144.686C632.944 144.79 631.707 144.9 629.755 144.9V176.9ZM647.848 173.329C655.806 168.965 659.255 161.177 659.255 153.6H627.255C627.255 152.877 627.4 151.263 628.424 149.381C629.504 147.396 631.057 146.041 632.461 145.271L647.848 173.329ZM659.255 153.6C659.255 146.818 656.35 139.398 648.987 134.98L632.523 162.42C630.946 161.474 629.407 159.964 628.378 157.947C627.406 156.042 627.255 154.408 627.255 153.6H659.255ZM649.38 135.224C643.782 131.641 637.355 131.1 632.855 131.1V163.1C633.366 163.1 633.745 163.119 634.009 163.142C634.276 163.165 634.381 163.187 634.354 163.182C634.329 163.177 634.107 163.131 633.744 162.996C633.38 162.86 632.809 162.611 632.13 162.176L649.38 135.224ZM632.855 131.1H625.955V163.1H632.855V131.1ZM609.955 147.1V160.9H641.955V147.1H609.955ZM625.955 176.9H629.755V144.9H625.955V176.9ZM672.079 147.5H656.079V148.625L656.236 149.739L672.079 147.5ZM672.079 132V116H656.079V132H672.079ZM693.179 132H709.179V116H693.179V132ZM693.179 147.5L709.029 149.684L709.179 148.597V147.5H693.179ZM689.279 175.8V191.8H703.225L705.129 177.984L689.279 175.8ZM676.079 175.8L660.236 178.039L662.181 191.8H676.079V175.8ZM674.379 198.7L663.259 210.204L674.379 198.7ZM674.479 184.1L663.754 172.226L674.479 184.1ZM690.779 184.3L679.652 195.798L679.749 195.892L679.848 195.984L690.779 184.3ZM690.979 198.9L701.882 210.61L701.988 210.511L702.092 210.41L690.979 198.9ZM688.079 147.5V132H656.079V147.5H688.079ZM672.079 148H693.179V116H672.079V148ZM677.179 132V147.5H709.179V132H677.179ZM677.329 145.316L673.429 173.616L705.129 177.984L709.029 149.684L677.329 145.316ZM689.279 159.8H676.079V191.8H689.279V159.8ZM691.921 173.561L687.921 145.261L656.236 149.739L660.236 178.039L691.921 173.561ZM682.679 185.6C682.351 185.6 682.61 185.553 683.231 185.77C683.914 186.009 684.746 186.468 685.499 187.196L663.259 210.204C668.99 215.744 676.168 217.6 682.679 217.6V185.6ZM685.499 187.196C685.994 187.674 686.541 188.402 686.928 189.343C687.307 190.266 687.379 191.02 687.379 191.4H655.379C655.379 198.407 657.955 205.077 663.259 210.204L685.499 187.196ZM687.379 191.4C687.379 191.76 687.31 192.568 686.881 193.579C686.44 194.618 685.803 195.432 685.203 195.974L663.754 172.226C658.048 177.38 655.379 184.267 655.379 191.4H687.379ZM685.203 195.974C684.566 196.549 683.858 196.934 683.249 197.142C682.686 197.334 682.434 197.3 682.679 197.3V165.3C676.234 165.3 669.378 167.147 663.754 172.226L685.203 195.974ZM682.679 197.3C682.743 197.3 682.332 197.308 681.647 197.054C680.92 196.785 680.214 196.342 679.652 195.798L701.906 172.802C696.38 167.455 689.454 165.3 682.679 165.3V197.3ZM679.848 195.984C679.444 195.606 678.876 194.925 678.441 193.927C678.004 192.926 677.879 192.016 677.879 191.4H709.879C709.879 184.118 706.971 177.538 701.709 172.616L679.848 195.984ZM677.879 191.4C677.879 191.321 677.893 190.728 678.231 189.855C678.588 188.931 679.165 188.066 679.865 187.39L702.092 210.41C707.67 205.025 709.879 198.092 709.879 191.4H677.879ZM680.076 187.19C680.982 186.347 681.899 185.907 682.504 185.71C683.047 185.533 683.181 185.6 682.679 185.6V217.6C688.836 217.6 696.053 216.037 701.882 210.61L680.076 187.19ZM702.548 147.5H686.548V148.625L686.705 149.739L702.548 147.5ZM702.548 132V116H686.548V132H702.548ZM723.648 132H739.648V116H723.648V132ZM723.648 147.5L739.498 149.684L739.648 148.597V147.5H723.648ZM719.748 175.8V191.8H733.694L735.598 177.984L719.748 175.8ZM706.548 175.8L690.705 178.039L692.65 191.8H706.548V175.8ZM704.848 198.7L693.727 210.204L704.848 198.7ZM704.948 184.1L694.223 172.226L704.948 184.1ZM721.248 184.3L710.121 195.798L710.218 195.892L710.317 195.984L721.248 184.3ZM721.448 198.9L732.35 210.61L732.457 210.511L732.561 210.41L721.448 198.9ZM718.548 147.5V132H686.548V147.5H718.548ZM702.548 148H723.648V116H702.548V148ZM707.648 132V147.5H739.648V132H707.648ZM707.797 145.316L703.897 173.616L735.598 177.984L739.498 149.684L707.797 145.316ZM719.748 159.8H706.548V191.8H719.748V159.8ZM722.39 173.561L718.39 145.261L686.705 149.739L690.705 178.039L722.39 173.561ZM713.148 185.6C712.82 185.6 713.079 185.553 713.7 185.77C714.382 186.009 715.215 186.468 715.968 187.196L693.727 210.204C699.459 215.744 706.637 217.6 713.148 217.6V185.6ZM715.968 187.196C716.462 187.674 717.01 188.402 717.397 189.343C717.776 190.266 717.848 191.02 717.848 191.4H685.848C685.848 198.407 688.424 205.077 693.727 210.204L715.968 187.196ZM717.848 191.4C717.848 191.76 717.779 192.568 717.35 193.579C716.908 194.618 716.272 195.432 715.672 195.974L694.223 172.226C688.517 177.38 685.848 184.267 685.848 191.4H717.848ZM715.672 195.974C715.035 196.549 714.327 196.934 713.718 197.142C713.155 197.334 712.903 197.3 713.148 197.3V165.3C706.703 165.3 699.847 167.147 694.223 172.226L715.672 195.974ZM713.148 197.3C713.212 197.3 712.801 197.308 712.116 197.054C711.389 196.785 710.683 196.342 710.121 195.798L732.374 172.802C726.849 167.455 719.923 165.3 713.148 165.3V197.3ZM710.317 195.984C709.913 195.606 709.345 194.925 708.909 193.927C708.472 192.926 708.348 192.016 708.348 191.4H740.348C740.348 184.118 737.439 177.538 732.178 172.616L710.317 195.984ZM708.348 191.4C708.348 191.321 708.362 190.728 708.699 189.855C709.056 188.931 709.634 188.066 710.334 187.39L732.561 210.41C738.138 205.025 740.348 198.092 740.348 191.4H708.348ZM710.545 187.19C711.45 186.347 712.367 185.907 712.973 185.71C713.515 185.533 713.649 185.6 713.148 185.6V217.6C719.305 217.6 726.522 216.037 732.35 210.61L710.545 187.19Z" fill="white" mask="url(#path-117-outside-1_0_1)"/>
<defs>
<clipPath id="clip0_0_1">
<rect width="1096" height="291" fill="white"/>
</clipPath>
</defs>
</svg>
