<svg width="1100" height="680" viewBox="0 0 1100 680" fill="none" xmlns="http://www.w3.org/2000/svg">
  <rect x="7.5" y="7.5" width="1085" height="665" rx="22.5" fill="url(#paint0_linear_273_5348)" stroke="white"
    stroke-width="15" />
  <mask id="mask0_273_5348" style="mask-type:alpha" maskUnits="userSpaceOnUse" x="15" y="17" width="1070" height="650">
    <rect x="22.5" y="24.5" width="1055" height="635" rx="12.5" fill="url(#paint1_linear_273_5348)" stroke="white"
      stroke-width="15" />
  </mask>
  <g mask="url(#mask0_273_5348)">
    <path d="M537.009 331.921L498.969 -308H575.031L537.009 331.921Z" fill="url(#paint2_linear_273_5348)" />
    <path d="M538.006 331.728L283.381 -256.585L354.841 -282.598L538.006 331.728Z" fill="url(#paint3_linear_273_5348)" />
    <path d="M538.898 331.221L98.3608 -134.545L156.628 -183.424L538.898 331.221Z" fill="url(#paint4_linear_273_5348)" />
    <path d="M539.563 330.434L-33.7285 43.4061L4.29381 -22.4421L539.563 330.434Z" fill="url(#paint5_linear_273_5348)" />
    <path d="M539.913 329.471L-97 255.786L-83.7893 180.911L539.913 329.471Z" fill="url(#paint6_linear_273_5348)" />
    <path d="M534.087 329.471L1171 255.786L1157.79 180.911L534.087 329.471Z" fill="url(#paint7_linear_273_5348)" />
    <path d="M534.437 330.434L1107.75 43.4061L1069.71 -22.4421L534.437 330.434Z" fill="url(#paint8_linear_273_5348)" />
    <path d="M535.102 331.221L975.639 -134.545L917.372 -183.424L535.102 331.221Z" fill="url(#paint9_linear_273_5348)" />
    <path d="M535.994 331.728L790.619 -256.585L719.159 -282.598L535.994 331.728Z"
      fill="url(#paint10_linear_273_5348)" />
    <g clip-path="url(#clip0_273_5348)">
      <path d="M876.036 76.1912L850.6 75.4359L850.888 63.9829L875.68 65.0129L876.036 76.1912Z" fill="#FFF380" />
      <path d="M64.7355 148.315L51.9148 129.329L59.4112 128.052L72.321 145.932L64.7355 148.315Z" fill="#FFF380" />
      <path d="M624.165 181.753L619.492 178.629L606.575 185.997L612.811 187.782L624.165 181.753Z" fill="#EBD065" />
      <path d="M75.2402 185.743L65.8045 200.251L54.6284 196.255L64.3381 182.399L75.2402 185.743Z" fill="#038437" />
      <path d="M321.916 52.9008L319.498 57.405L303.95 59.8288V52.9008H321.916Z" fill="#FFF380" />
      <path d="M106.754 286.595L95.434 303.678L85.7722 304.948L97.0854 288.126L106.754 286.595Z" fill="#FFF380" />
      <path d="M157.824 63.6602L147.786 54.5898L137 61.1746L146.669 68.5078L157.824 63.6602Z" fill="#F47878" />
      <path d="M334.168 119.744L328.303 115.604L320.368 120.685L327.268 123.884L334.168 119.744Z" fill="#32B46E" />
      <path d="M392.406 68.6452L372.192 72.662L368.348 64.7932L385.39 62.7814L392.406 68.6452Z" fill="#FFF380" />
      <path d="M196.574 80.0569L201.213 88.5505L197.65 94.4624L193.258 85.4813L196.574 80.0569Z" fill="#F96EAE" />
      <path d="M951.829 29.9948L928.024 36.8474L928.833 26.3969L947.971 21.5768L951.829 29.9948Z" fill="#F96EAE" />
      <path
        d="M421.885 190.927L415.334 198.926C415.334 198.926 400.444 178.513 400.8 178.513C401.157 178.513 407.474 171.111 407.474 171.111L421.885 190.927Z"
        fill="#038437" />
      <path d="M594.33 78.0451L584.805 101.562L578.255 97.5041L587.779 74.1038L594.33 78.0451Z" fill="#36C4F6" />
      <path d="M642.55 61.154L643.982 66.8874L636.595 65.0953L635.766 59.3619L642.55 61.154Z" fill="#E72838" />
      <path d="M153.774 55.2353L174.975 54.8164L180.526 49.5363L159.16 49.4813L153.774 55.2353Z" fill="#FFF380" />
      <path d="M479.451 24.5018L488.544 36.9847L475.916 65.6652L466.315 52.3377L479.451 24.5018Z" fill="#FFF380" />
      <path d="M323.116 92.4849L329.55 101.322L320.615 121.612L313.824 112.184L323.116 92.4849Z" fill="#EBD065" />
      <path d="M29.4462 147.079L23.8478 148.754L18.366 145.287L24.6769 143.021L29.4462 147.079Z" fill="#FFF380" />
      <path d="M714.986 44.1187L719.035 51.4039L705.098 47.7579L703.789 41.9696L714.986 44.1187Z" fill="#32B46E" />
      <path d="M911.983 80.1462L913.436 85.7216H903.52L902.554 80.1462H911.983Z" fill="#FFF380" />
      <path d="M1008.7 35.1171L1001.99 44.3591L990.51 42.258L998.055 34.252L1008.7 35.1171Z" fill="#038437" />
      <path d="M854.773 75.944L859.042 86.4769L842.617 114.134L838.677 101.954L854.773 75.944Z" fill="#F47878" />
      <path
        d="M194.642 44.1119L201.192 52.1112C201.192 52.1112 216.082 31.6977 215.726 31.6977C215.37 31.6977 209.052 24.2958 209.052 24.2958L194.642 44.1119Z"
        fill="#FFF380" />
      <path d="M116.799 289.891L114.01 273.48L110.55 277.524L113.599 293.646L116.799 289.891Z" fill="#008DC4" />
      <path d="M1089.36 248.919L1070.92 252.25L1073.05 261.67L1092 258.505L1089.36 248.919Z" fill="#E72838" />
      <path d="M183.952 107.817L191.188 100.573L198.733 99.4885L191.339 106.121L183.952 107.817Z" fill="#32B46E" />
      <path d="M674.989 86.0924V102.132L683.301 107.536V91.0293L674.989 86.0924Z" fill="#FFB0E1" />
      <path d="M633.574 29.5692L625.57 42.2168L646.511 46.8447L650.512 35.1171L633.574 29.5692Z" fill="#FFF380" />
      <path d="M395.737 95.4305L396.744 115.082L384.924 120.204V102.736L395.737 95.4305Z" fill="#FFF380" />
      <path d="M492.018 54.7615L497.123 56.5056L516.933 47.085L510.979 45.0526L492.018 54.7615Z" fill="#F96EAE" />
      <path d="M1058.2 132.021L1063.31 144.106L1054.63 155.037L1048.51 141.098L1058.2 132.021Z" fill="#FFB0E1" />
      <path d="M322.403 175.471L325.11 184.514L310.658 180.442L307.047 171.468L322.403 175.471Z" fill="#FFF380" />
      <path d="M716.671 136.106L719.172 148.981L716.671 156.231L711.573 142.094L716.671 136.106Z" fill="#FFF380" />
      <path d="M808.993 53.4364L813.584 65.6927L799.29 61.875L796.234 50.3671L808.993 53.4364Z" fill="#32B46E" />
      <path d="M1055.98 95.712L1045.17 101.754L1034.61 81.3478L1045.29 76.0607L1055.98 95.712Z" fill="#FFF380" />
      <path d="M364.168 61.6965H350.093L343.632 35.5909H355.74L364.168 61.6965Z" fill="#FFB0E1" />
      <path d="M269.147 58.3183L263.096 40.9946L254.024 46.625L259.855 64.3812L269.147 58.3183Z" fill="#EBD065" />
      <path d="M81.7636 227.043V242.925L57.3694 247.052V230.195L81.7636 227.043Z" fill="#FFF380" />
      <path d="M785.469 95.2657L789.402 99.564L784.4 110.907L781.542 105.888L785.469 95.2657Z" fill="#FFF380" />
      <path d="M255.943 65.3081L255.333 73.582L237.482 85.7902L239.463 75.0102L255.943 65.3081Z" fill="#F96EAE" />
      <path d="M679.717 113.997L677.202 108.003L669.911 131.684L673.18 134.96L679.717 113.997Z" fill="#038437" />
      <path d="M717.562 161.264L734.124 180.655L725.182 175.677L706.832 155.291L717.562 161.264Z" fill="#EBD065" />
      <path d="M83.8054 63.3513L91.9939 78.0451L80.3998 89.6629L73.5818 76.5071L83.8054 63.3513Z" fill="#36C4F6" />
      <path d="M30.0902 76.7954V88.1316L27.6987 90.6516V78.5532L30.0902 76.7954Z" fill="#32B46E" />
      <path d="M740.497 67.2375V82.0275L717.781 85.8658V70.1695L740.497 67.2375Z" fill="#EBD065" />
      <path d="M776.917 103.361L764.041 116.819L754.099 110.09L767.276 100.875L776.917 103.361Z" fill="#F96EAE" />
      <path d="M62.5085 36.9778L63.2075 60.2271L78.8171 63.468L77.3369 40.7886L62.5085 36.9778Z" fill="#FFF380" />
      <path d="M503.263 136.972L528.157 128.856H553.024L528.144 142.19L503.263 136.972Z" fill="#F47878" />
      <path d="M635.369 155.442L624.604 179.618L615.778 171.564L625.577 151.672L635.369 155.442Z" fill="#FFF380" />
      <path d="M342.713 145.609V156.238L358.261 167.712L357.418 156.238L342.713 145.609Z" fill="#E72838" />
      <path d="M32.5366 189.073L51.4147 215.233L58.966 203.883L43.2331 183.552L32.5366 189.073Z" fill="#E72838" />
      <path d="M1051.61 69.4005L1082.1 62.184L1072.79 59.1079L1046.05 66.9286L1051.61 69.4005Z" fill="#EBD065" />
      <path d="M986.091 93.199L987.598 98.9667H1001.71L999.795 93.199H986.091Z" fill="#F96EAE" />
      <path d="M260.938 86.731L247.405 101.294L266.262 125.937L280.618 110.481L260.938 86.731Z" fill="#FFF380" />
      <path d="M499.823 165.302L507.936 171.983L516.406 167.115L508.114 162.054L499.823 165.302Z" fill="#FFF380" />
      <path d="M116.457 94.6203L118.581 101.528L137.541 121.234L135.568 113.619L116.457 94.6203Z" fill="#EBD065" />
      <path d="M540.094 65.6995L558.972 91.8601L566.524 80.5101L550.798 60.179L540.094 65.6995Z" fill="#32B46E" />
      <path d="M982.267 65.4249L985.707 85.0281L956.502 95.4099L952.85 74.6188L982.267 65.4249Z" fill="#36C4F6" />
      <path d="M605.273 126.555L628.003 138.022L633.19 127.819L610.899 116.888L605.273 126.555Z" fill="#FFF380" />
      <path d="M960.223 249.414L967.363 263.339L970.591 259.26L964.136 245.644L960.223 249.414Z" fill="#FFF380" />
      <path d="M989.099 189.444L993.772 186.326L1006.69 193.687L1000.45 195.472L989.099 189.444Z" fill="#E72838" />
      <path d="M178.34 265.914L169.35 274.737L173.79 282.166L182.28 273.24L178.34 265.914Z" fill="#FFF380" />
      <path d="M221.256 220.205L223.682 224.709L239.223 227.126V220.205H221.256Z" fill="#F47878" />
      <path d="M171.68 198.404L183 215.481L192.668 216.758L181.348 199.935L171.68 198.404Z" fill="#FFF380" />
      <path d="M1062.55 166.806L1072.59 157.735L1083.37 164.32L1073.7 171.646L1062.55 166.806Z" fill="#F47878" />
      <path d="M821.258 180.38L827.124 176.24L835.059 181.314L828.159 184.521L821.258 180.38Z" fill="#FFB0E1" />
      <path d="M955.872 117.203L960.833 137.253L969.57 137.397L964.15 121.083L955.872 117.203Z" fill="#F47878" />
      <path d="M844.542 132.653L845.995 142.224L852.402 144.765L850.47 134.953L844.542 132.653Z" fill="#FFF380" />
      <path d="M819.189 261.787L803.155 266.291L807.3 271.99L819.949 267.973L819.189 261.787Z" fill="#008DC4" />
      <path
        d="M1057.01 40.8161L1063.56 48.8153C1063.56 48.8153 1078.45 28.4019 1078.09 28.4019C1077.73 28.4019 1071.42 21 1071.42 21L1057.01 40.8161Z"
        fill="#E72838" />
      <path d="M232.932 136.759L242.457 160.269L249.008 156.211L239.483 132.817L232.932 136.759Z" fill="#008DC4" />
      <path d="M165.732 197.134L164.3 202.86L171.686 201.068L172.522 195.342L165.732 197.134Z" fill="#FFB0E1" />
      <path d="M1076.21 192.286L1070.17 212.652L1063.62 216.614L1069.24 195.96L1076.21 192.286Z" fill="#FFF380" />
      <path d="M899.553 22.3252L889.809 35.6939L903.335 66.4136L913.614 52.1386L899.553 22.3252Z" fill="#F47878" />
      <path d="M881.456 105.689L875.021 114.519L883.957 134.815L890.748 125.381L881.456 105.689Z" fill="#038437" />
      <path d="M1050.93 286.615L1056.53 288.291L1062.01 284.83L1055.7 282.557L1050.93 286.615Z" fill="#F96EAE" />
      <path d="M787.812 200.395L783.762 207.674L797.7 204.035L799.009 198.246L787.812 200.395Z" fill="#FFF380" />
      <path d="M412.956 139.643L411.504 145.218H421.419L422.392 139.643H412.956Z" fill="#F47878" />
      <path d="M879.695 209.692L887.027 220.157L898.169 218.825L890.103 209.61L879.695 209.692Z" fill="#E72838" />
      <path d="M755.531 42.2237L766.09 46.3915L793.513 29.6378L781.309 25.8133L755.531 42.2237Z" fill="#FFF380" />
      <path d="M564.564 47.1743L567.359 30.7639L570.813 34.8012L567.771 50.9233L564.564 47.1743Z" fill="#E72838" />
      <path d="M11.082 293.413L17.0847 281.967L22.8132 285.318L16.8174 297.134L11.082 293.413Z" fill="#FFB0E1" />
      <path d="M683.589 207.777L676.353 200.526L668.808 199.441L676.195 206.081L683.589 207.777Z" fill="#E72838" />
      <path d="M932.382 242.719L916.368 242.644L911.017 234.294L927.49 234.363L932.382 242.719Z" fill="#36C4F6" />
      <path d="M55.1012 297.189L59.9458 304.845L47.269 307.647L44.8433 300.547L55.1012 297.189Z" fill="#E72838" />
      <path d="M591.158 224.235L579.714 221.111L575.178 227.435L585.463 229.687L591.158 224.235Z" fill="#FFF380" />
      <path d="M186.768 157.241L181.663 158.978L161.853 149.564L167.808 147.532L186.768 157.241Z" fill="#F96EAE" />
      <path d="M469.241 92.6016L464.143 104.686L472.818 115.617L478.944 101.679L469.241 92.6016Z" fill="#008DC4" />
      <path d="M1025.77 231.486L1023.06 240.536L1037.51 236.464L1041.12 227.49L1025.77 231.486Z" fill="#EBD065" />
      <path d="M1028.65 145.081L1026.15 157.948L1028.65 165.199L1033.75 151.061L1028.65 145.081Z" fill="#36C4F6" />
      <path d="M789.738 170.609L785.147 182.873L799.434 179.048L802.497 167.54L789.738 170.609Z" fill="#36C4F6" />
      <path d="M951.068 190.185L961.874 196.228L972.434 175.821L961.751 170.534L951.068 190.185Z" fill="#EBD065" />
      <path d="M120.267 158.676L115.881 145.273L89.116 147.264L92.8916 158.793L120.267 158.676Z" fill="#EBD065" />
      <path d="M455.557 200.835L461.608 183.511L470.68 189.135L464.849 206.898L455.557 200.835Z" fill="#FFF380" />
      <path d="M679.594 59.053L694.395 47.4833L680.464 21.6592L664.758 33.9361L679.594 59.053Z" fill="#E72838" />
      <path d="M1015.82 268.193L1011.89 272.491L1016.89 283.828L1019.76 278.815L1015.82 268.193Z" fill="#32B46E" />
      <path d="M958.195 201.727L958.805 210.001L976.662 222.21L974.675 211.436L958.195 201.727Z" fill="#FFB0E1" />
      <path d="M551.435 179.639L553.95 173.644L561.24 197.326L557.972 200.601L551.435 179.639Z" fill="#32B46E" />
      <path d="M199.15 191.147L182.588 210.537L191.537 205.559L209.881 185.173L199.15 191.147Z" fill="#E72838" />
      <path d="M330.461 232.701L325.589 241.442L332.49 248.356L336.546 240.529L330.461 232.701Z" fill="#E72838" />
      <path d="M279.748 190.597V201.933L282.139 204.447V192.355L279.748 190.597Z" fill="#FFF380" />
      <path d="M1008.13 303.136V310.174L1018.94 312V304.536L1008.13 303.136Z" fill="#FFF380" />
      <path d="M17.0229 39.7655L29.8984 53.2235L39.8343 46.4945L26.6642 37.2868L17.0229 39.7655Z" fill="#E72838" />
      <path d="M930.745 139.993L930.039 163.235L914.436 166.476L915.909 143.797L930.745 139.993Z" fill="#FFF380" />
      <path d="M141.372 30.7776L116.477 22.6616H91.6104L116.491 35.9959L141.372 30.7776Z" fill="#32B46E" />
      <path d="M19.9694 119.325L9.20444 143.508L0.378662 135.447L10.1775 115.562L19.9694 119.325Z" fill="#FFB0E1" />
      <path d="M304.45 208.477V216.188L293.171 224.51L293.788 216.188L304.45 208.477Z" fill="#F47878" />
      <path d="M878.948 183.443L868.073 198.507L863.729 191.971L872.788 180.263L878.948 183.443Z" fill="#FFF380" />
      <path d="M35.6954 272.134L-4 262.741L8.10804 258.731L42.9315 268.914L35.6954 272.134Z" fill="#EBD065" />
      <path d="M120.191 208.182L118.691 213.949H104.575L106.494 208.182H120.191Z" fill="#F96EAE" />
      <path d="M291.883 21.2266L305.416 35.7968L286.552 60.433L272.203 44.9839L291.883 21.2266Z" fill="#36C4F6" />
      <path d="M459.134 98.8431L451.028 105.524L442.552 100.649L450.843 95.5884L459.134 98.8431Z" fill="#038437" />
      <path d="M1010.86 179.92L1004.02 177.647L984.741 158.257L992.299 160.392L1010.86 179.92Z" fill="#FFF380" />
      <path d="M855.595 28.0036L836.724 54.1641L829.173 42.821L844.899 22.4831L855.595 28.0036Z" fill="#008DC4" />
      <path d="M403.37 31.011L400.17 49.2342L427.312 58.8813L430.704 39.5596L403.37 31.011Z" fill="#E72838" />
    </g>
    <path fill-rule="evenodd" clip-rule="evenodd"
      d="M872.446 220.501C913.561 230.227 954.775 204.78 964.501 163.665C974.227 122.55 948.78 81.3355 907.665 71.6099C866.55 61.8842 825.336 87.3304 815.61 128.446C810.975 148.039 814.328 167.655 823.557 183.875L805.777 203.059L831.227 194.965C841.464 207.297 855.647 216.527 872.446 220.501Z"
      fill="url(#paint11_linear_273_5348)" />
    <path
      d="M843.537 136.925L847.362 135.875C847.429 136.092 847.587 136.625 847.837 137.475C848.087 138.325 848.279 138.992 848.412 139.475C849.179 139.325 849.954 139.25 850.737 139.25C852.52 139.25 853.962 139.8 855.062 140.9C856.179 141.983 856.737 143.433 856.737 145.25C856.737 147.283 856.129 148.883 854.912 150.05C853.712 151.2 852.095 151.775 850.062 151.775C848.979 151.775 847.912 151.675 846.862 151.475L847.187 147.9C847.987 148.033 848.804 148.1 849.637 148.1C850.537 148.1 851.27 147.858 851.837 147.375C852.404 146.892 852.687 146.25 852.687 145.45C852.687 143.733 851.829 142.875 850.112 142.875C849.895 142.875 849.654 142.9 849.387 142.95C849.654 143.95 849.904 144.9 850.137 145.8L846.512 146.875C846.245 145.858 845.97 144.892 845.687 143.975C845.52 144.025 845.262 144.117 844.912 144.25C844.562 144.367 844.22 144.483 843.887 144.6C843.57 144.717 843.254 144.833 842.937 144.95C844.07 148.717 845.187 152.742 846.287 157.025L842.362 158C841.445 154.35 840.387 150.475 839.187 146.375C838.687 146.558 837.912 146.867 836.862 147.3C835.812 147.717 835.112 147.992 834.762 148.125L833.387 144.7C834.07 144.433 834.987 144.075 836.137 143.625C837.287 143.175 837.945 142.917 838.112 142.85C837.195 139.917 836.695 138.325 836.612 138.075L840.437 136.9C840.77 137.9 841.254 139.417 841.887 141.45C842.82 141.117 843.737 140.8 844.637 140.5C844.137 138.867 843.77 137.675 843.537 136.925ZM861.662 143.45C865.829 142.5 868.929 142.025 870.962 142.025C876.129 142.025 878.712 144.175 878.712 148.475C878.712 151.225 877.637 153.292 875.487 154.675C873.337 156.042 869.987 156.725 865.437 156.725L865.187 153.375C868.67 153.375 871.162 152.992 872.662 152.225C874.162 151.442 874.912 150.267 874.912 148.7C874.912 147.567 874.57 146.742 873.887 146.225C873.22 145.708 872.129 145.45 870.612 145.45C869.045 145.45 866.295 145.9 862.362 146.8L861.662 143.45ZM904.987 146.7C901.47 146.7 898.07 146.883 894.787 147.25L894.587 143.925C897.937 143.558 901.404 143.375 904.987 143.375V146.7ZM905.137 153.2L905.562 156.625C903.779 156.958 902.029 157.125 900.312 157.125C897.929 157.125 896.029 156.692 894.612 155.825C893.212 154.942 892.512 153.817 892.512 152.45C892.512 151.183 893.304 149.908 894.887 148.625L897.862 150.05C897.245 150.617 896.837 151.033 896.637 151.3C896.454 151.55 896.362 151.792 896.362 152.025C896.362 152.508 896.704 152.908 897.387 153.225C898.087 153.542 899.062 153.7 900.312 153.7C901.712 153.7 903.32 153.533 905.137 153.2ZM885.062 141.875V138.45H888.937C889.17 137.183 889.337 136.225 889.437 135.575L893.262 135.9C893.179 136.467 893.037 137.317 892.837 138.45H901.387V141.875H892.212C891.112 147.392 889.754 152.608 888.137 157.525L884.312 156.675C885.879 151.942 887.195 147.008 888.262 141.875H885.062ZM909.262 139.55H913.737V136.075H917.362V141.325C919.745 139.392 921.962 138.425 924.012 138.425C926.362 138.425 928.079 139.142 929.162 140.575C930.262 142.008 930.812 144.4 930.812 147.75C930.812 149.1 930.67 150.325 930.387 151.425C930.937 152.108 931.545 152.917 932.212 153.85L929.762 156.1C929.662 155.95 929.495 155.725 929.262 155.425C929.045 155.108 928.887 154.883 928.787 154.75C927.57 156.2 925.979 156.925 924.012 156.925C922.445 156.925 921.179 156.492 920.212 155.625C919.245 154.742 918.762 153.592 918.762 152.175C918.762 150.758 919.237 149.617 920.187 148.75C921.154 147.867 922.429 147.425 924.012 147.425C925.029 147.425 925.979 147.675 926.862 148.175C926.862 148.125 926.862 148.058 926.862 147.975C926.879 147.875 926.887 147.8 926.887 147.75C926.887 146.233 926.779 145.075 926.562 144.275C926.362 143.475 926.045 142.925 925.612 142.625C925.195 142.308 924.595 142.15 923.812 142.15C923.062 142.15 922.195 142.45 921.212 143.05C920.229 143.65 918.945 144.717 917.362 146.25V157.675H913.737V150.025C913.604 150.175 913.237 150.592 912.637 151.275C912.037 151.958 911.554 152.5 911.187 152.9L908.512 150.45C910.445 148.2 912.187 146.275 913.737 144.675V142.75H909.262V139.55ZM926.462 151.825C925.995 151.325 925.595 150.992 925.262 150.825C924.945 150.658 924.587 150.575 924.187 150.575C923.57 150.575 923.087 150.717 922.737 151C922.404 151.267 922.237 151.625 922.237 152.075C922.237 152.558 922.395 152.95 922.712 153.25C923.045 153.533 923.479 153.675 924.012 153.675C925.279 153.675 926.095 153.058 926.462 151.825ZM942.637 137.75H947.737L947.112 150.25H943.262L942.637 137.75ZM943.012 156V152.25H947.362V156H943.012Z"
      fill="white" />
    <path
      d="M374.735 181.823C374.835 181.759 374.937 181.697 375.04 181.638C375.981 181.1 376.711 180.628 377.288 180.198C377.309 180.183 377.33 180.167 377.351 180.152C377.973 179.698 378.605 179.174 379.215 178.607C379.827 178.038 380.434 177.411 381.037 176.71C381.767 175.861 382.588 174.877 383.486 173.769C384.906 172.018 387.037 170.998 389.291 170.992C391.545 170.985 393.682 171.993 395.111 173.735L406.597 187.738C408.585 190.163 408.856 193.568 407.275 196.276C402.797 203.946 396.592 210.031 388.787 214.466C377.709 220.766 365.858 222.486 353.609 219.496C340.625 216.365 330.577 208.455 323.601 196.429C323.59 196.409 323.578 196.388 323.566 196.368C320.239 190.505 318.109 184.396 317.28 178.057C316.467 171.833 316.839 165.754 318.418 159.897L318.423 159.878C320.018 154.023 322.752 148.637 326.542 143.767L326.552 143.755C330.413 138.816 335.221 134.733 340.907 131.488L340.919 131.482C348.937 126.925 357.465 124.57 366.376 124.572C369.53 124.573 372.346 126.547 373.423 129.511L379.473 146.164C380.239 148.273 380.021 150.614 378.879 152.544C377.736 154.475 375.79 155.793 373.573 156.137C368.507 156.922 364.697 158.211 361.909 159.789L374.735 181.823ZM374.735 181.823C372.865 182.847 371.241 183.383 369.83 183.605C368.319 183.828 367.034 183.717 365.893 183.371C364.749 183.024 363.54 182.373 362.275 181.254C361.025 180.147 359.739 178.574 358.49 176.379C355.921 171.838 355.569 168.637 356.065 166.345C356.498 164.342 357.894 162.066 361.907 159.791L374.735 181.823Z"
      fill="white" stroke="white" stroke-width="15" stroke-linejoin="round" />
    <path
      d="M384.627 113.337C381.431 114.314 379.267 117.29 379.322 120.633L379.322 120.647C379.334 121.348 379.444 122.043 379.649 122.713L402.242 196.695C402.824 198.598 404.138 200.192 405.895 201.127C407.652 202.061 409.708 202.258 411.611 201.675L460.411 186.731C464.369 185.519 466.597 181.33 465.389 177.371L460.546 161.5C459.965 159.596 458.651 158.001 456.894 157.067C455.137 156.132 453.081 155.934 451.177 156.517L432.744 162.158L417.185 111.224C416.604 109.321 415.29 107.727 413.533 106.793C411.777 105.859 409.721 105.661 407.818 106.243L384.627 113.337Z"
      fill="white" stroke="white" stroke-width="15" stroke-linejoin="round" />
    <path
      d="M456.325 93.8412C453.465 94.2049 451.067 96.1755 450.155 98.9105C449.746 100.14 449.669 101.427 449.897 102.653L459.587 178.98C459.837 180.953 460.862 182.747 462.435 183.965C464.007 185.183 466 185.726 467.973 185.475L521.754 178.635C525.863 178.113 528.77 174.359 528.248 170.25L526.116 153.462C525.865 151.488 524.84 149.695 523.267 148.477C521.694 147.259 519.702 146.716 517.728 146.967L498.394 149.43L498.373 149.263L515.431 147.09C519.537 146.567 522.443 142.816 521.924 138.709L520.146 124.644C519.896 122.67 518.872 120.875 517.299 119.656C516.687 119.182 516.011 118.81 515.298 118.547C518.791 117.542 521.127 114.114 520.654 110.396L518.506 93.4951C518.255 91.5218 517.231 89.729 515.658 88.5111C514.085 87.2931 512.093 86.7499 510.12 87.0008L456.325 93.8412Z"
      fill="white" stroke="white" stroke-width="15" stroke-linejoin="round" />
    <path
      d="M551.233 86.2891C547.863 86.1391 544.808 88.2571 543.766 91.4653L518.981 167.792C518.258 170.02 518.617 172.457 519.951 174.381C521.285 176.306 523.441 177.497 525.781 177.601L551.103 178.729C554.637 178.887 557.8 176.554 558.694 173.131L560.994 164.318L568.741 164.66L570.105 173.534C570.648 177.068 573.611 179.728 577.183 179.887L603.602 181.068C605.958 181.173 608.226 180.164 609.726 178.343C611.225 176.523 611.781 174.103 611.226 171.811L592.284 93.5352C591.499 90.2903 588.664 87.9551 585.328 87.8066L551.233 86.2891Z"
      fill="white" stroke="white" stroke-width="15" stroke-linejoin="round" />
    <path
      d="M678.539 197.462C680.694 196.339 682.112 194.285 682.479 192L686.687 174.782C687.205 172.663 686.775 170.424 685.509 168.648C684.243 166.873 682.267 165.736 680.096 165.534C679.053 165.437 678.369 165.366 677.927 165.305C677.652 165.266 677.448 165.235 677.305 165.211C677.26 165.204 677.226 165.198 677.202 165.194C675.786 164.836 674.848 164.494 674.286 164.228C674.026 164.098 673.867 163.994 673.781 163.931C673.78 163.927 673.779 163.923 673.777 163.918C673.671 163.568 673.546 162.963 673.486 162.012L673.457 160.275C674.273 160.012 675.073 159.724 675.857 159.413C678.649 158.305 681.202 156.82 683.475 154.961C685.827 153.037 687.783 150.733 689.358 148.134C690.989 145.442 692.149 142.424 692.938 139.21L692.941 139.2C694.089 134.494 694.093 129.771 692.708 125.204C691.41 120.926 689.167 117.101 686.067 113.753C683.047 110.475 679.371 107.762 675.212 105.529C671.049 103.294 666.489 101.582 661.596 100.391C661.594 100.391 661.592 100.39 661.59 100.39L628.238 92.2234C626.305 91.7501 624.264 92.0644 622.562 93.0971C620.861 94.1298 619.64 95.7963 619.168 97.7296L600.827 172.867C599.845 176.888 602.308 180.945 606.328 181.93L630.211 187.78C632.144 188.254 634.186 187.94 635.887 186.907C637.588 185.874 638.809 184.208 639.282 182.275L639.753 180.345C640.815 182.602 642.158 184.716 643.805 186.661C648.493 192.197 655.055 195.671 662.745 197.553L662.757 197.556C665.781 198.291 670.005 198.437 674.787 198.321C676.055 198.365 677.339 198.087 678.511 197.477L678.539 197.462ZM652.07 130.685C652.772 130.859 653.412 131.039 653.998 131.225C653.283 131.168 652.56 131.083 651.833 130.969L651.912 130.646L652.061 130.683C652.064 130.684 652.067 130.684 652.07 130.685Z"
      fill="white" stroke="white" stroke-width="15" stroke-linejoin="round" />
    <path
      d="M679.367 183.847C679.307 183.974 679.251 184.103 679.198 184.233C678.151 186.6 677.541 189.114 677.472 191.745L677.472 191.748C677.405 194.357 677.826 196.884 678.71 199.294L678.731 199.351C679.64 201.767 680.982 203.972 682.781 205.932L682.809 205.962C684.633 207.928 686.789 209.477 689.204 210.615L689.261 210.642C691.598 211.719 694.09 212.342 696.732 212.457C699.28 212.567 701.768 212.219 704.154 211.432C706.664 210.608 708.927 209.308 710.941 207.578L706.054 201.889L710.941 207.578C713.081 205.739 714.755 203.499 715.95 200.914C717.102 198.437 717.749 195.764 717.775 192.983C717.797 190.472 717.39 187.955 716.464 185.513C716.222 184.876 715.95 184.256 715.649 183.653C717.016 183.07 718.219 182.079 719.06 180.738L737.813 150.817C737.978 150.553 738.127 150.279 738.259 149.996L746.358 132.574C748.103 128.82 746.477 124.362 742.724 122.614L721.231 112.603C719.427 111.762 717.363 111.673 715.493 112.356C713.624 113.038 712.102 114.435 711.263 116.24L703.391 133.172C703.152 133.604 702.954 134.062 702.801 134.542L692.119 168.225C691.6 169.861 691.671 171.557 692.225 173.07C691.884 173.158 691.543 173.256 691.203 173.364C688.623 174.166 686.336 175.489 684.356 177.183L684.356 177.183C682.153 179.067 680.533 181.368 679.367 183.847Z"
      fill="white" stroke="white" stroke-width="15" stroke-linejoin="round" />
    <path
      d="M707.877 196.366C707.762 196.543 707.656 196.724 707.558 196.908C706.281 199.03 705.374 201.357 704.959 203.867L707.771 204.332L704.959 203.867C704.546 206.368 704.577 208.921 705.134 211.485C705.691 214.12 706.768 216.493 708.217 218.613C709.768 220.884 711.719 222.725 713.962 224.183C716.133 225.595 718.534 226.556 721.097 227.033C723.622 227.518 726.16 227.519 728.65 227.058C731.229 226.579 733.621 225.605 735.813 224.226L735.841 224.208C738.23 222.69 740.202 220.691 741.741 218.319C743.248 216.004 744.236 213.464 744.656 210.752L744.658 210.741C745.051 208.184 744.97 205.643 744.416 203.151C744.268 202.483 744.086 201.829 743.872 201.19C745.303 200.802 746.629 199.988 747.645 198.779L770.365 171.747C770.566 171.508 770.751 171.258 770.92 170.997L781.359 154.873C783.608 151.398 782.617 146.758 779.145 144.505L759.247 131.597C757.578 130.514 755.546 130.139 753.6 130.555C751.653 130.971 749.952 132.143 748.87 133.814L738.656 149.59C738.387 149.959 738.149 150.355 737.947 150.777L722.697 182.651C721.961 184.19 721.793 185.869 722.124 187.436C721.78 187.476 721.435 187.524 721.091 187.582C718.435 188.024 715.989 189.002 713.763 190.43L715.422 193.017L713.763 190.43C711.371 191.964 709.411 193.988 707.877 196.366Z"
      fill="white" stroke="white" stroke-width="15" stroke-linejoin="round" />
    <path
      d="M378.896 198.146C380.009 197.509 381.01 196.873 381.899 196.212C382.787 195.564 383.646 194.846 384.449 194.102C385.265 193.342 386.066 192.513 386.852 191.6C387.638 190.687 388.506 189.646 389.442 188.491L400.927 202.494C397.129 208.999 391.89 214.15 385.209 217.946C375.758 223.321 365.862 224.736 355.508 222.207C344.689 219.601 336.264 213.087 330.219 202.665C327.324 197.565 325.538 192.376 324.847 187.084C324.155 181.793 324.478 176.709 325.789 171.849C327.113 166.988 329.385 162.491 332.591 158.373C335.81 154.254 339.855 150.797 344.754 148.002C351.714 144.046 358.973 142.069 366.503 142.071L372.553 158.724C366.864 159.606 362.126 161.119 358.34 163.264C353.023 166.278 349.869 170.114 348.864 174.758C347.859 179.403 348.941 184.505 352.096 190.079C353.674 192.853 355.453 195.116 357.435 196.87C359.417 198.623 361.559 199.854 363.846 200.547C366.134 201.241 368.553 201.398 371.09 201.018C373.626 200.625 376.224 199.681 378.896 198.16L378.896 198.146Z"
      fill="url(#paint12_linear_273_5348)" />
    <path
      d="M386.951 130.508L410.142 123.414L427.893 181.524L453.502 173.688L458.345 189.559L409.545 204.503L386.951 130.522L386.951 130.508Z"
      fill="url(#paint13_linear_273_5348)" />
    <path
      d="M457.4 111.28L511.195 104.44L513.344 121.341L486.566 124.752L488.342 138.704L512.835 135.584L514.613 149.649L490.12 152.77L492.027 167.817L518.805 164.406L520.938 181.194L467.157 188.034L457.415 111.294L457.4 111.28Z"
      fill="url(#paint14_linear_273_5348)" />
    <path
      d="M551.029 103.781L585.124 105.298L604.066 183.574L577.647 182.394L575.349 167.437L555.398 166.557L551.566 181.236L526.244 180.108L551.029 103.781ZM573.334 153.488L567.486 119.347L558.43 152.821L573.348 153.488L573.334 153.488Z"
      fill="url(#paint15_linear_273_5348)" />
    <path
      d="M675.203 200.81C670.232 200.948 666.717 200.767 664.657 200.267C651.468 197.039 644.661 188.993 644.223 176.144L644.207 163.245L639.086 161.993L632.125 190.495L608.243 184.644L626.584 109.507L659.947 117.676C664.277 118.73 668.236 120.226 671.794 122.136C675.352 124.047 678.325 126.276 680.686 128.84C683.061 131.403 684.709 134.245 685.66 137.38C686.611 140.515 686.653 143.862 685.784 147.421C685.139 150.048 684.236 152.328 683.073 154.246C681.911 156.164 680.505 157.805 678.855 159.155C677.206 160.504 675.327 161.605 673.22 162.441C671.112 163.278 668.805 163.921 666.283 164.357L666.117 167.088C666.072 167.722 666.052 168.257 666.06 168.721C666.067 169.171 666.074 169.551 666.079 169.86L666.119 172.293C666.199 173.754 666.403 175.017 666.73 176.095C667.043 177.173 667.564 178.106 668.28 178.91C668.995 179.7 669.948 180.388 671.138 180.973C672.328 181.544 673.839 182.054 675.645 182.502C675.927 182.568 676.392 182.644 677.026 182.732C677.659 182.82 678.504 182.905 679.531 183L675.176 200.824L675.203 200.81ZM663.698 143.131C664.04 141.747 664.02 140.523 663.665 139.474C663.297 138.425 662.663 137.507 661.766 136.749C660.868 135.99 659.747 135.333 658.403 134.793C657.06 134.252 655.591 133.798 653.997 133.403L646.534 131.571L642.864 146.627L647.025 147.641L650.577 148.342C651.986 148.571 653.393 148.717 654.785 148.778C656.177 148.84 657.482 148.706 658.698 148.376C659.901 148.047 660.946 147.481 661.831 146.65C662.717 145.82 663.329 144.656 663.711 143.117L663.698 143.131Z"
      fill="url(#paint16_linear_273_5348)" />
    <path
      d="M686.282 197.04C687.07 195.367 688.086 193.971 689.361 192.881C690.635 191.791 692.041 190.994 693.579 190.519C695.116 190.029 696.715 189.848 698.36 189.947C700.006 190.047 701.586 190.442 703.072 191.135C704.601 191.841 705.924 192.818 707.04 194.052C708.157 195.285 709.008 196.664 709.581 198.173C710.154 199.683 710.419 201.268 710.405 202.914C710.39 204.56 710.009 206.184 709.276 207.758C708.517 209.402 707.486 210.769 706.184 211.888C704.881 213.007 703.476 213.804 701.939 214.307C700.415 214.811 698.832 215.034 697.187 214.963C695.542 214.891 694.004 214.509 692.531 213.83C690.946 213.083 689.58 212.092 688.436 210.859C687.291 209.612 686.454 208.234 685.881 206.71C685.321 205.186 685.056 203.601 685.099 201.94C685.142 200.294 685.537 198.67 686.283 197.054L686.282 197.04ZM710.094 146.822L718.194 129.4L739.687 139.412L731.587 156.833L712.835 186.754L699.398 180.491L710.08 146.808L710.094 146.822Z"
      fill="url(#paint17_linear_273_5348)" />
    <path
      d="M714.308 210.431C715.308 208.882 716.524 207.652 717.942 206.742C719.36 205.832 720.854 205.245 722.451 204.979C724.034 204.714 725.636 204.744 727.258 205.069C728.879 205.394 730.378 206.016 731.756 206.907C733.162 207.827 734.347 208.974 735.283 210.351C736.219 211.729 736.876 213.209 737.225 214.778C737.574 216.348 737.629 217.951 737.375 219.601C737.121 221.237 736.528 222.78 735.583 224.23C734.596 225.752 733.38 226.967 731.948 227.877C730.502 228.787 728.995 229.389 727.412 229.682C725.829 229.976 724.228 229.974 722.621 229.663C721.014 229.366 719.529 228.772 718.18 227.894C716.703 226.934 715.489 225.772 714.539 224.381C713.589 222.991 712.932 221.51 712.597 219.912C712.247 218.315 712.22 216.711 712.489 215.089C712.757 213.467 713.377 211.91 714.336 210.417L714.308 210.431ZM744.857 164.013L755.295 147.889L775.193 160.796L764.754 176.92L742.033 203.952L729.592 195.887L744.842 164.013L744.857 164.013Z"
      fill="url(#paint18_linear_273_5348)" />
  </g>
  <defs>
    <linearGradient id="paint0_linear_273_5348" x1="550" y1="517.5" x2="550" y2="791.5" gradientUnits="userSpaceOnUse">
      <stop stop-color="white" />
      <stop offset="1" stop-color="#9BDCD8" />
    </linearGradient>
    <linearGradient id="paint1_linear_273_5348" x1="550" y1="511.669" x2="550" y2="773.581"
      gradientUnits="userSpaceOnUse">
      <stop stop-color="white" />
      <stop offset="1" stop-color="white" stop-opacity="0" />
    </linearGradient>
    <linearGradient id="paint2_linear_273_5348" x1="537" y1="-145" x2="537" y2="331.921" gradientUnits="userSpaceOnUse">
      <stop stop-color="#FFF380" stop-opacity="0.84" />
      <stop offset="0.45" stop-color="#FFF380" stop-opacity="0.370435" />
      <stop offset="0.805" stop-color="#FFF380" stop-opacity="0" />
    </linearGradient>
    <linearGradient id="paint3_linear_273_5348" x1="334.5" y1="-87" x2="508.5" y2="287.5"
      gradientUnits="userSpaceOnUse">
      <stop stop-color="#FFF380" stop-opacity="0.84" />
      <stop offset="0.45" stop-color="#FFF380" stop-opacity="0.370435" />
      <stop offset="0.805" stop-color="#FFF380" stop-opacity="0" />
    </linearGradient>
    <linearGradient id="paint4_linear_273_5348" x1="211.5" y1="-43.9999" x2="426.5" y2="211.5"
      gradientUnits="userSpaceOnUse">
      <stop stop-color="#FFF380" stop-opacity="0.84" />
      <stop offset="0.45" stop-color="#FFF380" stop-opacity="0.370435" />
      <stop offset="0.805" stop-color="#FFF380" stop-opacity="0" />
    </linearGradient>
    <linearGradient id="paint5_linear_273_5348" x1="2.50002" y1="-5.49996" x2="347" y2="227.5"
      gradientUnits="userSpaceOnUse">
      <stop stop-color="#FFF380" stop-opacity="0.84" />
      <stop offset="0.45" stop-color="#FFF380" stop-opacity="0.370435" />
      <stop offset="0.805" stop-color="#FFF380" stop-opacity="0" />
    </linearGradient>
    <linearGradient id="paint6_linear_273_5348" x1="-40.5" y1="230.5" x2="308.5" y2="296"
      gradientUnits="userSpaceOnUse">
      <stop stop-color="#FFF380" stop-opacity="0.84" />
      <stop offset="0.45" stop-color="#FFF380" stop-opacity="0.370435" />
      <stop offset="0.805" stop-color="#FFF380" stop-opacity="0" />
    </linearGradient>
    <linearGradient id="paint7_linear_273_5348" x1="1107" y1="229" x2="747" y2="308.5" gradientUnits="userSpaceOnUse">
      <stop stop-color="#FFF380" stop-opacity="0.84" />
      <stop offset="0.45" stop-color="#FFF380" stop-opacity="0.370435" />
      <stop offset="0.805" stop-color="#FFF380" stop-opacity="0" />
    </linearGradient>
    <linearGradient id="paint8_linear_273_5348" x1="841" y1="-32.4999" x2="627.5" y2="229"
      gradientUnits="userSpaceOnUse">
      <stop stop-color="#FFF380" stop-opacity="0.84" />
      <stop offset="0.45" stop-color="#FFF380" stop-opacity="0.370435" />
      <stop offset="0.805" stop-color="#FFF380" stop-opacity="0" />
    </linearGradient>
    <linearGradient id="paint9_linear_273_5348" x1="794" y1="-92.9999" x2="526" y2="313" gradientUnits="userSpaceOnUse">
      <stop stop-color="#FFF380" stop-opacity="0.84" />
      <stop offset="0.45" stop-color="#FFF380" stop-opacity="0.370435" />
      <stop offset="0.805" stop-color="#FFF380" stop-opacity="0" />
    </linearGradient>
    <linearGradient id="paint10_linear_273_5348" x1="663" y1="-128" x2="574.5" y2="300" gradientUnits="userSpaceOnUse">
      <stop stop-color="#FFF380" stop-opacity="0.84" />
      <stop offset="0.45" stop-color="#FFF380" stop-opacity="0.370435" />
      <stop offset="0.805" stop-color="#FFF380" stop-opacity="0" />
    </linearGradient>
    <linearGradient id="paint11_linear_273_5348" x1="907.665" y1="71.6099" x2="872.446" y2="220.501"
      gradientUnits="userSpaceOnUse">
      <stop stop-color="#F70579" />
      <stop offset="1" stop-color="#C20000" />
    </linearGradient>
    <linearGradient id="paint12_linear_273_5348" x1="361.88" y1="142.142" x2="363.226" y2="223.463"
      gradientUnits="userSpaceOnUse">
      <stop stop-color="#F70579" />
      <stop offset="1" stop-color="#C20000" />
    </linearGradient>
    <linearGradient id="paint13_linear_273_5348" x1="422.038" y1="123.217" x2="423.38" y2="204.274"
      gradientUnits="userSpaceOnUse">
      <stop stop-color="#F70579" />
      <stop offset="1" stop-color="#C20000" />
    </linearGradient>
    <linearGradient id="paint14_linear_273_5348" x1="488.484" y1="104.816" x2="489.855" y2="187.659"
      gradientUnits="userSpaceOnUse">
      <stop stop-color="#F70579" />
      <stop offset="1" stop-color="#C20000" />
    </linearGradient>
    <linearGradient id="paint15_linear_273_5348" x1="563.86" y1="103.568" x2="565.195" y2="184.218"
      gradientUnits="userSpaceOnUse">
      <stop stop-color="#F70579" />
      <stop offset="1" stop-color="#C20000" />
    </linearGradient>
    <linearGradient id="paint16_linear_273_5348" x1="646.426" y1="109.179" x2="647.95" y2="201.275"
      gradientUnits="userSpaceOnUse">
      <stop stop-color="#F70579" />
      <stop offset="1" stop-color="#C20000" />
    </linearGradient>
    <linearGradient id="paint17_linear_273_5348" x1="711.706" y1="129.508" x2="713.116" y2="214.724"
      gradientUnits="userSpaceOnUse">
      <stop stop-color="#F70579" />
      <stop offset="1" stop-color="#C20000" />
    </linearGradient>
    <linearGradient id="paint18_linear_273_5348" x1="743.072" y1="148.091" x2="744.421" y2="229.581"
      gradientUnits="userSpaceOnUse">
      <stop stop-color="#F70579" />
      <stop offset="1" stop-color="#C20000" />
    </linearGradient>
    <clipPath id="clip0_273_5348">
      <rect width="1096" height="291" fill="white" transform="translate(-4 21)" />
    </clipPath>
  </defs>
</svg>