<svg width="1100" height="680" viewBox="0 0 1100 680" fill="none" xmlns="http://www.w3.org/2000/svg">
  <rect x="7.5" y="7.5" width="1085" height="665" rx="22.5" fill="url(#paint0_linear_274_5558)" stroke="white"
    stroke-width="15" />
  <g opacity="0.4">
    <mask id="mask0_274_5558" style="mask-type:alpha" maskUnits="userSpaceOnUse" x="0" y="0" width="1100" height="638">
      <rect x="7.5" y="7.5" width="1085" height="623" rx="12.5" fill="url(#paint1_linear_274_5558)" stroke="white"
        stroke-width="15" />
    </mask>
    <g mask="url(#mask0_274_5558)">
      <g clip-path="url(#clip0_274_5558)">
        <path
          d="M1136.23 237.824V237.843L1084.74 334.443L1066.28 369.102L1065.9 369.815L1033.25 431.063H1033.26L1014.79 465.702L1014.41 466.434L981.77 527.682L930.28 624.302L911.82 658.941L911.62 659.317L878.79 720.902V720.921L860.33 755.561L859.94 756.274L827.3 817.522L808.84 852.18L808.69 852.443L775.81 914.141L757.35 948.781L756.97 949.513L724.32 1010.76H724.33L672.84 1107.38L621.35 1204L602.89 1238.64L602.5 1239.35L569.86 1300.6V1300.62L518.37 1397.22L524.81 1409.3L576.29 1312.68L576.3 1312.7L627.78 1216.07L627.79 1216.08L679.27 1119.46L730.76 1022.85L782.25 926.226L833.74 829.606L885.22 732.987L885.23 733.006L936.71 636.386H936.72L988.2 539.767L1039.69 443.147L1091.18 346.528L1146.8 242.159L1149.95 236.248L1175.7 187.947L1175.69 187.929L1201.44 139.628L1195 127.544L1136.23 237.824Z"
          fill="white" />
        <path
          d="M1136.23 334.443L1117.77 369.102L1117.57 369.458L1084.74 431.063L1066.28 465.702L1065.9 466.434L1033.25 527.682L1014.79 562.322L1014.65 562.603L981.77 624.302L930.28 720.902V720.921L911.82 755.561L911.62 755.917L878.79 817.522L860.33 852.18L860.18 852.443L827.3 914.141L808.84 948.781L808.46 949.513L775.81 1010.76L757.35 1045.4L756.97 1046.13L724.32 1107.38H724.33L672.84 1204L654.37 1238.64L654.18 1239.01L621.35 1300.6V1300.62L569.86 1397.22L576.29 1409.3L627.78 1312.69L627.79 1312.7L679.27 1216.07V1216.08L730.76 1119.46L782.25 1022.85L833.74 926.226L885.22 829.606H885.23L936.71 732.987L936.72 733.006L988.2 636.386L1039.69 539.767L1091.18 443.147L1146.83 338.722L1149.95 332.867L1175.7 284.548H1175.69L1201.44 236.248L1195 224.163L1136.23 334.443Z"
          fill="white" />
        <path
          d="M1136.23 431.063L1117.77 465.703L1117.57 466.078L1084.74 527.682L1066.28 562.322L1066.13 562.604L1033.25 624.302L1014.79 658.941L1014.41 659.655L981.77 720.903V720.921L930.28 817.522L878.79 914.141L860.33 948.781L859.94 949.513L827.3 1010.76L808.84 1045.4L808.46 1046.13L775.81 1107.38L757.35 1142.02L757.2 1142.3L724.32 1204H724.33L672.84 1300.6V1300.62L621.35 1397.22L627.78 1409.3L679.27 1312.69V1312.7L730.76 1216.07V1216.08L782.25 1119.46L833.74 1022.85L885.22 926.226H885.23L936.71 829.606H936.72L988.2 732.987V733.006L1039.69 636.386L1091.18 539.767L1147.33 434.403L1148.97 431.326L1175.7 381.168H1175.69L1201.44 332.867L1195 320.783L1136.23 431.063Z"
          fill="white" />
        <path
          d="M1136.23 527.682L1084.74 624.302L1066.28 658.941L1065.9 659.655L1033.25 720.902L1033.26 720.921L1014.79 755.561L1014.41 756.274L981.77 817.522L930.28 914.141L911.82 948.781L911.62 949.156L878.79 1010.76L860.33 1045.4L859.94 1046.13L827.3 1107.38L808.84 1142.02L808.69 1142.3L775.81 1204L757.35 1238.64L756.97 1239.35L724.32 1300.6L724.33 1300.62L672.84 1397.22L679.27 1409.3L730.76 1312.69V1312.7L782.25 1216.07V1216.08L833.74 1119.46L885.22 1022.85H885.23L936.71 926.226H936.72L988.2 829.606L1039.69 732.987V733.006L1091.18 636.386L1146.8 531.998L1149.95 526.087L1175.7 477.787H1175.69L1201.44 429.487L1195 417.402L1136.23 527.682Z"
          fill="white" />
        <path
          d="M1136.23 624.302L1117.77 658.941L1117.57 659.317L1084.74 720.902V720.921L1066.28 755.561L1065.9 756.274L1033.25 817.522L1014.79 852.18L1014.65 852.443L981.77 914.141L930.28 1010.76L911.82 1045.4L911.62 1045.78L878.79 1107.38L860.33 1142.02L860.18 1142.3L827.3 1204L808.84 1238.64L808.46 1239.35L775.81 1300.6V1300.62L724.32 1397.22L730.76 1409.3L782.25 1312.69V1312.7L833.74 1216.07V1216.08L885.22 1119.46H885.23L936.71 1022.85H936.72L988.2 926.226L1039.69 829.606L1091.18 732.987V733.006L1146.83 628.561L1149.95 622.707L1175.7 574.406H1175.69L1201.44 526.087L1195 514.022L1136.23 624.302Z"
          fill="white" />
        <path
          d="M1136.23 720.902V720.921L1117.77 755.561L1117.57 755.917L1084.74 817.522L1066.28 852.18L1066.13 852.443L1033.25 914.141L1014.79 948.781L1014.41 949.513L981.77 1010.76L930.28 1107.38L878.79 1204L860.33 1238.64L859.94 1239.35L827.3 1300.6V1300.62L775.81 1397.22L782.25 1409.3L833.74 1312.69V1312.7L885.22 1216.07L885.23 1216.08L936.71 1119.46H936.72L988.2 1022.85L1039.69 926.226L1091.18 829.606L1147.33 724.243L1148.97 721.165L1175.7 671.026H1175.69L1201.44 622.707L1195 610.641L1136.23 720.902Z"
          fill="white" />
        <path
          d="M795.12 1336.84L853.89 1226.56L905.38 1129.95L956.87 1033.33L1008.36 936.715L1059.85 840.096H1059.84L1111.33 743.476L1162.82 646.857L1188.56 598.557L1182.13 586.472L1123.36 696.771L1097.61 745.071H1097.62L1071.87 793.372L1046.13 841.691L1020.38 889.991L994.64 938.292L968.89 986.611L943.15 1034.91L917.4 1083.23L891.66 1131.53L865.92 1179.85L840.17 1228.15L814.43 1276.45V1276.47L788.69 1324.77L762.94 1373.07L769.38 1385.15L795.12 1336.84Z"
          fill="white" />
        <path
          d="M743.63 1336.84L802.4 1226.56L853.89 1129.95L905.38 1033.33L956.87 936.715L1008.36 840.096L1059.85 743.476H1059.84L1111.33 646.857L1162.82 550.256L1188.56 501.937L1182.13 489.871L1123.36 600.152L1097.61 648.452H1097.62L1071.87 696.771L1046.13 745.071L1020.38 793.372L994.64 841.691L968.89 889.991L943.15 938.292L917.4 986.611L891.66 1034.91L865.92 1083.23L840.17 1131.53L814.43 1179.85L788.69 1228.15L762.94 1276.45V1276.47L737.2 1324.77L711.45 1373.07L717.89 1385.15L743.63 1336.84Z"
          fill="white" />
        <path
          d="M692.14 1336.84L750.92 1226.56L802.4 1129.95L853.89 1033.33L905.38 936.715L956.87 840.096L1008.36 743.476L1059.85 646.857H1059.84L1111.33 550.256L1162.82 453.637L1188.56 405.318L1182.13 393.252L1123.36 503.532L1097.61 551.832H1097.62L1071.87 600.152L1046.13 648.452L1020.38 696.771L994.64 745.071L968.89 793.372L943.15 841.691L917.4 889.991L891.66 938.292L865.92 986.611L840.17 1034.91L814.43 1083.23L788.69 1131.53L762.94 1179.85L737.2 1228.15L711.45 1276.45V1276.47L685.71 1324.77L659.96 1373.07L666.4 1385.15L692.14 1336.84Z"
          fill="white" />
        <path
          d="M640.66 1336.84L699.43 1226.56L750.92 1129.95L802.4 1033.33L853.89 936.715L905.38 840.096L956.87 743.476L1008.36 646.857L1059.85 550.256H1059.84L1111.33 453.637L1162.82 357.017L1188.56 308.698L1182.13 296.633L1123.36 406.913L1097.61 455.213H1097.62L1071.87 503.532L1046.13 551.833L1020.38 600.152L994.64 648.452L968.89 696.771L943.15 745.072L917.4 793.372L891.66 841.691L865.92 889.991L840.17 938.292L814.43 986.611L788.69 1034.91L762.94 1083.23L737.2 1131.53L711.45 1179.85L685.71 1228.15L659.96 1276.45V1276.47L634.22 1324.77L608.47 1373.07L614.91 1385.15L640.65 1336.84H640.66Z"
          fill="white" />
        <path
          d="M582.73 68.7539L556.99 117.073L531.24 165.373L505.5 213.674L479.76 261.993L454.01 310.293L428.27 358.594V358.612L402.52 406.913L376.78 455.213L351.03 503.532L325.29 551.833L299.55 600.152L273.8 648.452L248.06 696.771L222.31 745.072L196.57 793.372L170.83 841.691L145.08 889.991L119.34 938.292L93.5901 986.611L67.8501 1034.91L42.1001 1083.23L16.3601 1131.53L-9.37988 1179.85L-35.1299 1228.15L-28.6899 1240.23L30.0801 1129.95L81.5701 1033.33L133.06 936.715L184.54 840.096L236.03 743.477L287.52 646.857L339.01 550.256L390.5 453.637L441.99 357.017L493.47 260.398L544.96 163.778L596.45 67.1777L647.94 -29.4418L641.5 -41.5262L582.73 68.7539Z"
          fill="white" />
        <path
          d="M589.17 1336.84L647.94 1226.56L699.43 1129.95L750.92 1033.33L802.4 936.715L853.89 840.096L905.38 743.477L956.87 646.857L1008.36 550.256L1059.85 453.637H1059.84L1111.33 357.017L1162.82 260.398L1188.56 212.079L1182.13 200.013L1123.36 310.293L1097.61 358.594L1097.62 358.612L1071.87 406.913L1046.13 455.213L1020.38 503.532L994.64 551.833L968.89 600.152L943.15 648.452L917.4 696.771L891.66 745.072L865.92 793.372L840.17 841.691L814.43 889.991L788.69 938.292L762.94 986.611L737.2 1034.91L711.45 1083.23L685.71 1131.53L659.96 1179.85L634.22 1228.15L608.47 1276.45L608.48 1276.47L582.73 1324.77L556.99 1373.07L563.42 1385.15L589.17 1336.84Z"
          fill="white" />
        <path
          d="M531.24 68.7539L505.5 117.073L479.76 165.373L454.01 213.674L428.27 261.993L402.52 310.293L376.78 358.594V358.612L351.03 406.913L325.29 455.213L299.55 503.532L273.8 551.833L248.06 600.152L222.31 648.452L196.57 696.771L170.83 745.072L145.08 793.372L119.34 841.691L93.5901 889.991L67.8501 938.292L42.1001 986.611L16.3601 1034.91L-9.37988 1083.23L-35.1299 1131.53L-28.6899 1143.62L30.0801 1033.33L81.5701 936.715L133.06 840.096L184.54 743.477L236.03 646.857L287.52 550.256L339.01 453.637L390.5 357.017L441.99 260.398L493.47 163.778L544.96 67.1777L596.45 -29.4418L590.02 -41.5262L531.24 68.7539Z"
          fill="white" />
        <path
          d="M524.81 1312.7L576.3 1216.07V1216.08L627.78 1119.46H627.79L679.27 1022.85L730.76 926.226L782.25 829.606L833.74 732.987V733.006L885.22 636.386H885.23L936.71 539.767H936.72L988.2 443.147L1039.69 346.528L1091.18 249.908V249.927L1147.33 144.545L1148.97 141.486L1175.7 91.3278H1175.69L1201.44 43.0087L1195 30.943L1136.23 141.223L1117.77 175.863L1117.57 176.238L1084.74 237.824V237.843L1066.28 272.482L1066.13 272.745L1033.25 334.443L1014.79 369.102L1014.41 369.815L981.77 431.063L930.28 527.682L878.79 624.302L860.33 658.941L859.94 659.654L827.3 720.902V720.921L808.84 755.561L808.46 756.274L775.81 817.522L757.35 852.18L757.2 852.443L724.32 914.141H724.33L672.84 1010.76L654.37 1045.4L654.18 1045.78L621.35 1107.38L602.89 1142.02L602.74 1142.3L569.86 1204L551.4 1238.64L551.01 1239.35L518.37 1300.6V1300.62L466.88 1397.22L473.32 1409.3L524.81 1312.68V1312.7Z"
          fill="white" />
        <path
          d="M537.68 1336.84L596.45 1226.56L647.94 1129.95L699.43 1033.33L750.92 936.715L802.4 840.096L853.89 743.476L905.38 646.857L956.87 550.256L1008.36 453.637L1059.85 357.017H1059.84L1111.33 260.398L1162.82 163.778L1188.56 115.478L1182.13 103.394L1123.36 213.674L1097.61 261.993H1097.62L1071.87 310.293L1046.13 358.594V358.612L1020.38 406.913L994.64 455.213L968.89 503.532L943.15 551.832L917.4 600.152L891.66 648.452L865.92 696.771L840.17 745.071L814.43 793.372L788.69 841.691L762.94 889.991L737.2 938.292L711.45 986.611L685.71 1034.91L659.96 1083.23L634.22 1131.53L608.47 1179.85H608.48L582.73 1228.15L556.99 1276.45V1276.47L531.24 1324.77L505.5 1373.07L511.94 1385.15L537.68 1336.84Z"
          fill="white" />
        <path
          d="M479.76 68.7539L454.01 117.073L428.27 165.373L402.52 213.674L376.78 261.993L351.03 310.293L325.29 358.594V358.612L299.55 406.913L273.8 455.213L248.06 503.532L222.31 551.833L196.57 600.152L170.83 648.452L145.08 696.771L119.34 745.072L93.5901 793.372L67.8501 841.691L42.1001 889.991L16.3601 938.292L-9.37988 986.611L-35.1299 1034.91L-28.6899 1047L30.0801 936.716L81.5701 840.096L133.06 743.477L184.54 646.857L236.03 550.256L287.52 453.637L339.01 357.017L390.5 260.398L441.99 163.778L493.47 67.1777L544.96 -29.4418L538.53 -41.5262L479.76 68.7539Z"
          fill="white" />
        <path
          d="M473.32 1312.7L524.81 1216.07V1216.08L576.3 1119.46L627.78 1022.85H627.79L679.27 926.226L730.76 829.606L782.25 732.987V733.006L833.74 636.386L885.22 539.767H885.23L936.71 443.147H936.72L988.2 346.528L1039.69 249.908V249.927L1091.18 153.289V153.308L1146.83 48.8633L1149.95 43.0087L1175.7 -5.29163L1169.26 -17.3761L1143.51 30.943L1117.77 79.2434L1117.57 79.6187L1084.74 141.223L1066.28 175.863L1065.9 176.576L1033.25 237.824V237.843L1014.79 272.482L1014.65 272.745L981.77 334.443L930.28 431.063L911.82 465.703L911.62 466.078L878.79 527.682L860.33 562.322L860.18 562.604L827.3 624.302L808.84 658.941L808.46 659.655L775.81 720.903V720.921L757.35 755.561L756.97 756.274L724.32 817.522H724.33L672.84 914.141L654.37 948.781L654.18 949.156L621.35 1010.76L602.89 1045.4L602.5 1046.13L569.86 1107.38L551.4 1142.02L551.25 1142.3L518.37 1204L466.88 1300.6V1300.62L415.39 1397.22L421.83 1409.3L473.32 1312.69V1312.7Z"
          fill="white" />
        <path
          d="M486.19 1336.84L544.96 1226.56L596.45 1129.95L647.94 1033.33L699.43 936.715L750.92 840.096L802.4 743.476L853.89 646.857L905.38 550.256L956.87 453.637L1008.36 357.017L1059.85 260.398H1059.84L1111.33 163.778L1162.82 67.1777V67.1589L1188.56 18.8586L1182.13 6.79285L1123.36 117.073L1097.61 165.373H1097.62L1071.87 213.674L1046.13 261.993L1020.38 310.293L994.64 358.594V358.612L968.89 406.913L943.15 455.213L917.4 503.532L891.66 551.832L865.92 600.152L840.17 648.452L814.43 696.771L788.69 745.071L762.94 793.372L737.2 841.691L711.45 889.991L685.71 938.292L659.96 986.611L634.22 1034.91L608.47 1083.23H608.48L582.73 1131.53L556.99 1179.85L531.24 1228.15L505.5 1276.45V1276.47L479.76 1324.77L454.01 1373.07L460.45 1385.15L486.19 1336.84Z"
          fill="white" />
        <path
          d="M428.27 68.7539L402.52 117.073L376.78 165.373L351.03 213.674L325.29 261.993L299.55 310.293L273.8 358.594V358.612L248.06 406.913L222.31 455.213L196.57 503.532L170.83 551.833L145.08 600.152L119.34 648.452L93.5901 696.771L67.8501 745.072L42.1001 793.372L16.3601 841.691L-9.37988 889.991L-35.1299 938.292L-28.6899 950.376L30.0801 840.096L81.5701 743.477L133.06 646.857L184.54 550.256L236.03 453.637L287.52 357.017L339.01 260.398L390.5 163.778L441.99 67.1777L493.47 -29.4418L487.04 -41.5262L428.27 68.7539Z"
          fill="white" />
        <path
          d="M421.83 1312.7L473.32 1216.07V1216.08L524.81 1119.46L576.3 1022.85L627.78 926.226H627.79L679.27 829.606L730.76 732.987V733.006L782.25 636.386L833.74 539.767L885.22 443.147H885.23L936.71 346.528H936.72L988.2 249.908V249.927L1039.69 153.289V153.308L1091.18 56.6882L1149.95 -53.6107L1143.51 -65.6765L1117.77 -17.3761L1097.11 21.3918L1092.03 30.943L1066.28 79.2434L1065.9 79.9564L1033.25 141.223H1033.26L1014.79 175.863L1014.41 176.576L981.77 237.824V237.843L930.28 334.443L911.82 369.102L911.62 369.458L878.79 431.063L860.33 465.703L859.94 466.434L827.3 527.682L808.84 562.322L808.69 562.603L775.81 624.302L757.35 658.941L756.97 659.655L724.32 720.903L724.33 720.921L672.84 817.522L621.35 914.141L602.89 948.781L602.5 949.513L569.86 1010.76L551.4 1045.4L551.01 1046.13L518.37 1107.38L466.88 1204L448.42 1238.64L448.22 1239.01L415.39 1300.6L415.4 1300.62L363.91 1397.22L370.34 1409.3L421.83 1312.69V1312.7Z"
          fill="white" />
        <path
          d="M434.7 1336.84L493.47 1226.56L544.96 1129.95L596.45 1033.33L647.94 936.715L699.43 840.096L750.92 743.477L802.4 646.857L853.89 550.256L905.38 453.637L956.87 357.017L1008.36 260.398L1059.85 163.778H1059.84L1111.33 67.1777L1162.82 -29.4418L1156.39 -41.5262L1097.61 68.7539H1097.62L1071.87 117.073L1046.13 165.373L1020.38 213.674L994.64 261.993L968.89 310.293L943.15 358.594V358.612L917.4 406.913L891.66 455.213L865.92 503.532L840.17 551.833L814.43 600.152L788.69 648.452L762.94 696.771L737.2 745.072L711.45 793.372L685.71 841.691L659.96 889.991L634.22 938.292L608.47 986.611H608.48L582.73 1034.91L556.99 1083.23L531.24 1131.53L505.5 1179.85L479.76 1228.15L454.01 1276.45V1276.47L428.27 1324.77L402.52 1373.07L408.96 1385.15L434.7 1336.84Z"
          fill="white" />
        <path
          d="M376.78 68.7539L351.03 117.073L325.29 165.373L299.55 213.674L273.8 261.993L248.06 310.293L222.31 358.594V358.612L196.57 406.913L170.83 455.213L145.08 503.532L119.34 551.833L93.5901 600.152L67.8501 648.452L42.1001 696.771L16.3601 745.072L-9.37988 793.372L-35.1299 841.691L-28.6899 853.757L30.0801 743.477L81.5701 646.857L133.06 550.256L184.54 453.637L236.03 357.017L287.52 260.398L339.01 163.778L390.5 67.1777L441.99 -29.4418L435.55 -41.5262L376.78 68.7539Z"
          fill="white" />
        <path
          d="M370.34 1312.7L421.83 1216.07V1216.08L473.32 1119.46L524.81 1022.85L576.3 926.226L627.78 829.606H627.79L679.27 732.987V733.006L730.76 636.386L782.25 539.767L833.74 443.147L885.22 346.528H885.23L936.71 249.908L936.72 249.927L988.2 153.289V153.308L1039.69 56.6882L1098.46 -53.6107L1092.03 -65.6765L1066.28 -17.3761L1045.22 22.1611L1040.54 30.943L1014.79 79.2434L1014.41 79.9564L981.77 141.223L930.28 237.824V237.843L878.79 334.443L860.33 369.102L859.94 369.815L827.3 431.063L808.84 465.703L808.46 466.434L775.81 527.682L757.35 562.322L757.2 562.603L724.32 624.302H724.33L672.84 720.903V720.921L654.37 755.561L654.18 755.917L621.35 817.522L602.89 852.18L602.74 852.443L569.86 914.141L551.4 948.781L551.01 949.513L518.37 1010.76L466.88 1107.38L415.39 1204H415.4L396.93 1238.64L396.55 1239.35L363.91 1300.6V1300.62L312.42 1397.22L318.85 1409.3L370.34 1312.69V1312.7Z"
          fill="white" />
        <path
          d="M383.21 1336.84L441.99 1226.56L493.47 1129.95L544.96 1033.33L596.45 936.715L647.94 840.096L699.43 743.477L750.92 646.857L802.4 550.256L853.89 453.637L905.38 357.017L956.87 260.398L1008.36 163.778L1059.85 67.1777H1059.84L1111.33 -29.4418L1104.9 -41.5262L1046.13 68.7539L1020.38 117.073L994.64 165.373L968.89 213.674L943.15 261.993L917.4 310.293L891.66 358.594V358.612L865.92 406.913L840.17 455.213L814.43 503.532L788.69 551.833L762.94 600.152L737.2 648.452L711.45 696.771L685.71 745.072L659.96 793.372L634.22 841.691L608.47 889.991H608.48L582.73 938.292L556.99 986.611L531.24 1034.91L505.5 1083.23L479.76 1131.53L454.01 1179.85L428.27 1228.15L402.52 1276.45V1276.47L376.78 1324.77L351.03 1373.07L357.47 1385.15L383.21 1336.84Z"
          fill="white" />
        <path
          d="M325.29 68.7539L299.55 117.073L273.8 165.373L248.06 213.674L222.31 261.993L196.57 310.293L170.83 358.594V358.612L145.08 406.913L119.34 455.213L93.5901 503.532L67.8501 551.833L42.1001 600.152L16.3601 648.452L-9.37988 696.771L-35.1299 745.071L-28.6899 757.156L30.0801 646.857L81.5701 550.256L133.06 453.637L184.54 357.017L236.03 260.398L287.52 163.778L339.01 67.1777L390.5 -29.4418L384.06 -41.5262L325.29 68.7539Z"
          fill="white" />
        <path
          d="M318.86 1312.7L370.34 1216.07V1216.08L421.83 1119.46L473.32 1022.85L524.81 926.226L576.3 829.606L627.78 732.987L627.79 733.006L679.27 636.386L730.76 539.767L782.25 443.147L833.74 346.528L885.22 249.908L885.23 249.927L936.71 153.289L936.72 153.308L988.2 56.6882L1046.97 -53.6107L1040.54 -65.6765L1014.79 -17.3761L993.73 22.1611L989.05 30.943L930.28 141.223L911.82 175.863L911.62 176.238L878.79 237.824V237.843L860.33 272.482L860.18 272.745L827.3 334.443L808.84 369.102L808.46 369.815L775.81 431.063L757.35 465.703L756.97 466.434L724.32 527.682H724.33L672.84 624.302L654.37 658.941L654.18 659.317L621.35 720.903V720.921L602.89 755.561L602.5 756.274L569.86 817.522L551.4 852.18L551.25 852.443L518.37 914.141L466.88 1010.76L448.42 1045.4L448.22 1045.78L415.39 1107.38H415.4L396.93 1142.02L396.79 1142.3L363.91 1204L345.44 1238.64L345.06 1239.35L312.42 1300.6V1300.62L260.93 1397.22L267.36 1409.3L318.85 1312.69L318.86 1312.7Z"
          fill="white" />
        <path
          d="M331.73 1336.84L390.5 1226.56L441.99 1129.95L493.47 1033.33L544.96 936.715L596.45 840.096L647.94 743.477L699.43 646.857L750.92 550.256L802.4 453.637L853.89 357.017L905.38 260.398L956.87 163.778L1008.36 67.1777L1059.85 -29.4418L1053.41 -41.5262L994.64 68.7539L968.89 117.073L943.15 165.373L917.4 213.674L891.66 261.993L865.92 310.293L840.17 358.594V358.612L814.43 406.913L788.69 455.213L762.94 503.532L737.2 551.833L711.45 600.152L685.71 648.452L659.96 696.771L634.22 745.072L608.47 793.372H608.48L582.73 841.691L556.99 889.991L531.24 938.292L505.5 986.611L479.76 1034.91L454.01 1083.23L428.27 1131.53L402.52 1179.85L376.78 1228.15L351.03 1276.45V1276.47L325.29 1324.77L299.55 1373.07L305.98 1385.15L331.72 1336.84H331.73Z"
          fill="white" />
        <path
          d="M273.8 68.7539L248.06 117.073L222.31 165.373L196.57 213.674L170.83 261.993L145.08 310.293L119.34 358.594V358.612L93.5901 406.913L67.8501 455.213L42.1001 503.532L16.3601 551.833L-9.37988 600.152L-35.1299 648.452L-28.6899 660.536L30.0801 550.256L81.5701 453.637L133.06 357.017L184.54 260.398L236.03 163.778L287.52 67.1777L339.01 -29.4418L332.58 -41.5262L273.8 68.7539Z"
          fill="white" />
        <path
          d="M267.37 1312.7L318.85 1216.07L318.86 1216.08L370.34 1119.46L421.83 1022.85L473.32 926.226L524.81 829.606L576.3 732.987V733.006L627.78 636.386H627.79L679.27 539.767L730.76 443.147L782.25 346.528L833.74 249.908V249.927L885.22 153.289L885.23 153.308L936.71 56.6882H936.72L995.48 -53.6107L989.05 -65.6765L963.3 -17.3761L942.76 21.1854L937.56 30.943L911.82 79.2434L911.62 79.6187L878.79 141.223L860.33 175.863L859.94 176.576L827.3 237.824V237.843L808.84 272.482L808.69 272.745L775.81 334.443L757.35 369.102L756.97 369.815L724.32 431.063H724.33L672.84 527.682L621.35 624.302L602.89 658.941L602.5 659.655L569.86 720.903V720.921L551.4 755.561L551.01 756.274L518.37 817.522L466.88 914.141L448.42 948.781L448.22 949.156L415.39 1010.76H415.4L396.93 1045.4L396.55 1046.13L363.91 1107.38L345.44 1142.02L345.3 1142.3L312.42 1204L293.96 1238.64L293.57 1239.35L260.93 1300.6V1300.62L209.44 1397.22L215.88 1409.3L267.37 1312.69V1312.7Z"
          fill="white" />
        <path
          d="M280.24 1336.84L339.01 1226.56L390.5 1129.95L441.99 1033.33L493.47 936.715L544.96 840.096L596.45 743.477L647.94 646.857L699.43 550.256L750.92 453.637L802.4 357.017L853.89 260.398L905.38 163.778L956.87 67.1777L1008.36 -29.4418L1001.92 -41.5262L943.15 68.7539L917.4 117.073L891.66 165.373L865.92 213.674L840.17 261.993L814.43 310.293L788.69 358.594V358.612L762.94 406.913L737.2 455.213L711.45 503.532L685.71 551.833L659.96 600.152L634.22 648.452L608.47 696.771H608.48L582.73 745.072L556.99 793.372L531.24 841.691L505.5 889.991L479.76 938.292L454.01 986.611L428.27 1034.91L402.52 1083.23L376.78 1131.53L351.03 1179.85L325.29 1228.15L299.55 1276.45V1276.47L273.8 1324.77L248.06 1373.07L254.49 1385.15L280.24 1336.84Z"
          fill="white" />
        <path
          d="M222.31 68.7539L196.57 117.073L170.83 165.373L145.08 213.674L119.34 261.993L93.5901 310.293L67.8501 358.594V358.612L42.1001 406.913L16.3601 455.213L-9.37988 503.532L-35.1299 551.833L-28.6899 563.917L30.0801 453.637L81.5701 357.017L133.06 260.398L184.54 163.778L236.03 67.1777L287.52 -29.4418L281.09 -41.5262L222.31 68.7539Z"
          fill="white" />
        <path
          d="M215.88 1312.7L267.37 1216.07V1216.08L318.85 1119.46H318.86L370.34 1022.85L421.83 926.226L473.32 829.606L524.81 732.987V733.006L576.3 636.386L627.78 539.767H627.79L679.27 443.147L730.76 346.528L782.25 249.908V249.927L833.74 153.289V153.308L885.22 56.6882H885.23L944 -53.6107L937.56 -65.6765L911.82 -17.3761L891.16 21.3918L886.07 30.943L860.33 79.2434L859.94 79.9564L827.3 141.223L808.84 175.863L808.46 176.576L775.81 237.824V237.843L757.35 272.482L757.2 272.745L724.32 334.443H724.33L672.84 431.063L654.37 465.703L654.18 466.078L621.35 527.682L602.89 562.322L602.74 562.603L569.86 624.302L551.4 658.941L551.01 659.655L518.37 720.903V720.921L466.88 817.522L415.39 914.141H415.4L396.93 948.781L396.55 949.513L363.91 1010.76L345.44 1045.4L345.06 1046.13L312.42 1107.38L293.96 1142.02L293.81 1142.3L260.93 1204L209.44 1300.6V1300.62L157.95 1397.22L164.39 1409.3L215.88 1312.69V1312.7Z"
          fill="white" />
        <path
          d="M228.75 1336.84L287.52 1226.56L339.01 1129.95L390.5 1033.33L441.99 936.715L493.47 840.096L544.96 743.477L596.45 646.857L647.94 550.256L699.43 453.637L750.92 357.017L802.4 260.398L853.89 163.778L905.38 67.1777L956.87 -29.4418L950.43 -41.5262L891.66 68.7539L865.92 117.073L840.17 165.373L814.43 213.674L788.69 261.993L762.94 310.293L737.2 358.594V358.612L711.45 406.913L685.71 455.213L659.96 503.532L634.22 551.833L608.47 600.152H608.48L582.73 648.452L556.99 696.771L531.24 745.072L505.5 793.372L479.76 841.691L454.01 889.991L428.27 938.292L402.52 986.611L376.78 1034.91L351.03 1083.23L325.29 1131.53L299.55 1179.85L273.8 1228.15L248.06 1276.45V1276.47L222.31 1324.77L196.57 1373.07L203.01 1385.15L228.75 1336.84Z"
          fill="white" />
        <path
          d="M170.83 68.7539L145.08 117.073L119.34 165.373L93.5901 213.674L67.8501 261.993L42.1001 310.293L16.3601 358.594V358.612L-9.37988 406.913L-35.1299 455.213L-28.6899 467.298L30.0801 357.017L81.5701 260.398L133.06 163.778L184.54 67.1777L236.03 -29.4418L229.6 -41.5262L170.83 68.7539Z"
          fill="white" />
        <path
          d="M164.39 1312.7L215.88 1216.07V1216.08L267.37 1119.46L318.85 1022.85H318.86L370.34 926.226L421.83 829.606L473.32 732.987V733.006L524.81 636.386L576.3 539.767L627.78 443.147H627.79L679.27 346.528L730.76 249.908V249.927L782.25 153.289V153.308L833.74 56.6882L892.51 -53.6107L886.07 -65.6765L860.33 -17.3761L839.26 22.1611L834.58 30.943L808.84 79.2434L808.46 79.9564L775.81 141.223L757.35 175.863L756.97 176.576L724.32 237.824L724.33 237.843L672.84 334.443L654.37 369.102L654.18 369.458L621.35 431.063L602.89 465.703L602.5 466.434L569.86 527.682L551.4 562.322L551.25 562.603L518.37 624.302L466.88 720.903V720.921L448.42 755.561L448.22 755.917L415.39 817.522H415.4L396.93 852.18L396.79 852.443L363.91 914.141L345.44 948.781L345.06 949.513L312.42 1010.76L293.96 1045.4L293.57 1046.13L260.93 1107.38L209.44 1204L190.98 1238.64L190.78 1239.01L157.95 1300.6V1300.62L106.46 1397.22L112.9 1409.3L164.39 1312.69V1312.7Z"
          fill="white" />
        <path
          d="M177.26 1336.84L236.03 1226.56L287.52 1129.95L339.01 1033.33L390.5 936.715L441.99 840.096L493.47 743.477L544.96 646.857L596.45 550.256L647.94 453.637L699.43 357.017L750.92 260.398L802.4 163.778L853.89 67.1777L905.38 -29.4418L898.95 -41.5262L840.17 68.7539L814.43 117.073L788.69 165.373L762.94 213.674L737.2 261.993L711.45 310.293L685.71 358.594V358.612L659.96 406.913L634.22 455.213L608.47 503.532H608.48L582.73 551.833L556.99 600.152L531.24 648.452L505.5 696.771L479.76 745.072L454.01 793.372L428.27 841.691L402.52 889.991L376.78 938.292L351.03 986.611L325.29 1034.91L299.55 1083.23L273.8 1131.53L248.06 1179.85L222.31 1228.15L196.57 1276.45V1276.47L170.83 1324.77L145.08 1373.07L151.52 1385.15L177.26 1336.84Z"
          fill="white" />
        <path
          d="M119.34 68.7539L93.5901 117.073L67.8501 165.373L42.1001 213.674L16.3601 261.993L-9.37988 310.293L-35.1299 358.594L-28.6899 370.678L30.0801 260.398L81.5701 163.778L133.06 67.1777L184.54 -29.4418L178.11 -41.5262L119.34 68.7539Z"
          fill="white" />
        <path
          d="M112.9 1312.7L164.39 1216.07V1216.08L215.88 1119.46L267.37 1022.85L318.85 926.226H318.86L370.34 829.606L421.83 732.987V733.006L473.32 636.386L524.81 539.767L576.3 443.147L627.78 346.528H627.79L679.27 249.908V249.927L730.76 153.289V153.308L782.25 56.6882L841.02 -53.6107L834.58 -65.6765L808.84 -17.3761L787.78 22.1611L783.1 30.943L757.35 79.2434L756.97 79.9564L724.32 141.223H724.33L672.84 237.824V237.843L621.35 334.443L602.89 369.102L602.5 369.815L569.86 431.063L551.4 465.703L551.01 466.434L518.37 527.682L466.88 624.302L448.42 658.941L448.22 659.317L415.39 720.903L415.4 720.921L396.93 755.561L396.55 756.274L363.91 817.522L345.44 852.18L345.3 852.443L312.42 914.141L293.96 948.781L293.57 949.513L260.93 1010.76L209.44 1107.38L157.95 1204L139.49 1238.64L139.11 1239.35L106.46 1300.6L106.47 1300.62L54.98 1397.22L61.41 1409.3L112.9 1312.69V1312.7Z"
          fill="white" />
        <path
          d="M125.77 1336.84L184.54 1226.56L236.03 1129.95L287.52 1033.33L339.01 936.715L390.5 840.096L441.99 743.477L493.47 646.857L544.96 550.256L596.45 453.637L647.94 357.017L699.43 260.398L750.92 163.778L802.4 67.1777L853.89 -29.4418L847.46 -41.5262L788.69 68.7539L762.94 117.073L737.2 165.373L711.45 213.674L685.71 261.993L659.96 310.293L634.22 358.594V358.612L608.47 406.913H608.48L582.73 455.213L556.99 503.532L531.24 551.833L505.5 600.152L479.76 648.452L454.01 696.771L428.27 745.072L402.52 793.372L376.78 841.691L351.03 889.991L325.29 938.292L299.55 986.611L273.8 1034.91L248.06 1083.23L222.31 1131.53L196.57 1179.85L170.83 1228.15L145.08 1276.45V1276.47L119.34 1324.77L93.5898 1373.07L100.03 1385.15L125.77 1336.84Z"
          fill="white" />
        <path
          d="M67.8501 68.7539L42.1001 117.073L16.3601 165.373L-9.37988 213.674L-35.1299 261.993L-28.6899 274.059L30.0801 163.778L81.5701 67.1777L133.06 -29.4418L126.62 -41.5262L67.8501 68.7539Z"
          fill="white" />
        <path
          d="M61.4102 1312.7L112.9 1216.07V1216.08L164.39 1119.46L215.88 1022.85L267.37 926.226L318.85 829.606H318.86L370.34 732.987V733.006L421.83 636.386L473.32 539.767L524.81 443.147L576.3 346.528L627.78 249.908L627.79 249.927L679.27 153.289V153.308L730.76 56.6882L789.53 -53.6107L783.1 -65.6765L757.35 -17.3761L736.29 22.1611L731.61 30.943L672.84 141.223L654.37 175.863L654.18 176.238L621.35 237.824V237.843L602.89 272.482L602.74 272.745L569.86 334.443L551.4 369.102L551.01 369.815L518.37 431.063L466.88 527.682L415.39 624.302H415.4L396.93 658.941L396.55 659.655L363.91 720.903V720.921L345.44 755.561L345.06 756.274L312.42 817.522L293.96 852.18L293.81 852.443L260.93 914.141L209.44 1010.76L190.98 1045.4L190.78 1045.78L157.95 1107.38L139.49 1142.02L139.34 1142.3L106.46 1204H106.47L88.0002 1238.64L87.6202 1239.35L54.9802 1300.6V1300.62L3.49023 1397.22L9.92023 1409.3L61.4102 1312.69V1312.7Z"
          fill="white" />
        <path
          d="M74.2801 1336.84L133.06 1226.56L184.54 1129.95L236.03 1033.33L287.52 936.715L339.01 840.096L390.5 743.477L441.99 646.857L493.47 550.256L544.96 453.637L596.45 357.017L647.94 260.398L699.43 163.778L750.92 67.1777L802.4 -29.4418L795.97 -41.5262L737.2 68.7539L711.45 117.073L685.71 165.373L659.96 213.674L634.22 261.993L608.47 310.293H608.48L582.73 358.594V358.612L556.99 406.913L531.24 455.213L505.5 503.532L479.76 551.833L454.01 600.152L428.27 648.452L402.52 696.771L376.78 745.072L351.03 793.372L325.29 841.691L299.55 889.991L273.8 938.292L248.06 986.611L222.31 1034.91L196.57 1083.23L170.83 1131.53L145.08 1179.85L119.34 1228.15L93.5901 1276.45V1276.47L67.8501 1324.77L42.1001 1373.07L48.5401 1385.15L74.2801 1336.84Z"
          fill="white" />
        <path
          d="M16.3601 68.7539L-9.37988 117.073L-35.1299 165.373L-28.6899 177.458L30.0801 67.1777L81.5701 -29.4418L75.1301 -41.5262L16.3601 68.7539Z"
          fill="white" />
        <path
          d="M9.93 1216.08L61.41 1119.46L112.9 1022.85L164.39 926.226L215.88 829.606L267.37 732.987V733.006L318.85 636.386H318.86L370.34 539.767L421.83 443.147L473.32 346.528L524.81 249.908V249.927L576.3 153.289V153.308L627.78 56.6882H627.79L686.55 -53.6107L680.12 -65.6765L654.38 -17.3761H654.37L633.72 21.3918L628.63 30.943L602.89 79.2434L602.5 79.9564L569.86 141.223L551.4 175.863L551.01 176.576L518.37 237.824V237.843L466.88 334.443L448.42 369.102L448.22 369.458L415.39 431.063H415.4L396.93 465.702L396.55 466.434L363.91 527.682L345.44 562.322L345.3 562.603L312.42 624.302L293.96 658.941L293.57 659.654L260.93 720.902V720.921L209.44 817.522L157.95 914.141L139.49 948.781L139.11 949.513L106.46 1010.76H106.47L88 1045.4L87.62 1046.13L54.98 1107.38L3.49 1204L2.49 1205.88L-48 1300.62L-41.56 1312.7L9.92 1216.07L9.93 1216.08Z"
          fill="white" />
        <path
          d="M9.93 1312.7L61.41 1216.07V1216.08L112.9 1119.46L164.39 1022.85L215.88 926.226L267.37 829.606L318.85 732.987L318.86 733.006L370.34 636.386L421.83 539.767L473.32 443.147L524.81 346.528L576.3 249.908V249.927L627.78 153.289L627.79 153.308L679.27 56.6882L738.04 -53.6107L731.61 -65.6765L705.86 -17.3761L685.21 21.3918L680.12 30.943L654.37 79.2434L654.18 79.6187L621.35 141.223L602.89 175.863L602.5 176.576L569.86 237.824V237.843L551.4 272.482L551.25 272.745L518.37 334.443L466.88 431.063L448.42 465.703L448.22 466.078L415.39 527.682H415.4L396.93 562.322L396.79 562.603L363.91 624.302L345.44 658.941L345.06 659.655L312.42 720.903V720.921L293.96 755.561L293.57 756.274L260.93 817.522L209.44 914.141L190.98 948.781L190.78 949.156L157.95 1010.76L139.49 1045.4L139.11 1046.13L106.46 1107.38H106.47L88 1142.02L87.86 1142.3L54.98 1204L3.49 1300.6V1300.62L-22.25 1348.92L-15.82 1360.99L9.92 1312.69L9.93 1312.7Z"
          fill="white" />
        <path
          d="M22.8001 1336.84L81.5701 1226.56L133.06 1129.95L184.54 1033.33L236.03 936.715L287.52 840.096L339.01 743.477L390.5 646.857L441.99 550.256L493.47 453.637L544.96 357.017L596.45 260.398L647.94 163.778L699.43 67.1777L750.92 -29.4418L744.48 -41.5262L685.71 68.7539L659.96 117.073L634.22 165.373L608.47 213.674H608.48L582.73 261.993L556.99 310.293L531.24 358.594V358.612L505.5 406.913L479.76 455.213L454.01 503.532L428.27 551.833L402.52 600.152L376.78 648.452L351.03 696.771L325.29 745.072L299.55 793.372L273.8 841.691L248.06 889.991L222.31 938.292L196.57 986.611L170.83 1034.91L145.08 1083.23L119.34 1131.53L93.5901 1179.85L67.8501 1228.15L42.1001 1276.45V1276.47L16.3601 1324.77L-9.37988 1373.07L-2.94988 1385.15L22.8001 1336.84Z"
          fill="white" />
        <path d="M10.7806 -65.6798L-47.9941 44.6093L-41.5595 56.6837L17.2152 -53.6053L10.7806 -65.6798Z" fill="white" />
        <path d="M23.6343 -41.5351L-35.1333 68.7407L-28.6986 80.8151L30.069 -29.4606L23.6343 -41.5351Z" fill="white" />
        <path
          d="M9.92 56.6882H9.93L68.7 -53.6107L62.26 -65.6765L36.52 -17.3761L15.97 21.1854L3.49 44.6037L2.49 46.4802L-48 141.223L-41.56 153.308L9.92 56.6882Z"
          fill="white" />
        <path
          d="M9.92 153.289L9.93 153.308L61.41 56.6882L120.18 -53.6107L113.75 -65.6765L88 -17.3761L66.94 22.1611L62.26 30.943L3.49 141.223L2.42 143.231L-48 237.843L-41.56 249.927L9.92 153.289Z"
          fill="white" />
        <path
          d="M9.92 249.908L9.93 249.927L61.41 153.289V153.308L112.9 56.6882L171.67 -53.6107L165.24 -65.6765L139.49 -17.3761L118.43 22.1611L113.75 30.943L88 79.2434L87.62 79.9564L54.98 141.223L3.49 237.824V237.843L2.49 239.719L-48 334.462L-41.56 346.528L9.92 249.908Z"
          fill="white" />
        <path
          d="M9.92 346.528H9.93L61.41 249.908V249.927L112.9 153.289V153.308L164.39 56.6882L223.16 -53.6107L216.73 -65.6765L190.98 -17.3761L170.32 21.3918L165.24 30.943L139.49 79.2434L139.11 79.9564L106.46 141.223H106.47L88 175.863L87.62 176.576L54.98 237.824V237.843L3.49 334.443V334.462L2.49 336.32L-48 431.063L-41.56 443.147L9.92 346.528Z"
          fill="white" />
        <path
          d="M9.92 443.147H9.93L61.41 346.528L112.9 249.908V249.927L164.39 153.289V153.308L215.88 56.6882L274.65 -53.6107L268.21 -65.6765L242.47 -17.3761L221.81 21.3918L216.73 30.943L190.98 79.2434L190.78 79.6187L157.95 141.223L139.49 175.863L139.11 176.576L106.46 237.824L106.47 237.843L88 272.482L87.86 272.745L54.98 334.443L3.49 431.063L2.42 433.089L-48 527.682L-41.56 539.767L9.92 443.147Z"
          fill="white" />
        <path
          d="M9.92 539.767H9.93L61.41 443.147L112.9 346.528L164.39 249.908V249.927L215.88 153.289V153.308L267.37 56.6882L326.14 -53.6107L319.7 -65.6765L293.96 -17.3761L272.89 22.1611L268.21 30.943L209.44 141.223L190.98 175.863L190.78 176.238L157.95 237.824V237.843L139.49 272.482L139.34 272.745L106.46 334.443H106.47L88 369.102L87.62 369.815L54.98 431.063L3.49 527.682L2.49 529.559L-48 624.302L-41.56 636.386L9.92 539.767Z"
          fill="white" />
        <path
          d="M9.92 636.386H9.93L61.41 539.767L112.9 443.147L164.39 346.528L215.88 249.908V249.927L267.37 153.289V153.308L318.85 56.6882H318.86L377.63 -53.6107L371.19 -65.6765L345.45 -17.3761H345.44L324.38 22.1611L319.7 30.943L293.96 79.2434L293.57 79.9564L260.93 141.223L209.44 237.824V237.843L157.95 334.443L139.49 369.102L139.11 369.815L106.46 431.063H106.47L88 465.702L87.62 466.434L54.98 527.682L3.49 624.302L2.49 626.178L-48 720.921L-41.56 733.006L9.92 636.386Z"
          fill="white" />
        <path
          d="M9.92 732.987L9.93 733.006L61.41 636.386L112.9 539.767L164.39 443.147L215.88 346.528L267.37 249.908V249.927L318.85 153.289L318.86 153.308L370.34 56.6882L429.11 -53.6107L422.68 -65.6765L396.93 -17.3761L375.87 22.1611L371.19 30.943L345.44 79.2434L345.06 79.9564L312.42 141.223L293.96 175.863L293.57 176.576L260.93 237.824V237.843L209.44 334.443L190.98 369.102L190.78 369.458L157.95 431.063L139.49 465.703L139.11 466.434L106.46 527.682H106.47L88 562.322L87.86 562.603L54.98 624.302L3.49 720.903V720.921L2.42 722.929L-48 817.541L-41.56 829.606L9.92 732.987Z"
          fill="white" />
        <path
          d="M9.92 829.606H9.93L61.41 732.987V733.006L112.9 636.386L164.39 539.767L215.88 443.147L267.37 346.528L318.85 249.908L318.86 249.927L370.34 153.289V153.308L421.83 56.6882L480.6 -53.6107L474.17 -65.6765L448.42 -17.3761L427.76 21.3918L422.68 30.943L396.93 79.2434L396.55 79.9564L363.91 141.223L345.44 175.863L345.06 176.576L312.42 237.824V237.843L293.96 272.482L293.81 272.745L260.93 334.443L209.44 431.063L190.98 465.703L190.78 466.078L157.95 527.682L139.49 562.322L139.34 562.603L106.46 624.302H106.47L88 658.941L87.62 659.655L54.98 720.903V720.921L3.49 817.522V817.541L2.49 819.417L-48 914.141L-41.56 926.226L9.92 829.606Z"
          fill="white" />
        <path
          d="M9.92 926.226H9.93L61.41 829.607L112.9 732.987V733.006L164.39 636.386L215.88 539.767L267.37 443.147L318.85 346.528H318.86L370.34 249.908V249.927L421.83 153.289V153.308L473.32 56.6882L532.09 -53.6107L525.66 -65.6765L499.91 -17.3761L479.36 21.1854L474.17 30.943L448.42 79.2434L448.22 79.6187L415.39 141.223H415.4L396.93 175.863L396.55 176.576L363.91 237.824V237.843L345.44 272.482L345.3 272.745L312.42 334.443L293.96 369.102L293.57 369.815L260.93 431.063L209.44 527.682L157.95 624.302L139.49 658.942L139.11 659.655L106.46 720.903L106.47 720.921L88 755.561L87.62 756.274L54.98 817.522L3.49 914.141V914.16L2.49 916.018L-48 1010.76L-41.56 1022.85L9.92 926.226Z"
          fill="white" />
        <path
          d="M9.92 1022.85H9.93L61.41 926.226L112.9 829.606L164.39 732.987V733.006L215.88 636.386L267.37 539.767L318.85 443.147H318.86L370.34 346.528L421.83 249.908V249.927L473.32 153.289V153.308L524.81 56.6882L583.58 -53.6107L577.14 -65.6765L551.4 -17.3761L530.33 22.1611L525.66 30.943L466.88 141.223L448.42 175.863L448.22 176.238L415.39 237.824L415.4 237.843L396.93 272.482L396.79 272.745L363.91 334.443L345.44 369.102L345.06 369.815L312.42 431.063L293.96 465.703L293.57 466.434L260.93 527.682L209.44 624.302L190.98 658.941L190.78 659.317L157.95 720.903V720.921L139.49 755.561L139.11 756.274L106.46 817.522H106.47L88 852.18L87.86 852.443L54.98 914.141L3.49 1010.76L2.42 1012.77L-48 1107.38L-41.56 1119.46L9.92 1022.85Z"
          fill="white" />
        <path
          d="M9.92 1119.46H9.93L61.41 1022.85L112.9 926.226L164.39 829.606L215.88 732.987V733.006L267.37 636.386L318.85 539.767H318.86L370.34 443.147L421.83 346.528L473.32 249.908V249.927L524.81 153.289V153.308L576.3 56.6882L635.07 -53.6107L628.63 -65.6765L602.89 -17.3761L581.82 22.1611L577.14 30.943L551.4 79.2434L551.01 79.9564L518.37 141.223L466.88 237.824V237.843L415.39 334.443H415.4L396.93 369.102L396.55 369.815L363.91 431.063L345.44 465.703L345.06 466.434L312.42 527.682L293.96 562.322L293.81 562.603L260.93 624.302L209.44 720.903V720.921L190.98 755.561L190.78 755.917L157.95 817.522L139.49 852.18L139.34 852.443L106.46 914.141H106.47L88 948.781L87.62 949.513L54.98 1010.76L3.49 1107.38L2.49 1109.26L-48 1204L-41.56 1216.08L9.92 1119.46Z"
          fill="white" />
        <path
          d="M30.0801 1226.56L81.5701 1129.95L133.06 1033.33L184.54 936.715L236.03 840.096L287.52 743.476L339.01 646.857L390.5 550.256L441.99 453.637L493.47 357.017L544.96 260.398L596.45 163.778L647.94 67.1777L699.43 -29.4418L692.99 -41.5262L634.22 68.7539L608.47 117.073H608.48L582.73 165.373L556.99 213.674L531.24 261.993L505.5 310.293L479.76 358.594V358.612L454.01 406.913L428.27 455.213L402.52 503.532L376.78 551.833L351.03 600.152L325.29 648.452L299.55 696.771L273.8 745.071L248.06 793.372L222.31 841.691L196.57 889.991L170.83 938.292L145.08 986.611L119.34 1034.91L93.5901 1083.23L67.8501 1131.53L42.1001 1179.85L16.3601 1228.15L-9.37988 1276.45V1276.47L-35.1299 1324.77L-28.6899 1336.84L30.0801 1226.56Z"
          fill="white" />
      </g>
    </g>
  </g>
  <mask id="path-64-outside-1_274_5558" maskUnits="userSpaceOnUse" x="278" y="119" width="564" height="79" fill="black">
    <rect fill="white" x="278" y="119" width="564" height="79" />
    <path
      d="M316.8 187.28C311.413 187.28 306.56 186 302.24 183.44C297.92 180.827 294.533 177.28 292.08 172.8C289.627 168.32 288.4 163.387 288.4 158C288.4 152.827 289.627 148.08 292.08 143.76C294.587 139.44 298.053 136.027 302.48 133.52C306.907 131.013 311.947 129.76 317.6 129.76C320.693 129.76 323.68 130.107 326.56 130.8C329.493 131.493 332.133 132.48 334.48 133.76L329.2 146.16C325.573 144.667 322.187 143.92 319.04 143.92C314.933 143.92 311.76 145.253 309.52 147.92C307.28 150.533 306.16 153.973 306.16 158.24C306.16 161.013 306.667 163.52 307.68 165.76C308.693 167.947 310.107 169.68 311.92 170.96C313.787 172.24 315.893 172.88 318.24 172.88C319.52 172.88 320.587 172.773 321.44 172.56V159.68L335.28 158.08V183.12C329.253 185.893 323.093 187.28 316.8 187.28ZM354.334 130.96H378.654L394.574 186H375.774L373.694 175.44H359.454L357.134 186H339.134L354.334 130.96ZM371.774 165.6L366.574 141.52L361.134 165.6H371.774ZM399.872 130.96H416.512L430.272 157.68L443.712 130.96H460.352V186H443.712V156.64L433.552 175.84H426.752L416.512 156.64V186H399.872V130.96ZM470.809 130.96H509.449V143.12H490.249V153.12H507.769V163.2H490.249V173.84H509.449V186H470.809V130.96ZM560.029 187.28C554.269 187.28 549.149 186.053 544.669 183.6C540.243 181.147 536.776 177.76 534.269 173.44C531.816 169.067 530.589 164.107 530.589 158.56C530.589 152.96 531.816 147.973 534.269 143.6C536.776 139.227 540.243 135.84 544.669 133.44C549.149 130.987 554.269 129.76 560.029 129.76C565.789 129.76 570.883 130.987 575.309 133.44C579.789 135.84 583.256 139.227 585.709 143.6C588.216 147.92 589.469 152.907 589.469 158.56C589.469 164.107 588.216 169.067 585.709 173.44C583.256 177.76 579.789 181.147 575.309 183.6C570.829 186.053 565.736 187.28 560.029 187.28ZM560.029 172.72C563.389 172.72 566.136 171.413 568.269 168.8C570.456 166.187 571.549 162.747 571.549 158.48C571.549 155.653 571.043 153.147 570.029 150.96C569.069 148.72 567.709 146.987 565.949 145.76C564.189 144.48 562.189 143.84 559.949 143.84C557.763 143.84 555.789 144.48 554.029 145.76C552.269 146.987 550.909 148.72 549.949 150.96C548.989 153.147 548.509 155.653 548.509 158.48C548.509 162.747 549.576 166.187 551.709 168.8C553.843 171.413 556.616 172.72 560.029 172.72ZM591.16 130.96H609.24L617.72 165.28L626.2 130.96H645.08L627.88 186H607.48L591.16 130.96ZM649.95 130.96H688.59V143.12H669.39V153.12H686.91V163.2H669.39V173.84H688.59V186H649.95V130.96ZM739.208 187.28C729.181 187.28 723.048 182.64 720.808 173.36L718.808 165.12H715.048V186H697.528V130.96H721.768C726.355 130.96 730.381 131.653 733.848 133.04C737.368 134.373 740.088 136.267 742.008 138.72C743.928 141.173 744.888 144 744.888 147.2C744.888 150.773 744.008 153.787 742.248 156.24C740.541 158.64 737.875 160.613 734.248 162.16C734.621 164.187 735.048 166.027 735.528 167.68C736.168 169.707 737.048 171.12 738.168 171.92C739.288 172.72 740.915 173.12 743.048 173.12C743.795 173.12 744.968 173.013 746.568 172.8V185.84C744.061 186.8 741.608 187.28 739.208 187.28ZM718.088 153.92C722.035 153.92 724.808 153.493 726.408 152.64C728.061 151.733 728.888 150.213 728.888 148.08C728.888 146.267 728.221 144.96 726.888 144.16C725.555 143.307 723.448 142.88 720.568 142.88H715.048V153.92H718.088ZM774.949 186.48C772.123 186.48 769.909 185.707 768.309 184.16C766.709 182.613 765.909 180.667 765.909 178.32C765.909 175.92 766.736 173.973 768.389 172.48C770.043 170.987 772.229 170.24 774.949 170.24C777.616 170.24 779.776 171.04 781.429 172.64C783.083 174.187 783.909 176.08 783.909 178.32C783.909 180.827 783.136 182.827 781.589 184.32C780.043 185.76 777.829 186.48 774.949 186.48ZM798.543 186.48C795.716 186.48 793.503 185.707 791.903 184.16C790.303 182.613 789.503 180.667 789.503 178.32C789.503 175.92 790.33 173.973 791.983 172.48C793.636 170.987 795.823 170.24 798.543 170.24C801.21 170.24 803.37 171.04 805.023 172.64C806.676 174.187 807.503 176.08 807.503 178.32C807.503 180.827 806.73 182.827 805.183 184.32C803.636 185.76 801.423 186.48 798.543 186.48ZM822.137 186.48C819.31 186.48 817.097 185.707 815.497 184.16C813.897 182.613 813.097 180.667 813.097 178.32C813.097 175.92 813.924 173.973 815.577 172.48C817.23 170.987 819.417 170.24 822.137 170.24C824.804 170.24 826.964 171.04 828.617 172.64C830.27 174.187 831.097 176.08 831.097 178.32C831.097 180.827 830.324 182.827 828.777 184.32C827.23 185.76 825.017 186.48 822.137 186.48Z" />
  </mask>
  <path
    d="M316.8 187.28C311.413 187.28 306.56 186 302.24 183.44C297.92 180.827 294.533 177.28 292.08 172.8C289.627 168.32 288.4 163.387 288.4 158C288.4 152.827 289.627 148.08 292.08 143.76C294.587 139.44 298.053 136.027 302.48 133.52C306.907 131.013 311.947 129.76 317.6 129.76C320.693 129.76 323.68 130.107 326.56 130.8C329.493 131.493 332.133 132.48 334.48 133.76L329.2 146.16C325.573 144.667 322.187 143.92 319.04 143.92C314.933 143.92 311.76 145.253 309.52 147.92C307.28 150.533 306.16 153.973 306.16 158.24C306.16 161.013 306.667 163.52 307.68 165.76C308.693 167.947 310.107 169.68 311.92 170.96C313.787 172.24 315.893 172.88 318.24 172.88C319.52 172.88 320.587 172.773 321.44 172.56V159.68L335.28 158.08V183.12C329.253 185.893 323.093 187.28 316.8 187.28ZM354.334 130.96H378.654L394.574 186H375.774L373.694 175.44H359.454L357.134 186H339.134L354.334 130.96ZM371.774 165.6L366.574 141.52L361.134 165.6H371.774ZM399.872 130.96H416.512L430.272 157.68L443.712 130.96H460.352V186H443.712V156.64L433.552 175.84H426.752L416.512 156.64V186H399.872V130.96ZM470.809 130.96H509.449V143.12H490.249V153.12H507.769V163.2H490.249V173.84H509.449V186H470.809V130.96ZM560.029 187.28C554.269 187.28 549.149 186.053 544.669 183.6C540.243 181.147 536.776 177.76 534.269 173.44C531.816 169.067 530.589 164.107 530.589 158.56C530.589 152.96 531.816 147.973 534.269 143.6C536.776 139.227 540.243 135.84 544.669 133.44C549.149 130.987 554.269 129.76 560.029 129.76C565.789 129.76 570.883 130.987 575.309 133.44C579.789 135.84 583.256 139.227 585.709 143.6C588.216 147.92 589.469 152.907 589.469 158.56C589.469 164.107 588.216 169.067 585.709 173.44C583.256 177.76 579.789 181.147 575.309 183.6C570.829 186.053 565.736 187.28 560.029 187.28ZM560.029 172.72C563.389 172.72 566.136 171.413 568.269 168.8C570.456 166.187 571.549 162.747 571.549 158.48C571.549 155.653 571.043 153.147 570.029 150.96C569.069 148.72 567.709 146.987 565.949 145.76C564.189 144.48 562.189 143.84 559.949 143.84C557.763 143.84 555.789 144.48 554.029 145.76C552.269 146.987 550.909 148.72 549.949 150.96C548.989 153.147 548.509 155.653 548.509 158.48C548.509 162.747 549.576 166.187 551.709 168.8C553.843 171.413 556.616 172.72 560.029 172.72ZM591.16 130.96H609.24L617.72 165.28L626.2 130.96H645.08L627.88 186H607.48L591.16 130.96ZM649.95 130.96H688.59V143.12H669.39V153.12H686.91V163.2H669.39V173.84H688.59V186H649.95V130.96ZM739.208 187.28C729.181 187.28 723.048 182.64 720.808 173.36L718.808 165.12H715.048V186H697.528V130.96H721.768C726.355 130.96 730.381 131.653 733.848 133.04C737.368 134.373 740.088 136.267 742.008 138.72C743.928 141.173 744.888 144 744.888 147.2C744.888 150.773 744.008 153.787 742.248 156.24C740.541 158.64 737.875 160.613 734.248 162.16C734.621 164.187 735.048 166.027 735.528 167.68C736.168 169.707 737.048 171.12 738.168 171.92C739.288 172.72 740.915 173.12 743.048 173.12C743.795 173.12 744.968 173.013 746.568 172.8V185.84C744.061 186.8 741.608 187.28 739.208 187.28ZM718.088 153.92C722.035 153.92 724.808 153.493 726.408 152.64C728.061 151.733 728.888 150.213 728.888 148.08C728.888 146.267 728.221 144.96 726.888 144.16C725.555 143.307 723.448 142.88 720.568 142.88H715.048V153.92H718.088ZM774.949 186.48C772.123 186.48 769.909 185.707 768.309 184.16C766.709 182.613 765.909 180.667 765.909 178.32C765.909 175.92 766.736 173.973 768.389 172.48C770.043 170.987 772.229 170.24 774.949 170.24C777.616 170.24 779.776 171.04 781.429 172.64C783.083 174.187 783.909 176.08 783.909 178.32C783.909 180.827 783.136 182.827 781.589 184.32C780.043 185.76 777.829 186.48 774.949 186.48ZM798.543 186.48C795.716 186.48 793.503 185.707 791.903 184.16C790.303 182.613 789.503 180.667 789.503 178.32C789.503 175.92 790.33 173.973 791.983 172.48C793.636 170.987 795.823 170.24 798.543 170.24C801.21 170.24 803.37 171.04 805.023 172.64C806.676 174.187 807.503 176.08 807.503 178.32C807.503 180.827 806.73 182.827 805.183 184.32C803.636 185.76 801.423 186.48 798.543 186.48ZM822.137 186.48C819.31 186.48 817.097 185.707 815.497 184.16C813.897 182.613 813.097 180.667 813.097 178.32C813.097 175.92 813.924 173.973 815.577 172.48C817.23 170.987 819.417 170.24 822.137 170.24C824.804 170.24 826.964 171.04 828.617 172.64C830.27 174.187 831.097 176.08 831.097 178.32C831.097 180.827 830.324 182.827 828.777 184.32C827.23 185.76 825.017 186.48 822.137 186.48Z"
    fill="url(#paint2_linear_274_5558)" />
  <path
    d="M302.24 183.44L297.064 191.996C297.09 192.012 297.116 192.027 297.142 192.043L302.24 183.44ZM292.08 143.76L283.431 138.741C283.415 138.768 283.4 138.795 283.384 138.822L292.08 143.76ZM302.48 133.52L307.407 142.222L307.407 142.222L302.48 133.52ZM326.56 130.8L324.219 140.522C324.233 140.525 324.246 140.529 324.26 140.532L326.56 130.8ZM334.48 133.76L343.681 137.678C345.698 132.941 343.788 127.446 339.269 124.981L334.48 133.76ZM329.2 146.16L325.393 155.407C330.456 157.492 336.255 155.116 338.401 150.078L329.2 146.16ZM309.52 147.92L317.113 154.428C317.134 154.403 317.156 154.377 317.177 154.352L309.52 147.92ZM307.68 165.76L298.569 169.882C298.581 169.909 298.594 169.937 298.607 169.965L307.68 165.76ZM311.92 170.96L306.153 179.13C306.19 179.156 306.227 179.182 306.265 179.207L311.92 170.96ZM321.44 172.56L323.865 182.261C328.317 181.149 331.44 177.149 331.44 172.56H321.44ZM321.44 159.68L320.292 149.746C315.247 150.329 311.44 154.601 311.44 159.68H321.44ZM335.28 158.08H345.28C345.28 155.228 344.062 152.511 341.933 150.614C339.803 148.716 336.965 147.819 334.132 148.146L335.28 158.08ZM335.28 183.12L339.46 192.204C343.007 190.572 345.28 187.025 345.28 183.12H335.28ZM316.8 177.28C313.072 177.28 310.002 176.416 307.338 174.837L297.142 192.043C303.118 195.584 309.755 197.28 316.8 197.28V177.28ZM307.416 174.884C304.622 173.194 302.468 170.95 300.851 167.997L283.309 177.603C286.599 183.61 291.218 188.459 297.064 191.996L307.416 174.884ZM300.851 167.997C299.248 165.07 298.4 161.803 298.4 158H278.4C278.4 164.971 280.005 171.57 283.309 177.603L300.851 167.997ZM298.4 158C298.4 154.483 299.213 151.449 300.776 148.698L283.384 138.822C280.04 144.711 278.4 151.17 278.4 158H298.4ZM300.729 148.779C302.327 146.025 304.496 143.87 307.407 142.222L297.553 124.818C291.61 128.183 286.846 132.855 283.431 138.741L300.729 148.779ZM307.407 142.222C310.169 140.658 313.477 139.76 317.6 139.76V119.76C310.416 119.76 303.644 121.369 297.553 124.818L307.407 142.222ZM317.6 139.76C319.94 139.76 322.139 140.021 324.219 140.522L328.901 121.078C325.221 120.192 321.447 119.76 317.6 119.76V139.76ZM324.26 140.532C326.434 141.046 328.22 141.737 329.691 142.539L339.269 124.981C336.046 123.223 332.553 121.941 328.86 121.068L324.26 140.532ZM325.279 129.842L319.999 142.242L338.401 150.078L343.681 137.678L325.279 129.842ZM333.007 136.913C328.461 135.041 323.772 133.92 319.04 133.92V153.92C320.602 153.92 322.686 154.292 325.393 155.407L333.007 136.913ZM319.04 133.92C312.566 133.92 306.35 136.146 301.863 141.488L317.177 154.352C317.288 154.22 317.349 154.183 317.454 154.139C317.601 154.077 318.065 153.92 319.04 153.92V133.92ZM301.927 141.412C297.788 146.242 296.16 152.178 296.16 158.24H316.16C316.16 155.768 316.772 154.825 317.113 154.428L301.927 141.412ZM296.16 158.24C296.16 162.252 296.899 166.19 298.569 169.882L316.791 161.638C316.434 160.85 316.16 159.774 316.16 158.24H296.16ZM298.607 169.965C300.291 173.599 302.788 176.754 306.153 179.13L317.687 162.79C317.425 162.606 317.095 162.294 316.753 161.555L298.607 169.965ZM306.265 179.207C309.86 181.673 313.953 182.88 318.24 182.88V162.88C317.833 162.88 317.713 162.807 317.575 162.713L306.265 179.207ZM318.24 182.88C320.003 182.88 321.949 182.741 323.865 182.261L319.015 162.859C319.147 162.826 319.156 162.834 319.005 162.85C318.858 162.864 318.609 162.88 318.24 162.88V182.88ZM331.44 172.56V159.68H311.44V172.56H331.44ZM322.588 169.614L336.428 168.014L334.132 148.146L320.292 149.746L322.588 169.614ZM325.28 158.08V183.12H345.28V158.08H325.28ZM331.1 174.036C326.311 176.239 321.572 177.28 316.8 177.28V197.28C324.614 197.28 332.195 195.548 339.46 192.204L331.1 174.036ZM354.334 130.96V120.96C349.837 120.96 345.892 123.963 344.695 128.298L354.334 130.96ZM378.654 130.96L388.261 128.181C387.023 123.904 383.107 120.96 378.654 120.96V130.96ZM394.574 186V196C397.718 196 400.679 194.522 402.568 192.009C404.457 189.496 405.054 186.241 404.181 183.221L394.574 186ZM375.774 186L365.963 187.933C366.886 192.62 370.997 196 375.774 196V186ZM373.694 175.44L383.506 173.507C382.583 168.82 378.472 165.44 373.694 165.44V175.44ZM359.454 175.44V165.44C354.758 165.44 350.695 168.708 349.687 173.294L359.454 175.44ZM357.134 186V196C361.83 196 365.894 192.732 366.901 188.146L357.134 186ZM339.134 186L329.495 183.338C328.664 186.348 329.286 189.573 331.178 192.057C333.069 194.542 336.012 196 339.134 196V186ZM371.774 165.6V175.6C374.797 175.6 377.658 174.233 379.556 171.881C381.454 169.528 382.187 166.444 381.549 163.489L371.774 165.6ZM366.574 141.52L376.349 139.409C375.359 134.823 371.313 131.542 366.622 131.52C361.93 131.498 357.854 134.74 356.82 139.316L366.574 141.52ZM361.134 165.6L351.38 163.396C350.71 166.361 351.425 169.469 353.323 171.844C355.221 174.218 358.095 175.6 361.134 175.6V165.6ZM354.334 140.96H378.654V120.96H354.334V140.96ZM369.048 133.739L384.968 188.779L404.181 183.221L388.261 128.181L369.048 133.739ZM394.574 176H375.774V196H394.574V176ZM385.586 184.067L383.506 173.507L363.883 177.373L365.963 187.933L385.586 184.067ZM373.694 165.44H359.454V185.44H373.694V165.44ZM349.687 173.294L347.367 183.854L366.901 188.146L369.221 177.586L349.687 173.294ZM357.134 176H339.134V196H357.134V176ZM348.774 188.662L363.974 133.622L344.695 128.298L329.495 183.338L348.774 188.662ZM381.549 163.489L376.349 139.409L356.8 143.631L362 167.711L381.549 163.489ZM356.82 139.316L351.38 163.396L370.889 167.804L376.329 143.724L356.82 139.316ZM361.134 175.6H371.774V155.6H361.134V175.6ZM399.872 130.96V120.96C394.349 120.96 389.872 125.437 389.872 130.96H399.872ZM416.512 130.96L425.402 126.382C423.688 123.052 420.257 120.96 416.512 120.96V130.96ZM430.272 157.68L421.381 162.258C423.104 165.603 426.557 167.698 430.319 167.68C434.081 167.662 437.515 165.534 439.205 162.174L430.272 157.68ZM443.712 130.96V120.96C439.933 120.96 436.476 123.09 434.778 126.466L443.712 130.96ZM460.352 130.96H470.352C470.352 125.437 465.875 120.96 460.352 120.96V130.96ZM460.352 186V196C465.875 196 470.352 191.523 470.352 186H460.352ZM443.712 186H433.712C433.712 191.523 438.189 196 443.712 196V186ZM443.712 156.64H453.712C453.712 152.045 450.581 148.042 446.121 146.935C441.662 145.828 437.022 147.902 434.873 151.963L443.712 156.64ZM433.552 175.84V185.84C437.257 185.84 440.658 183.792 442.391 180.517L433.552 175.84ZM426.752 175.84L417.928 180.546C419.666 183.805 423.059 185.84 426.752 185.84V175.84ZM416.512 156.64L425.335 151.934C423.176 147.885 418.538 145.826 414.087 146.939C409.635 148.051 406.512 152.051 406.512 156.64H416.512ZM416.512 186V196C422.035 196 426.512 191.523 426.512 186H416.512ZM399.872 186H389.872C389.872 191.523 394.349 196 399.872 196V186ZM399.872 140.96H416.512V120.96H399.872V140.96ZM407.621 135.538L421.381 162.258L439.162 153.102L425.402 126.382L407.621 135.538ZM439.205 162.174L452.645 135.454L434.778 126.466L421.338 153.186L439.205 162.174ZM443.712 140.96H460.352V120.96H443.712V140.96ZM450.352 130.96V186H470.352V130.96H450.352ZM460.352 176H443.712V196H460.352V176ZM453.712 186V156.64H433.712V186H453.712ZM434.873 151.963L424.713 171.163L442.391 180.517L452.551 161.317L434.873 151.963ZM433.552 165.84H426.752V185.84H433.552V165.84ZM435.575 171.134L425.335 151.934L407.688 161.346L417.928 180.546L435.575 171.134ZM406.512 156.64V186H426.512V156.64H406.512ZM416.512 176H399.872V196H416.512V176ZM409.872 186V130.96H389.872V186H409.872ZM470.809 130.96V120.96C465.287 120.96 460.809 125.437 460.809 130.96H470.809ZM509.449 130.96H519.449C519.449 125.437 514.972 120.96 509.449 120.96V130.96ZM509.449 143.12V153.12C514.972 153.12 519.449 148.643 519.449 143.12H509.449ZM490.249 143.12V133.12C484.727 133.12 480.249 137.597 480.249 143.12H490.249ZM490.249 153.12H480.249C480.249 158.643 484.727 163.12 490.249 163.12V153.12ZM507.769 153.12H517.769C517.769 147.597 513.292 143.12 507.769 143.12V153.12ZM507.769 163.2V173.2C513.292 173.2 517.769 168.723 517.769 163.2H507.769ZM490.249 163.2V153.2C484.727 153.2 480.249 157.677 480.249 163.2H490.249ZM490.249 173.84H480.249C480.249 179.363 484.727 183.84 490.249 183.84V173.84ZM509.449 173.84H519.449C519.449 168.317 514.972 163.84 509.449 163.84V173.84ZM509.449 186V196C514.972 196 519.449 191.523 519.449 186H509.449ZM470.809 186H460.809C460.809 191.523 465.287 196 470.809 196V186ZM470.809 140.96H509.449V120.96H470.809V140.96ZM499.449 130.96V143.12H519.449V130.96H499.449ZM509.449 133.12H490.249V153.12H509.449V133.12ZM480.249 143.12V153.12H500.249V143.12H480.249ZM490.249 163.12H507.769V143.12H490.249V163.12ZM497.769 153.12V163.2H517.769V153.12H497.769ZM507.769 153.2H490.249V173.2H507.769V153.2ZM480.249 163.2V173.84H500.249V163.2H480.249ZM490.249 183.84H509.449V163.84H490.249V183.84ZM499.449 173.84V186H519.449V173.84H499.449ZM509.449 176H470.809V196H509.449V176ZM480.809 186V130.96H460.809V186H480.809ZM544.669 183.6L539.822 192.347C539.837 192.355 539.851 192.363 539.866 192.371L544.669 183.6ZM534.269 173.44L525.548 178.333C525.572 178.375 525.596 178.417 525.62 178.459L534.269 173.44ZM534.269 143.6L525.593 138.627C525.578 138.654 525.563 138.681 525.548 138.707L534.269 143.6ZM544.669 133.44L549.436 142.231C549.448 142.224 549.46 142.218 549.473 142.211L544.669 133.44ZM575.309 133.44L570.462 142.187C570.503 142.21 570.545 142.232 570.587 142.255L575.309 133.44ZM585.709 143.6L576.988 148.493C577.012 148.535 577.036 148.577 577.06 148.619L585.709 143.6ZM585.709 173.44L577.033 168.467C577.027 168.479 577.02 168.49 577.014 168.502L585.709 173.44ZM575.309 183.6L580.113 192.371L575.309 183.6ZM568.269 168.8L560.6 162.383C560.574 162.414 560.548 162.445 560.523 162.476L568.269 168.8ZM570.029 150.96L560.838 154.899C560.876 154.988 560.916 155.077 560.956 155.165L570.029 150.96ZM565.949 145.76L560.068 153.847C560.122 153.887 560.176 153.926 560.231 153.964L565.949 145.76ZM554.029 145.76L559.747 153.964C559.802 153.926 559.857 153.887 559.911 153.847L554.029 145.76ZM549.949 150.96L559.106 154.98C559.118 154.953 559.129 154.926 559.141 154.899L549.949 150.96ZM560.029 177.28C555.731 177.28 552.3 176.378 549.473 174.829L539.866 192.371C545.999 195.729 552.808 197.28 560.029 197.28V177.28ZM549.517 174.853C546.649 173.264 544.506 171.156 542.919 168.421L525.62 178.459C529.046 184.364 533.836 189.029 539.822 192.347L549.517 174.853ZM542.991 168.547C541.462 165.823 540.589 162.579 540.589 158.56H520.589C520.589 165.634 522.17 172.311 525.548 178.333L542.991 168.547ZM540.589 158.56C540.589 154.469 541.47 151.203 542.991 148.493L525.548 138.707C522.162 144.744 520.589 151.451 520.589 158.56H540.589ZM542.945 148.573C544.53 145.809 546.643 143.745 549.436 142.231L539.903 124.649C533.842 127.935 529.023 132.645 525.593 138.627L542.945 148.573ZM549.473 142.211C552.3 140.662 555.731 139.76 560.029 139.76V119.76C552.808 119.76 545.999 121.311 539.866 124.669L549.473 142.211ZM560.029 139.76C564.331 139.76 567.713 140.663 570.462 142.187L580.157 124.693C574.052 121.31 567.248 119.76 560.029 119.76V139.76ZM570.587 142.255C573.412 143.768 575.48 145.805 576.988 148.493L594.431 138.707C591.032 132.649 586.167 127.912 580.032 124.625L570.587 142.255ZM577.06 148.619C578.57 151.221 579.469 154.432 579.469 158.56H599.469C599.469 151.381 597.862 144.619 594.359 138.581L577.06 148.619ZM579.469 158.56C579.469 162.542 578.587 165.756 577.033 168.467L594.385 178.413C597.845 172.377 599.469 165.672 599.469 158.56H579.469ZM577.014 168.502C575.504 171.161 573.406 173.241 570.506 174.829L580.113 192.371C586.172 189.052 591.008 184.359 594.405 178.378L577.014 168.502ZM570.506 174.829C567.665 176.385 564.258 177.28 560.029 177.28V197.28C567.214 197.28 573.994 195.722 580.113 192.371L570.506 174.829ZM560.029 182.72C566.407 182.72 571.992 180.053 576.016 175.124L560.523 162.476C560.397 162.63 560.317 162.699 560.292 162.719C560.27 162.737 560.279 162.726 560.313 162.71C560.348 162.693 560.364 162.692 560.342 162.696C560.316 162.702 560.219 162.72 560.029 162.72V182.72ZM575.939 175.217C579.98 170.387 581.549 164.484 581.549 158.48H561.549C561.549 161.009 560.932 161.986 560.6 162.383L575.939 175.217ZM581.549 158.48C581.549 154.45 580.823 150.468 579.102 146.755L560.956 155.165C561.262 155.825 561.549 156.857 561.549 158.48H581.549ZM579.221 147.021C577.627 143.302 575.162 139.991 571.667 137.556L560.231 153.964C560.257 153.982 560.512 154.138 560.838 154.899L579.221 147.021ZM571.831 137.673C568.309 135.111 564.236 133.84 559.949 133.84V153.84C560.032 153.84 560.077 153.846 560.092 153.848C560.106 153.85 560.1 153.85 560.082 153.844C560.063 153.838 560.047 153.831 560.037 153.826C560.027 153.821 560.037 153.825 560.068 153.847L571.831 137.673ZM559.949 133.84C555.66 133.84 551.626 135.143 548.148 137.673L559.911 153.847C559.932 153.832 559.946 153.823 559.954 153.818C559.962 153.813 559.965 153.812 559.963 153.813C559.961 153.814 559.955 153.817 559.946 153.821C559.936 153.825 559.926 153.829 559.914 153.832C559.903 153.836 559.893 153.839 559.884 153.841C559.875 153.843 559.87 153.844 559.87 153.844C559.869 153.844 559.875 153.843 559.887 153.842C559.9 153.841 559.92 153.84 559.949 153.84V133.84ZM548.311 137.556C544.817 139.991 542.352 143.302 540.758 147.021L559.141 154.899C559.467 154.138 559.722 153.982 559.747 153.964L548.311 137.556ZM540.793 146.94C539.184 150.605 538.509 154.52 538.509 158.48H558.509C558.509 156.787 558.795 155.689 559.106 154.98L540.793 146.94ZM538.509 158.48C538.509 164.428 540.021 170.295 543.963 175.124L559.456 162.476C559.131 162.078 558.509 161.066 558.509 158.48H538.509ZM543.963 175.124C548.021 180.095 553.654 182.72 560.029 182.72V162.72C559.816 162.72 559.698 162.7 559.656 162.691C559.617 162.683 559.622 162.68 559.652 162.694C559.681 162.708 559.69 162.717 559.671 162.702C559.65 162.685 559.575 162.622 559.456 162.476L543.963 175.124ZM591.16 130.96V120.96C588.005 120.96 585.034 122.449 583.147 124.978C581.259 127.506 580.676 130.778 581.573 133.803L591.16 130.96ZM609.24 130.96L618.948 128.561C617.845 124.097 613.839 120.96 609.24 120.96V130.96ZM617.72 165.28L608.012 167.679C609.115 172.143 613.121 175.28 617.72 175.28C622.319 175.28 626.325 172.143 627.428 167.679L617.72 165.28ZM626.2 130.96V120.96C621.601 120.96 617.595 124.097 616.492 128.561L626.2 130.96ZM645.08 130.96L654.625 133.943C655.574 130.906 655.021 127.6 653.137 125.037C651.253 122.474 648.261 120.96 645.08 120.96V130.96ZM627.88 186V196C632.254 196 636.12 193.158 637.425 188.983L627.88 186ZM607.48 186L597.893 188.843C599.151 193.088 603.052 196 607.48 196V186ZM591.16 140.96H609.24V120.96H591.16V140.96ZM599.532 133.359L608.012 167.679L627.428 162.881L618.948 128.561L599.532 133.359ZM627.428 167.679L635.908 133.359L616.492 128.561L608.012 162.881L627.428 167.679ZM626.2 140.96H645.08V120.96H626.2V140.96ZM635.535 127.977L618.335 183.017L637.425 188.983L654.625 133.943L635.535 127.977ZM627.88 176H607.48V196H627.88V176ZM617.067 183.157L600.747 128.117L581.573 133.803L597.893 188.843L617.067 183.157ZM649.95 130.96V120.96C644.427 120.96 639.95 125.437 639.95 130.96H649.95ZM688.59 130.96H698.59C698.59 125.437 694.113 120.96 688.59 120.96V130.96ZM688.59 143.12V153.12C694.113 153.12 698.59 148.643 698.59 143.12H688.59ZM669.39 143.12V133.12C663.867 133.12 659.39 137.597 659.39 143.12H669.39ZM669.39 153.12H659.39C659.39 158.643 663.867 163.12 669.39 163.12V153.12ZM686.91 153.12H696.91C696.91 147.597 692.433 143.12 686.91 143.12V153.12ZM686.91 163.2V173.2C692.433 173.2 696.91 168.723 696.91 163.2H686.91ZM669.39 163.2V153.2C663.867 153.2 659.39 157.677 659.39 163.2H669.39ZM669.39 173.84H659.39C659.39 179.363 663.867 183.84 669.39 183.84V173.84ZM688.59 173.84H698.59C698.59 168.317 694.113 163.84 688.59 163.84V173.84ZM688.59 186V196C694.113 196 698.59 191.523 698.59 186H688.59ZM649.95 186H639.95C639.95 191.523 644.427 196 649.95 196V186ZM649.95 140.96H688.59V120.96H649.95V140.96ZM678.59 130.96V143.12H698.59V130.96H678.59ZM688.59 133.12H669.39V153.12H688.59V133.12ZM659.39 143.12V153.12H679.39V143.12H659.39ZM669.39 163.12H686.91V143.12H669.39V163.12ZM676.91 153.12V163.2H696.91V153.12H676.91ZM686.91 153.2H669.39V173.2H686.91V153.2ZM659.39 163.2V173.84H679.39V163.2H659.39ZM669.39 183.84H688.59V163.84H669.39V183.84ZM678.59 173.84V186H698.59V173.84H678.59ZM688.59 176H649.95V196H688.59V176ZM659.95 186V130.96H639.95V186H659.95ZM720.808 173.36L730.529 171.014L730.526 171.001L720.808 173.36ZM718.808 165.12L728.526 162.761C727.438 158.277 723.422 155.12 718.808 155.12V165.12ZM715.048 165.12V155.12C709.525 155.12 705.048 159.597 705.048 165.12H715.048ZM715.048 186V196C720.571 196 725.048 191.523 725.048 186H715.048ZM697.528 186H687.528C687.528 191.523 692.005 196 697.528 196V186ZM697.528 130.96V120.96C692.005 120.96 687.528 125.437 687.528 130.96H697.528ZM733.848 133.04L730.134 142.325C730.191 142.348 730.248 142.37 730.306 142.392L733.848 133.04ZM742.008 138.72L749.883 132.557L749.883 132.557L742.008 138.72ZM742.248 156.24L734.123 150.411C734.115 150.422 734.107 150.433 734.099 150.445L742.248 156.24ZM734.248 162.16L730.325 152.962C726.022 154.797 723.566 159.371 724.414 163.972L734.248 162.16ZM735.528 167.68L725.925 170.468C725.946 170.543 725.969 170.617 725.992 170.691L735.528 167.68ZM738.168 171.92L732.356 180.057L732.356 180.057L738.168 171.92ZM746.568 172.8H756.568C756.568 169.917 755.324 167.175 753.155 165.276C750.987 163.377 748.104 162.507 745.246 162.888L746.568 172.8ZM746.568 185.84L750.145 195.179C754.014 193.697 756.568 189.983 756.568 185.84H746.568ZM726.408 152.64L731.114 161.464C731.148 161.445 731.182 161.427 731.216 161.408L726.408 152.64ZM726.888 144.16L721.498 152.583C721.579 152.635 721.661 152.685 721.743 152.735L726.888 144.16ZM715.048 142.88V132.88C709.525 132.88 705.048 137.357 705.048 142.88H715.048ZM715.048 153.92H705.048C705.048 159.443 709.525 163.92 715.048 163.92V153.92ZM739.208 177.28C735.71 177.28 733.988 176.481 733.121 175.825C732.308 175.21 731.241 173.965 730.529 171.014L711.087 175.706C712.615 182.035 715.735 187.75 721.055 191.775C726.322 195.759 732.68 197.28 739.208 197.28V177.28ZM730.526 171.001L728.526 162.761L709.09 167.479L711.09 175.719L730.526 171.001ZM718.808 155.12H715.048V175.12H718.808V155.12ZM705.048 165.12V186H725.048V165.12H705.048ZM715.048 176H697.528V196H715.048V176ZM707.528 186V130.96H687.528V186H707.528ZM697.528 140.96H721.768V120.96H697.528V140.96ZM721.768 140.96C725.364 140.96 728.085 141.505 730.134 142.325L737.562 123.755C732.678 121.802 727.345 120.96 721.768 120.96V140.96ZM730.306 142.392C732.474 143.213 733.553 144.142 734.133 144.883L749.883 132.557C746.623 128.391 742.262 125.534 737.39 123.688L730.306 142.392ZM734.133 144.883C734.636 145.526 734.888 146.168 734.888 147.2H754.888C754.888 141.832 753.22 136.821 749.883 132.557L734.133 144.883ZM734.888 147.2C734.888 149.076 734.452 149.951 734.123 150.411L750.374 162.069C753.564 157.622 754.888 152.47 754.888 147.2H734.888ZM734.099 150.445C733.764 150.915 732.814 151.9 730.325 152.962L738.171 171.358C742.936 169.326 747.319 166.365 750.398 162.035L734.099 150.445ZM724.414 163.972C724.836 166.266 725.335 168.438 725.925 170.468L745.132 164.892C744.761 163.615 744.407 162.108 744.083 160.348L724.414 163.972ZM725.992 170.691C726.951 173.728 728.744 177.477 732.356 180.057L743.981 163.783C744.691 164.29 745.044 164.792 745.157 164.974C745.262 165.143 745.197 165.091 745.064 164.669L725.992 170.691ZM732.356 180.057C735.873 182.569 739.9 183.12 743.048 183.12V163.12C742.579 163.12 742.469 163.073 742.616 163.109C742.774 163.148 743.312 163.305 743.981 163.783L732.356 180.057ZM743.048 183.12C744.503 183.12 746.234 182.933 747.89 182.712L745.246 162.888C744.538 162.982 743.99 163.044 743.583 163.081C743.147 163.121 742.999 163.12 743.048 163.12V183.12ZM736.568 172.8V185.84H756.568V172.8H736.568ZM742.992 176.501C741.492 177.076 740.249 177.28 739.208 177.28V197.28C742.967 197.28 746.631 196.524 750.145 195.179L742.992 176.501ZM718.088 163.92C722.175 163.92 727.154 163.575 731.114 161.464L721.702 143.816C722.286 143.505 722.422 143.591 721.608 143.716C720.88 143.828 719.74 143.92 718.088 143.92V163.92ZM731.216 161.408C736.552 158.482 738.888 153.282 738.888 148.08H718.888C718.888 147.862 718.934 147.052 719.483 146.042C720.068 144.968 720.903 144.254 721.6 143.872L731.216 161.408ZM738.888 148.08C738.888 143.444 736.927 138.521 732.033 135.585L721.743 152.735C720.904 152.231 720.051 151.403 719.481 150.285C718.946 149.237 718.888 148.387 718.888 148.08H738.888ZM732.279 135.737C728.488 133.312 724.011 132.88 720.568 132.88V152.88C721.551 152.88 722.1 152.956 722.323 153.001C722.423 153.021 722.389 153.022 722.256 152.972C722.122 152.923 721.849 152.808 721.498 152.583L732.279 135.737ZM720.568 132.88H715.048V152.88H720.568V132.88ZM705.048 142.88V153.92H725.048V142.88H705.048ZM715.048 163.92H718.088V143.92H715.048V163.92ZM768.309 184.16L775.26 176.97L775.26 176.97L768.309 184.16ZM768.389 172.48L761.687 165.059L761.687 165.059L768.389 172.48ZM781.429 172.64L774.475 179.826C774.516 179.865 774.557 179.904 774.598 179.943L781.429 172.64ZM781.589 184.32L788.404 191.639C788.448 191.598 788.492 191.556 788.535 191.514L781.589 184.32ZM774.949 176.48C774.435 176.48 774.322 176.409 774.468 176.46C774.544 176.486 774.669 176.539 774.822 176.632C774.976 176.726 775.126 176.841 775.26 176.97L761.359 191.35C765.291 195.151 770.262 196.48 774.949 196.48V176.48ZM775.26 176.97C775.394 177.1 775.605 177.364 775.759 177.739C775.908 178.103 775.909 178.339 775.909 178.32H755.909C755.909 183.212 757.694 187.807 761.359 191.35L775.26 176.97ZM775.909 178.32C775.909 178.283 775.912 178.55 775.734 178.969C775.548 179.405 775.286 179.726 775.092 179.901L761.687 165.059C757.758 168.607 755.909 173.337 755.909 178.32H775.909ZM775.092 179.901C774.995 179.988 774.885 180.07 774.768 180.138C774.652 180.205 774.558 180.244 774.501 180.263C774.388 180.302 774.499 180.24 774.949 180.24V160.24C770.326 160.24 765.563 161.558 761.687 165.059L775.092 179.901ZM774.949 180.24C775.281 180.24 775.288 180.289 775.096 180.217C775.003 180.183 774.889 180.129 774.768 180.053C774.647 179.977 774.548 179.897 774.475 179.826L788.384 165.454C784.569 161.762 779.767 160.24 774.949 160.24V180.24ZM774.598 179.943C774.526 179.876 774.307 179.638 774.125 179.221C773.942 178.803 773.909 178.46 773.909 178.32H793.909C793.909 173.279 791.911 168.752 788.261 165.337L774.598 179.943ZM773.909 178.32C773.909 178.545 773.876 178.421 774.002 178.094C774.141 177.735 774.375 177.385 774.643 177.126L788.535 191.514C792.359 187.822 793.909 183.051 793.909 178.32H773.909ZM774.775 177.001C774.96 176.829 775.15 176.693 775.323 176.594C775.494 176.496 775.62 176.449 775.676 176.431C775.773 176.399 775.578 176.48 774.949 176.48V196.48C779.428 196.48 784.422 195.346 788.404 191.639L774.775 177.001ZM791.903 184.16L798.853 176.97L798.853 176.97L791.903 184.16ZM791.983 172.48L785.28 165.059L785.28 165.059L791.983 172.48ZM805.023 172.64L798.069 179.826C798.109 179.865 798.15 179.904 798.192 179.943L805.023 172.64ZM805.183 184.32L811.997 191.639C812.042 191.598 812.086 191.556 812.129 191.514L805.183 184.32ZM798.543 176.48C798.029 176.48 797.915 176.409 798.062 176.46C798.138 176.486 798.263 176.539 798.416 176.632C798.57 176.726 798.719 176.841 798.853 176.97L784.953 191.35C788.885 195.151 793.855 196.48 798.543 196.48V176.48ZM798.853 176.97C798.987 177.1 799.198 177.364 799.353 177.739C799.502 178.103 799.503 178.339 799.503 178.32H779.503C779.503 183.212 781.288 187.807 784.953 191.35L798.853 176.97ZM799.503 178.32C799.503 178.283 799.505 178.55 799.328 178.969C799.142 179.405 798.88 179.726 798.686 179.901L785.28 165.059C781.352 168.607 779.503 173.337 779.503 178.32H799.503ZM798.686 179.901C798.589 179.988 798.478 180.07 798.362 180.138C798.246 180.205 798.151 180.244 798.095 180.263C797.982 180.302 798.092 180.24 798.543 180.24V160.24C793.92 160.24 789.157 161.558 785.28 165.059L798.686 179.901ZM798.543 180.24C798.875 180.24 798.882 180.289 798.69 180.217C798.597 180.183 798.482 180.129 798.362 180.053C798.241 179.977 798.142 179.897 798.069 179.826L811.977 165.454C808.162 161.762 803.361 160.24 798.543 160.24V180.24ZM798.192 179.943C798.12 179.876 797.9 179.638 797.719 179.221C797.536 178.803 797.503 178.46 797.503 178.32H817.503C817.503 173.279 815.505 168.752 811.855 165.337L798.192 179.943ZM797.503 178.32C797.503 178.545 797.47 178.421 797.596 178.094C797.735 177.735 797.969 177.385 798.237 177.126L812.129 191.514C815.953 187.822 817.503 183.051 817.503 178.32H797.503ZM798.369 177.001C798.554 176.829 798.744 176.693 798.917 176.594C799.088 176.496 799.214 176.449 799.27 176.431C799.366 176.399 799.172 176.48 798.543 176.48V196.48C803.021 196.48 808.016 195.346 811.997 191.639L798.369 177.001ZM815.497 184.16L822.447 176.97L822.447 176.97L815.497 184.16ZM815.577 172.48L808.874 165.059L808.874 165.059L815.577 172.48ZM828.617 172.64L821.663 179.826C821.703 179.865 821.744 179.904 821.785 179.943L828.617 172.64ZM828.777 184.32L835.591 191.639C835.635 191.598 835.679 191.556 835.723 191.514L828.777 184.32ZM822.137 176.48C821.623 176.48 821.509 176.409 821.655 176.46C821.731 176.486 821.857 176.539 822.009 176.632C822.163 176.726 822.313 176.841 822.447 176.97L808.547 191.35C812.479 195.151 817.449 196.48 822.137 196.48V176.48ZM822.447 176.97C822.581 177.1 822.792 177.364 822.946 177.739C823.096 178.103 823.097 178.339 823.097 178.32H803.097C803.097 183.212 804.882 187.807 808.547 191.35L822.447 176.97ZM823.097 178.32C823.097 178.283 823.099 178.55 822.921 178.969C822.736 179.405 822.473 179.726 822.28 179.901L808.874 165.059C804.946 168.607 803.097 173.337 803.097 178.32H823.097ZM822.28 179.901C822.183 179.988 822.072 180.07 821.956 180.138C821.84 180.205 821.745 180.244 821.688 180.263C821.576 180.302 821.686 180.24 822.137 180.24V160.24C817.514 160.24 812.75 161.558 808.874 165.059L822.28 179.901ZM822.137 180.24C822.469 180.24 822.476 180.289 822.284 180.217C822.191 180.183 822.076 180.129 821.955 180.053C821.834 179.977 821.736 179.897 821.663 179.826L835.571 165.454C831.756 161.762 826.955 160.24 822.137 160.24V180.24ZM821.785 179.943C821.714 179.876 821.494 179.638 821.312 179.221C821.13 178.803 821.097 178.46 821.097 178.32H841.097C841.097 173.279 839.098 168.752 835.448 165.337L821.785 179.943ZM821.097 178.32C821.097 178.545 821.063 178.421 821.19 178.094C821.328 177.735 821.562 177.385 821.831 177.126L835.723 191.514C839.547 187.822 841.097 183.051 841.097 178.32H821.097ZM821.963 177.001C822.148 176.829 822.337 176.693 822.511 176.594C822.681 176.496 822.808 176.449 822.863 176.431C822.96 176.399 822.765 176.48 822.137 176.48V196.48C826.615 196.48 831.61 195.346 835.591 191.639L821.963 177.001Z"
    fill="white" mask="url(#path-64-outside-1_274_5558)" />
  <ellipse cx="560" cy="158.5" rx="10" ry="12.5" fill="white" />
  <defs>
    <linearGradient id="paint0_linear_274_5558" x1="550" y1="0" x2="550" y2="937" gradientUnits="userSpaceOnUse">
      <stop stop-color="#A5D6D3" />
      <stop offset="0.53" stop-color="white" />
      <stop offset="1" stop-color="#A5D6D3" />
    </linearGradient>
    <linearGradient id="paint1_linear_274_5558" x1="550" y1="-12.76" x2="550" y2="597.266"
      gradientUnits="userSpaceOnUse">
      <stop stop-color="#8ACDD1" />
      <stop offset="0.515" stop-color="white" stop-opacity="0" />
      <stop offset="1" stop-color="#CDEAEC" />
    </linearGradient>
    <linearGradient id="paint2_linear_274_5558" x1="560" y1="119.8" x2="560" y2="186.6" gradientUnits="userSpaceOnUse">
      <stop stop-color="#4EBAC1" />
      <stop offset="1" stop-color="#059EA8" />
    </linearGradient>
    <clipPath id="clip0_274_5558">
      <rect width="1249.44" height="1474.98" fill="white" transform="translate(-48 -65.6765)" />
    </clipPath>
  </defs>
</svg>