<svg width="311" height="274" viewBox="0 0 311 274" fill="none" xmlns="http://www.w3.org/2000/svg">
<g clip-path="url(#clip0_7_127)">
<path d="M280.452 104.815L276.161 98.9098L297.26 113.127L301.552 119.031L280.452 104.815Z" fill="#3B2239"/>
<path d="M270.189 105.933L265.899 100.024L276.161 98.9098L280.452 104.815L270.189 105.933Z" fill="#61415E"/>
<path d="M280.452 104.815L301.552 119.031L299.854 122.898L277.213 113.017L265.882 115.758L270.189 105.933L280.452 104.815Z" fill="#4D2F4A"/>
<path d="M121.265 173.289L141.821 170.994L130.333 183.757L109.777 186.052L121.265 173.289Z" fill="#3B2239"/>
<path d="M162.908 193.657L144.904 234.131L133.694 218.786L137.959 196.142L121.265 173.288L109.777 186.052L98.5719 170.714L109.381 144.196L162.908 193.657Z" fill="#3B2239"/>
<path d="M246.438 185.122L228.431 225.594L217.22 210.25L221.489 187.607L204.791 164.752L193.307 177.517L182.102 162.179L202.508 124.994L246.438 185.122Z" fill="#3B2239"/>
<path d="M258.097 116.901L219.486 63.7373L257.398 82.4544L296.009 135.618L258.097 116.901Z" fill="#3B2239"/>
<path d="M147.517 200.572L108.909 147.414L119.86 144.706L138.107 165.767L147.517 200.572Z" fill="#3B2239"/>
<path d="M154.585 128.153L115.978 74.9916L219.486 63.7373L258.097 116.901L154.585 128.153Z" fill="#61415E"/>
<path d="M131.644 120.979L94.4653 69.7843L117.86 66.1319L155.039 117.327L131.644 120.979Z" fill="#7A5876"/>
<path d="M117.715 136.701L80.5361 85.5064L94.4653 69.7842L131.644 120.979L117.715 136.701Z" fill="#4D2F4A"/>
<path d="M105.768 140.827L68.5873 89.6363L80.5361 85.5064L117.715 136.701L105.768 140.827Z" fill="#61415E"/>
<path d="M58.1028 189.814L20.9238 138.619L25.3857 129.179L62.5609 180.372L58.1028 189.814Z" fill="#61415E"/>
<path d="M96.2243 173.995L59.049 122.802L64.1239 111.449L101.305 162.64L96.2243 173.995Z" fill="#BD6069"/>
<path d="M62.5609 180.372L25.3856 129.179L59.049 122.802L96.2243 173.995L62.5609 180.372Z" fill="#E68A91"/>
<path d="M35.2502 129.074L41.2988 128.399L34.5717 137.173L28.5285 137.847L35.2502 129.074Z" fill="#D9D4B7"/>
<path d="M29.1309 120.696L35.2502 129.074L28.5285 137.847L25.7948 134.109L29.1309 120.696Z" fill="#F0EDDA"/>
<path d="M53.5094 156.317L59.558 155.641L52.8347 164.417L46.7861 165.093L53.5094 156.317Z" fill="#D9D4B7"/>
<path d="M47.3901 147.939L53.5093 156.317L46.786 165.093L44.054 161.352L47.3901 147.939Z" fill="#F0EDDA"/>
<path d="M74.2741 137.33L37.0951 86.1357L67.4821 82.9864L104.657 134.179L74.2741 137.33Z" fill="#7A5876"/>
<path d="M61.0662 167.477L23.8872 116.282L37.0951 86.1357L74.2741 137.33L61.0662 167.477Z" fill="#61415E"/>
<path d="M296.009 135.618L258.097 116.901L155.824 128.019L155.039 117.327L131.644 120.979L117.715 136.701L105.768 140.827L104.657 134.179L74.2741 137.33L61.0662 167.477L101.305 162.64L96.2243 173.995L62.5609 180.372L58.1028 189.814L102.428 184.995L138.458 167.068L147.517 200.572L160.458 199.165L144.904 234.131L165.461 231.836L180.986 196.934L244.245 190.057L228.431 225.594L248.991 223.301L264.773 187.826L273.553 186.873L296.009 135.618Z" fill="#4D2F4A"/>
<path d="M143.6 109.131L152.065 108.185L147.32 118.851L138.856 119.797L143.6 109.131Z" fill="#4D2F4A"/>
<path d="M143.064 101.859L151.528 100.913L152.065 108.185L143.601 109.131L143.064 101.859Z" fill="#7A5876"/>
<path d="M143.064 101.859L143.6 109.131L138.856 119.797L132.579 111.202L143.064 101.859Z" fill="#61415E"/>
<path d="M110.415 57.2176L118.879 56.2721L116.27 76.386L107.806 77.3316L110.415 57.2176Z" fill="#4D2F4A"/>
<path d="M110.415 57.2176L107.806 77.3316L101.522 68.7297L106.267 58.064L110.415 57.2176Z" fill="#61415E"/>
<path d="M49.5301 96.8923C51.7493 99.9306 50.8865 104.838 50.8387 105.098L44.6904 96.6848C44.8203 96.5416 47.3072 93.8525 49.5248 96.8944L49.5301 96.8923Z" fill="#61415E"/>
<path d="M46.9024 95.4648L50.9615 95.0515C50.9615 95.0515 51.681 95.0751 52.4551 95.7109C53.6732 96.7121 55.2609 99.5072 54.4715 104.692L50.844 105.096C50.844 105.096 51.491 100.788 50.2193 98.0833C48.7795 95.0238 46.9024 95.4648 46.9024 95.4648Z" fill="#452A42"/>
<path d="M65.0625 118.315C67.2817 121.353 66.4189 126.261 66.3711 126.521L60.2228 118.108C60.3527 117.964 62.838 115.279 65.0572 118.317L65.0625 118.315Z" fill="#61415E"/>
<path d="M62.4311 116.886L66.4902 116.473C66.4902 116.473 67.2097 116.496 67.9838 117.132C69.2019 118.133 70.7896 120.928 70.0001 126.114L66.3727 126.517C66.3727 126.517 67.0234 122.211 65.748 119.504C64.3082 116.445 62.4311 116.886 62.4311 116.886Z" fill="#452A42"/>
<path d="M91.5005 94.8964L87.5457 89.4789L91.4078 80.7315L95.3643 86.1452L91.5005 94.8964Z" fill="#1A1212"/>
<path d="M115.026 126.995L111.071 121.578L114.933 112.83L118.89 118.244L115.026 126.995Z" fill="#1A1212"/>
</g>
<defs>
<clipPath id="clip0_7_127">
<rect width="257" height="186" fill="white" transform="translate(75.1252) rotate(23.8222)"/>
</clipPath>
</defs>
</svg>
