<svg width="400" height="400" viewBox="0 0 400 400" fill="none" xmlns="http://www.w3.org/2000/svg">
<style type="text/css">
@keyframes step1 {
  0% {
    opacity: 0;
  }
  50% {
    opacity: 0;
  }
  51% {
    opacity: 1;
  }
  100% {
    opacity: 1;
  }
}
@keyframes step2 {
  0% {
    opacity: 0;
  }
  49% {
    opacity: 0;
  }
  50% {
    opacity: 1;
  }
  100% {
    opacity: 1;
  }
}
#step1 {
  animation: step1 2s infinite;
}
#step2 {
  animation: step2 2s infinite reverse;
}
</style>
<g clip-path="url(#clip0_132_1088)" id="step1">
<path d="M330.595 99.0859L322.271 94.2479L355.304 100.16L363.629 104.998L330.595 99.0859Z" fill="#3B2239"/>
<path d="M318.808 105.904L310.483 101.06L322.271 94.2479L330.595 99.0859L318.808 105.904Z" fill="#61415E"/>
<path d="M330.595 99.086L363.629 104.998L363.64 110.567L331.058 110.709L318.846 120.054L318.808 105.904L330.595 99.086Z" fill="#4D2F4A"/>
<path d="M175.004 266.525L198.584 252.804L191.523 274.325L167.943 288.046L175.004 266.525Z" fill="#3B2239"/>
<path d="M236.103 268.914L235.945 327.342L214.243 314.801L207.324 285.205L175.004 266.525L167.943 288.047L146.251 275.511L145.164 237.754L236.103 268.914Z" fill="#3B2239"/>
<path d="M332.342 214.109L332.179 272.537L310.477 259.996L303.563 230.4L271.238 211.72L264.182 233.241L242.491 220.705L247.299 164.965L332.342 214.109Z" fill="#3B2239"/>
<path d="M310.06 125.581L235.146 82.0065L290.864 84.39L365.778 127.964L310.06 125.581Z" fill="#3B2239"/>
<path d="M221.217 285.457L146.308 241.888L158.079 232.786L191.318 248.477L221.217 285.457Z" fill="#3B2239"/>
<path d="M191.159 194.312L116.25 150.737L235.146 82.0065L310.06 125.581L191.159 194.312Z" fill="#61415E"/>
<path d="M159.656 197.878L87.5184 155.916L113.8 139.044L185.938 181.006L159.656 197.878Z" fill="#7A5876"/>
<path d="M151.226 224.27L79.0883 182.308L87.5182 155.916L159.656 197.878L151.226 224.27Z" fill="#4D2F4A"/>
<path d="M139.009 235.615L66.8716 193.658L79.0885 182.308L151.226 224.27L139.009 235.615Z" fill="#61415E"/>
<path d="M107.598 320.119L35.4598 278.157L35.8134 264.389L107.946 306.351L107.598 320.119Z" fill="#61415E"/>
<path d="M145.167 280.72L73.0342 238.758L73.1084 222.356L145.246 264.312L145.167 280.72Z" fill="#BD6069"/>
<path d="M107.946 306.351L35.8136 264.389L73.0342 238.758L145.167 280.72L107.946 306.351Z" fill="#E68A91"/>
<path d="M47.6602 259.007L54.5985 254.969L51.157 269.141L44.224 273.173L47.6602 259.007Z" fill="#D9D4B7"/>
<path d="M35.8127 252.158L47.6603 259.007L44.2241 273.173L38.9341 270.12L35.8127 252.158Z" fill="#F0EDDA"/>
<path d="M84.2073 282.149L91.1456 278.111L87.7095 292.283L80.7712 296.32L84.2073 282.149Z" fill="#D9D4B7"/>
<path d="M72.3599 275.3L84.2074 282.149L80.7712 296.32L75.4812 293.262L72.3599 275.3Z" fill="#F0EDDA"/>
<path d="M99.1457 248.176L27.0078 206.214L61.9947 186.223L134.127 228.185L99.1457 248.176Z" fill="#7A5876"/>
<path d="M99.2719 291.588L27.1341 249.627L27.0078 206.214L99.1456 248.176L99.2719 291.588Z" fill="#61415E"/>
<path d="M365.778 127.964L310.06 125.581L192.582 193.489L185.938 181.006L159.656 197.878L151.226 224.27L139.009 235.615L134.127 228.185L99.1456 248.176L99.2719 291.588L145.246 264.312L145.167 280.72L107.946 306.351L107.598 320.119L158.513 290.687L192.435 249.858L221.217 285.457L236.082 276.865L235.945 327.342L259.526 313.62L259.662 263.235L332.327 221.232L332.179 272.537L355.765 258.815L355.907 207.602L365.992 201.774L365.778 127.964Z" fill="#4D2F4A"/>
<path d="M167.769 177.212L177.479 171.561L177.437 186.958L167.727 192.609L167.769 177.212Z" fill="#4D2F4A"/>
<path d="M163.247 168.723L172.956 163.072L177.479 171.561L167.77 177.212L163.247 168.723Z" fill="#7A5876"/>
<path d="M163.247 168.723L167.769 177.212L167.727 192.609L155.574 185.583L163.247 168.723Z" fill="#61415E"/>
<path d="M100.067 132.255L109.777 126.604L117.345 152.264L107.636 157.915L100.067 132.255Z" fill="#4D2F4A"/>
<path d="M100.068 132.255L107.636 157.915L95.4716 150.884L95.5136 135.486L100.068 132.255Z" fill="#61415E"/>
<path d="M47.7434 212.567C52.0399 215.051 53.6138 221.432 53.6944 221.771L41.7932 214.896C41.8737 214.654 43.4416 210.084 47.738 212.573L47.7434 212.567Z" fill="#61415E"/>
<path d="M43.8122 212.245L48.4896 209.584C48.4896 209.584 49.3704 209.229 50.6432 209.583C52.6464 210.142 56.0514 212.669 57.8616 219.346L53.6997 221.766C53.6997 221.766 52.1849 216.223 49.2095 213.637C45.8421 210.713 43.8122 212.245 43.8122 212.245Z" fill="#452A42"/>
<path d="M77.8992 230.14C82.1957 232.624 83.7696 239.005 83.8502 239.344L71.9489 232.468C72.0295 232.227 73.5973 227.662 77.8938 230.146L77.8992 230.14Z" fill="#61415E"/>
<path d="M73.9626 229.818L78.64 227.156C78.64 227.156 79.5208 226.801 80.7936 227.156C82.7968 227.715 86.2017 230.242 88.012 236.919L83.8501 239.338C83.8501 239.338 82.3407 233.796 79.3599 231.21C75.9925 228.286 73.9626 229.818 73.9626 229.818Z" fill="#452A42"/>
<path d="M97.3214 187.796L89.6629 183.367L89.6621 170.754L97.3206 175.179L97.3214 187.796Z" fill="#1A1212"/>
<path d="M142.81 213.992L135.152 209.562L135.151 196.95L142.809 201.374L142.81 213.992Z" fill="#1A1212"/>
</g>
<defs>
<clipPath id="clip0_132_1088">
<rect width="338.985" height="245.335" fill="white" transform="translate(27 82.0196)"/>
</clipPath>
</defs>
<g clip-path="url(#clip0_217_3840)" id="step2">
<path d="M334.59 87.0669L326.266 82.2336L359.298 88.1409L367.622 92.9742L334.59 87.0669Z" fill="#3B2239"/>
<path d="M322.802 93.8764L314.478 89.0378L326.266 82.2336L334.59 87.0669L322.802 93.8764Z" fill="#61415E"/>
<path d="M334.59 87.0669L367.622 92.9742L367.639 98.5379L335.051 98.6775L322.839 108.011L322.802 93.8764L334.59 87.0669Z" fill="#4D2F4A"/>
<path d="M178.99 254.315L202.571 240.61L195.509 262.107L171.928 275.812L178.99 254.315Z" fill="#3B2239"/>
<path d="M240.093 256.705L239.927 315.069L218.225 302.54L211.308 272.977L178.99 254.315L171.928 275.812L150.237 263.289L149.158 225.573L240.093 256.705Z" fill="#3B2239"/>
<path d="M336.33 201.965L336.163 260.329L314.462 247.801L307.55 218.237L275.231 199.575L268.169 221.072L246.479 208.549L251.296 152.869L336.33 201.965Z" fill="#3B2239"/>
<path d="M314.053 113.532L239.143 70L294.86 72.3844L369.771 115.916L314.053 113.532Z" fill="#3B2239"/>
<path d="M225.202 273.229L150.296 229.703L162.068 220.611L195.305 236.287L225.202 273.229Z" fill="#3B2239"/>
<path d="M195.149 182.181L120.244 138.649L239.143 70L314.053 113.532L195.149 182.181Z" fill="#61415E"/>
<path d="M163.647 185.741L91.5127 143.82L117.8 126.968L189.929 168.889L163.647 185.741Z" fill="#7A5876"/>
<path d="M155.215 212.104L83.0813 170.183L91.5127 143.82L163.647 185.741L155.215 212.104Z" fill="#4D2F4A"/>
<path d="M142.998 223.435L70.8638 181.52L83.0812 170.183L155.215 212.104L142.998 223.435Z" fill="#61415E"/>
<path d="M111.582 330.976L39.4475 289.055L39.802 275.302L111.931 317.223L111.582 330.976Z" fill="#61415E"/>
<path d="M149.158 268.492L77.0237 226.572L77.0989 210.187L149.233 252.102L149.158 268.492Z" fill="#BD6069"/>
<path d="M111.85 317.147L40.0007 275.377L77.0237 226.572L149.158 268.492L111.85 317.147Z" fill="#E68A91"/>
<path d="M103.129 217.109L31 175.183L65.9876 174.093L138.116 216.014L103.129 217.109Z" fill="#7A5876"/>
<path d="M369.771 115.916L314.054 113.532L196.572 181.359L189.929 168.889L163.647 185.741L155.216 212.104L142.998 223.435L138.117 216.014L103.134 217.104L103.258 260.464L149.233 252.102L149.158 268.492L111.931 317.207L111.582 330.96L162.498 278.449L196.422 237.667L225.202 273.229L240.067 264.647L239.927 315.069L263.508 301.364L263.648 251.033L336.314 209.081L336.163 260.329L359.75 246.624L359.895 195.467L369.98 189.645L369.771 115.916Z" fill="#4D2F4A"/>
<path d="M171.761 165.098L181.471 159.453L181.428 174.834L171.719 180.478L171.761 165.098Z" fill="#4D2F4A"/>
<path d="M167.24 156.618L176.949 150.974L181.471 159.453L171.762 165.098L167.24 156.618Z" fill="#7A5876"/>
<path d="M167.24 156.618L171.761 165.098L171.718 180.478L159.565 173.459L167.24 156.618Z" fill="#61415E"/>
<path d="M104.063 120.186L113.773 114.541L121.34 140.174L111.63 145.818L104.063 120.186Z" fill="#4D2F4A"/>
<path d="M104.063 120.186L111.63 145.818L99.4663 138.794L99.5093 123.413L104.063 120.186Z" fill="#61415E"/>
<path d="M51.6489 227.914L58.5874 223.886L55.145 238.043L48.2119 242.07L51.6489 227.914Z" fill="#D9D4B7"/>
<path d="M39.802 221.073L51.6489 227.914L48.2119 242.07L42.9222 239.015L39.802 221.073Z" fill="#F0EDDA"/>
<path d="M88.1938 251.039L95.1323 247.006L91.6953 261.162L84.7568 265.195L88.1938 251.039Z" fill="#D9D4B7"/>
<path d="M76.3469 244.197L88.1938 251.039L84.7568 265.195L79.4671 262.139L76.3469 244.197Z" fill="#F0EDDA"/>
<path d="M103.258 260.464L31.1235 218.548L31 175.183L103.134 217.104L103.258 260.464Z" fill="#61415E"/>
<path d="M51.7347 181.525C56.031 184.007 57.6045 190.381 57.6851 190.719L45.7844 183.851C45.865 183.609 47.4331 179.044 51.7294 181.531L51.7347 181.525Z" fill="#61415E"/>
<path d="M47.8037 181.209L52.4813 178.55C52.4813 178.55 53.362 178.196 54.6348 178.55C56.6379 179.109 60.0427 181.633 61.8525 188.303L57.6905 190.719C57.6905 190.719 56.176 185.183 53.2009 182.6C49.8337 179.678 47.8037 181.209 47.8037 181.209Z" fill="#452A42"/>
<path d="M81.8893 199.081C86.1855 201.562 87.759 207.937 87.8396 208.275L75.939 201.406C76.0195 201.165 77.5877 196.605 81.8839 199.086L81.8893 199.081Z" fill="#61415E"/>
<path d="M77.958 198.764L82.6356 196.106C82.6356 196.106 83.5163 195.751 84.7891 196.106C86.7922 196.664 90.197 199.188 92.0068 205.858L87.8448 208.275C87.8448 208.275 86.3357 202.738 83.3552 200.155C79.988 197.234 77.958 198.764 77.958 198.764Z" fill="#452A42"/>
<path d="M101.314 175.666L93.6555 171.241V158.643L101.314 163.062V175.666Z" fill="#1A1212"/>
<path d="M146.8 201.836L139.142 197.411V184.812L146.8 189.232V201.836Z" fill="#1A1212"/>
</g>
<defs>
<clipPath id="clip0_217_3840">
<rect width="338.98" height="260.976" fill="white" transform="translate(31 70)"/>
</clipPath>
</defs>
</svg>
