<svg width="110" height="107" viewBox="0 0 110 107" fill="none" xmlns="http://www.w3.org/2000/svg">
<g clip-path="url(#clip0_7_239)">
<path d="M28.9448 32.579L38.1381 33.7101L34.3483 35.1346L25.155 34.0036L28.9448 32.579Z" fill="#3C5B06"/>
<path d="M33.571 33.1424L42.7644 34.2734L39.9249 37.9621L30.7316 36.8311L33.571 33.1424Z" fill="#558108"/>
<path d="M28.0636 20.0335L37.257 21.1645L42.7644 34.2734L33.571 33.1424L28.0636 20.0335Z" fill="#609109"/>
<path d="M28.0636 20.0335L33.571 33.1424L30.7316 36.831L28.9448 32.579L25.1551 34.0036L22.4015 27.4504L28.0636 20.0335Z" fill="#3C5A06"/>
<path d="M83.9248 66.5838L76.8961 75.7926L39.1367 71.1477L46.1654 61.9389L83.9248 66.5838Z" fill="#4B7502"/>
<path d="M46.1655 61.9389L39.1368 71.1477L24.3276 35.8966L31.3577 26.6888L46.1655 61.9389Z" fill="#72AB0E"/>
<path d="M83.9248 66.5838L46.1655 61.9389L31.3577 26.6888L69.117 31.3337L83.9248 66.5838Z" fill="#322D30"/>
<path d="M78.0318 34.0285L68.1104 32.8071L64.2204 23.5471L74.1418 24.7684L78.0318 34.0285Z" fill="#A9532C"/>
<path d="M81.9246 43.2906L72.0033 42.0693L68.1133 32.8093L78.0346 34.0306L81.9246 43.2906Z" fill="#9B2C14"/>
<path d="M68.1359 32.8265L58.2159 31.6062L54.3259 22.3462L64.2459 23.5664L68.1359 32.8265Z" fill="#9B2C14"/>
<path d="M71.9891 42.0586L62.0691 40.8383L58.1777 31.5772L68.0991 32.7985L71.9891 42.0586Z" fill="#A9532C"/>
<path d="M44.314 23.5816L54.3103 22.3344L62.0903 40.8545L55.331 49.8055L44.314 23.5816Z" fill="#B5602E"/>
<path d="M81.9317 43.296L83.4259 53.261L55.331 49.8055L62.0904 40.8545L81.9317 43.296Z" fill="#A53A1E"/>
<path d="M31.3365 26.6727L44.314 23.5816L55.331 49.8055L46.145 61.91L31.3365 26.6727Z" fill="#A54721"/>
<path d="M83.9457 66.5416L83.4259 53.261L55.331 49.8055L46.145 61.9099L83.9457 66.5416Z" fill="#922A14"/>
<path d="M57.7289 59.8379L52.1975 59.1413L55.1179 55.2931L60.6493 55.9896L57.7289 59.8379ZM71.6126 57.3697L66.0812 56.6732L63.1608 60.5215L68.6922 61.218L71.6126 57.3697ZM82.5759 58.7499L77.0445 58.0533L74.1241 61.9016L79.6555 62.5981L82.5759 58.7499Z" fill="#A53A1E"/>
<path d="M66.864 48.5767L61.3326 47.8802L64.2531 44.0319L69.7845 44.7285L66.864 48.5767ZM80.7492 46.1097L75.2178 45.4131L72.2974 49.2614L77.8288 49.9579L80.7492 46.1097Z" fill="#922A14"/>
<path d="M56.2533 34.4599L58.4127 39.5998L55.4923 43.448L53.3329 38.3081L56.2533 34.4599ZM49.0535 28.1206L51.2128 33.2605L54.1332 29.4123L51.9739 24.2724L49.0535 28.1206Z" fill="#A54721"/>
<path d="M47.9452 46.3485L50.1046 51.4884L47.1842 55.3367L45.0248 50.1968L47.9452 46.3485ZM40.7439 40.0082L42.9033 45.1481L45.8237 41.2998L43.6643 36.1599L40.7439 40.0082ZM36.4645 29.8207L38.6238 34.9606L41.5443 31.1123L39.3849 25.9724L36.4645 29.8207Z" fill="#B5602E"/>
<path d="M33.3674 49.9311L27.7993 36.5729L34.0601 37.3609L39.6258 50.7194L33.3674 49.9311Z" fill="#609109"/>
<path d="M18.5572 53.5026L12.9905 40.1455L14.9271 37.5759L20.4942 50.9355L18.5572 53.5026Z" fill="#3B5A06"/>
<path d="M20.4941 50.9354L14.927 37.5758L17.427 37.8832L22.9938 51.2403L20.4941 50.9354Z" fill="#C23030"/>
<path d="M22.9938 51.2403L17.427 37.8832L18.9707 35.7991L24.5389 49.1573L22.9938 51.2403Z" fill="#8C1919"/>
<path d="M20.3445 48.6247L14.7763 35.2665L20.7859 27.3006L26.353 40.6602L20.3445 48.6247Z" fill="#3B5A06"/>
<path d="M26.353 40.6602L20.7859 27.3006L33.5957 28.9142L39.1625 42.2713L26.353 40.6602Z" fill="#609109"/>
<path d="M39.1625 42.2713L33.3674 49.9311L39.6258 50.7194L35.8808 55.6836L18.5572 53.5026L20.4942 50.9355L22.9938 51.2404L24.5389 49.1573L20.3446 48.6247L26.3531 40.6602L39.1625 42.2713Z" fill="#568209"/>
<path d="M29.7747 48.5087L27.1575 48.1793L29.1639 45.5354L31.7811 45.8648L29.7747 48.5087Z" fill="#1B1C18"/>
<path d="M28.6043 44.7088L28.1834 43.6993L29.0236 42.5863L29.4445 43.5958L28.6043 44.7088Z" fill="#3B5A06"/>
<path d="M29.4445 43.5958L29.0236 42.5863L34.2025 43.2387L34.6235 44.2481L29.4445 43.5958Z" fill="#72AB0E"/>
<path d="M34.6234 44.2481L33.7846 45.3622L28.6043 44.7088L29.4445 43.5958L34.6234 44.2481Z" fill="#609109"/>
<path d="M18.1451 38.6247C17.7838 39.1007 17.2726 38.9718 17.0065 38.3345C16.7394 37.6986 16.8152 36.796 17.1776 36.3185C17.54 35.841 18.0501 35.9714 18.3162 36.6087C18.5833 37.2446 18.5075 38.1472 18.1451 38.6247Z" fill="#2B3D0B"/>
<path d="M19.7208 42.3727C19.3595 42.8487 18.8482 42.7198 18.5822 42.0825C18.3151 41.4466 18.3909 40.544 18.7533 40.0665C19.1157 39.589 19.6258 39.7194 19.8919 40.3567C20.159 40.9926 20.0831 41.8952 19.7208 42.3727Z" fill="#2B3D0B"/>
<path d="M75.1876 83.0303L84.381 84.1613L78.7189 91.5782L69.5256 90.4471L75.1876 83.0303Z" fill="#568208"/>
<path d="M69.6781 69.9153L78.8715 71.0463L84.381 84.1613L75.1876 83.0303L69.6781 69.9153Z" fill="#609109"/>
<path d="M75.1876 83.0303L69.5256 90.4471L65.8252 81.6369L68.6422 77.8955L66.8555 73.6435L69.6781 69.9153L75.1876 83.0303Z" fill="#3C5A06"/>
<path d="M63.9192 85.3128L63.0293 83.1749L66.0293 81.3386L66.9217 83.4761L63.9192 85.3128Z" fill="#95693B"/>
<path d="M66.9218 83.4761L66.0294 81.3386L68.4215 80.8384L69.3125 82.9749L66.9218 83.4761Z" fill="#B57F47"/>
<path d="M69.3125 82.9749L67.9834 84.7351L63.9192 85.3128L66.9218 83.4761L69.3125 82.9749Z" fill="#AC7943"/>
<path d="M65.5511 88.9337L64.6601 86.7973L67.6612 84.9595L68.5526 87.0985L65.5511 88.9337Z" fill="#95693B"/>
<path d="M68.5526 87.0985L67.6613 84.9595L70.0566 84.4551L70.9465 86.593L68.5526 87.0985Z" fill="#B57F47"/>
<path d="M70.9466 86.5931L69.6154 88.3561L65.5512 88.9338L68.5527 87.0985L70.9466 86.5931Z" fill="#AC7943"/>
<path d="M50.5761 79.8535L59.7694 80.9845L54.1073 88.4014L44.914 87.2704L50.5761 79.8535Z" fill="#568208"/>
<path d="M45.0665 66.7386L54.2588 67.871L59.7694 80.9845L50.5761 79.8535L45.0665 66.7386Z" fill="#609109"/>
<path d="M50.5761 79.8535L44.914 87.2704L41.214 78.4627L44.0296 74.7202L42.2439 70.4668L45.0665 66.7386L50.5761 79.8535Z" fill="#3C5A06"/>
<path d="M39.3077 82.136L38.4167 79.9996L41.4178 78.1618L42.3092 80.3008L39.3077 82.136Z" fill="#95693B"/>
<path d="M42.3091 80.3008L41.4178 78.1618L43.8099 77.6617L44.6998 79.7996L42.3091 80.3008Z" fill="#B57F47"/>
<path d="M44.6998 79.7996L43.3732 81.5594L39.3076 82.136L42.3091 80.3008L44.6998 79.7996Z" fill="#AC7943"/>
<path d="M40.9386 85.7584L40.0487 83.6205L43.0487 81.7842L43.9411 83.9218L40.9386 85.7584Z" fill="#95693B"/>
<path d="M43.9411 83.9218L43.0487 81.7842L45.4441 81.2798L46.3351 83.4163L43.9411 83.9218Z" fill="#B57F47"/>
<path d="M46.335 83.4163L45.0042 85.1818L40.9386 85.7584L43.9411 83.9218L46.335 83.4163Z" fill="#AC7943"/>
</g>
<defs>
<clipPath id="clip0_7_239">
<rect width="85.0326" height="68.656" fill="white" transform="translate(41.5042) rotate(37.1946)"/>
</clipPath>
</defs>
</svg>
