<svg width="400" height="400" viewBox="0 0 400 400" fill="none" xmlns="http://www.w3.org/2000/svg">
  <style type="text/css">
    @keyframes step1 {
      0% {
        opacity: 0;
      }

      50% {
        opacity: 0;
      }

      51% {
        opacity: 1;
      }

      100% {
        opacity: 1;
      }
    }

    @keyframes step2 {
      0% {
        opacity: 0;
      }

      49% {
        opacity: 0;
      }

      50% {
        opacity: 1;
      }

      100% {
        opacity: 1;
      }
    }

    #step1 {
      animation: step1 2s infinite;
    }

    #step2 {
      animation: step2 2s infinite reverse;
    }
  </style>
  <g clip-path="url(#clip0_132_1371)" id="step1">
    <path d="M323.733 104.784L318.542 101.756L324.009 87.5142L329.199 90.5422L323.733 104.784Z" fill="#F78D1C" />
    <path d="M300.116 125.881L294.926 122.859L318.542 101.756L323.733 104.784L300.116 125.881Z" fill="#FFAF24" />
    <path d="M329.199 90.5422L324.009 87.5142L312.929 77.4382L318.125 80.461L329.199 90.5422Z" fill="#FFAF24" />
    <path d="M318.125 80.461L312.929 77.4382L314.45 73.4704L319.64 76.4984L318.125 80.461Z" fill="#A87C4A" />
    <path d="M273.97 123.798L268.779 120.776L294.926 122.859L300.116 125.881L273.97 123.798Z" fill="#F78D1C" />
    <path d="M270.789 132.078L265.598 129.056L268.779 120.776L273.97 123.798L270.789 132.078Z" fill="#A87C4A" />
    <path
      d="M319.64 76.4985L333 88.7254L326.044 107.52L298.372 134.282L270.789 132.078L273.97 123.798L300.116 125.881L323.733 104.784L329.199 90.5423L318.125 80.461L319.64 76.4985Z"
      fill="#E87510" />
    <path d="M312.612 67.0228L307.421 64L313.164 64.4594L318.354 67.4822L312.612 67.0228Z" fill="#C44514" />
    <path d="M312.898 76.7021L307.707 73.674L307.421 64L312.612 67.0228L312.898 76.7021Z" fill="#D6571C" />
    <path d="M304.662 78.1221L299.471 75.0993L307.707 73.674L312.898 76.702L304.662 78.1221Z" fill="#C44514" />
    <path d="M308.827 88.5009L303.636 85.4781L299.471 75.0993L304.662 78.1221L308.827 88.5009Z" fill="#C44514" />
    <path
      d="M312.612 67.0228L318.354 67.4823L323.332 79.8972L321.837 83.8023L308.827 88.5009L304.662 78.1221L312.898 76.7021L312.612 67.0228Z"
      fill="#B33510" />
    <path d="M189.564 327L174.855 318.428L167.379 309.594L182.087 318.167L189.564 327Z" fill="#C9510B" />
    <path d="M182.087 318.167L167.379 309.594L183.972 299.988L198.68 308.56L182.087 318.167Z" fill="#F78D1C" />
    <path d="M198.68 308.56L183.972 299.988L180.13 249.712L194.838 258.279L198.68 308.56Z" fill="#C9510B" />
    <path d="M194.838 258.279L180.13 249.712L198.269 239.208L212.977 247.78L194.838 258.279Z" fill="#D89F5F" />
    <path
      d="M212.977 247.781L213.159 313.337L189.564 327L182.087 318.167L198.68 308.56L194.838 258.279L212.977 247.781Z"
      fill="#E87510" />
    <path d="M152.947 305.741L138.239 297.169L130.768 288.335L145.476 296.908L152.947 305.741Z" fill="#BD3E08" />
    <path d="M145.476 296.908L130.768 288.335L147.355 278.729L162.063 287.301L145.476 296.908Z" fill="#E87510" />
    <path d="M162.063 287.302L147.355 278.729L143.518 228.448L158.226 237.021L162.063 287.302Z" fill="#E87510" />
    <path d="M158.226 237.021L143.518 228.448L161.652 217.949L176.36 226.522L158.226 237.021Z" fill="#D89F5F" />
    <path
      d="M176.36 226.522L176.548 292.078L152.947 305.741L145.476 296.908L162.063 287.301L158.226 237.021L176.36 226.522Z"
      fill="#C9510B" />
    <path d="M288.917 268.904L274.209 260.336L266.738 251.498L281.446 260.07L288.917 268.904Z" fill="#C9510B" />
    <path d="M281.446 260.07L266.738 251.498L283.336 241.891L298.044 250.459L281.446 260.07Z" fill="#F78D1C" />
    <path d="M298.044 250.459L283.336 241.891L279.489 191.616L294.197 200.188L298.044 250.459Z" fill="#C9510B" />
    <path d="M294.197 200.188L279.489 191.616L297.633 181.112L312.341 189.684L294.197 200.188Z" fill="#D89F5F" />
    <path
      d="M312.341 189.684L312.528 255.236L288.917 268.904L281.446 260.07L298.044 250.459L294.197 200.188L312.341 189.684Z"
      fill="#E87510" />
    <path d="M252.306 247.645L237.598 239.072L230.121 230.234L244.83 238.801L252.306 247.645Z" fill="#BD3E08" />
    <path d="M244.83 238.801L230.121 230.234L246.725 220.622L261.433 229.189L244.83 238.801Z" fill="#F78D1C" />
    <path d="M261.433 229.189L246.725 220.622L242.877 170.357L257.585 178.929L261.433 229.189Z" fill="#BD3E08" />
    <path d="M257.585 178.929L242.877 170.357L261.021 159.853L275.73 168.425L257.585 178.929Z" fill="#D89F5F" />
    <path
      d="M275.73 168.425L275.912 233.977L252.306 247.645L244.83 238.801L261.433 229.189L257.585 178.929L275.73 168.425Z"
      fill="#C9510B" />
    <path d="M241.716 157.874L200.185 133.676L246.928 106.612L288.459 130.81L241.716 157.874Z" fill="#FFAF24" />
    <path d="M177.433 157.592L135.906 133.394L200.185 133.676L241.716 157.874L177.433 157.592Z" fill="#F78D1C" />
    <path d="M160.595 174.68L119.069 150.476L135.906 133.394L177.433 157.592L160.595 174.68Z" fill="#D19A5C" />
    <path
      d="M177.433 157.592L241.716 157.874L288.459 130.81L312.164 149.38L312.32 205.19L289.985 217.949L263.354 208.928L195.863 261.046L163.901 246.126L160.595 174.68L177.433 157.592Z"
      fill="#E87510" />
    <path d="M109.666 116.63L116.591 112.595L116.528 133.237L109.609 137.273L109.666 116.63Z" fill="#C28F55" />
    <path d="M96.8896 109.452L103.814 105.416L116.591 112.595L109.666 116.63L96.8896 109.452Z" fill="#FFAF24" />
    <path d="M109.666 116.63L109.609 137.273L99.0711 119.549L96.8896 109.452L109.666 116.63Z" fill="#F78D1C" />
    <path d="M173.096 200.277L214.622 176.074L203.085 238.832L161.558 263.03L173.096 200.277Z" fill="#732107" />
    <path d="M151.911 160.223L193.437 136.02L214.622 176.074L173.096 200.277L151.911 160.223Z" fill="#85260B" />
    <path d="M88.5646 123.548L130.096 99.3496L193.437 136.02L151.911 160.223L88.5646 123.548Z" fill="#A64214" />
    <path
      d="M151.911 160.223L173.096 200.277L161.558 263.03L119.251 273.743L79.8178 217.798L66 138.275L88.5646 123.548L151.911 160.223Z"
      fill="#98350E" />
    <path d="M115.981 236.535L75.3195 212.843L75.4444 176.992L116.112 200.689L115.981 236.535Z" fill="#FFAF24" />
    <path d="M109.963 189.303L69.3008 165.606L95.9993 150.247L136.666 173.944L109.963 189.303Z" fill="#FFAF24" />
    <path d="M116.112 200.689L75.4444 176.993L69.3008 165.606L109.963 189.303L116.112 200.689Z" fill="#E87510" />
    <path d="M109.963 189.303L136.667 173.944L136.807 224.329L115.981 236.535L116.112 200.689L109.963 189.303Z"
      fill="#F78818" />
    <path d="M85.2793 190.029L76.7096 185.106V179.311L85.2793 184.234V190.029Z" fill="#302B26" />
    <path d="M113.113 206.051L104.543 201.128V195.328L113.113 200.251V206.051Z" fill="#302B26" />
    <path d="M102.419 208.797L102.362 228.866L82.6396 236.258L82.6969 216.19L102.419 208.797Z" fill="#C9510B" />
    <path d="M82.6969 216.19L82.6397 236.258L71.852 230.014L71.9093 209.951L82.6969 216.19Z" fill="#FFAF24" />
    <path d="M99.8416 207.174L80.1198 214.571L69.3321 208.327L82.0045 196.847L99.8416 207.174Z" fill="#D89F5F" />
    <path d="M109.619 206.088L109.562 226.156L87.6691 231.523L87.7263 211.455L109.619 206.088Z" fill="#E87510" />
    <path d="M87.669 211.455L87.6118 231.523L68.1763 220.267L68.2596 200.183L87.669 211.455Z" fill="#FFAF24" />
    <path d="M109.619 206.088L87.7263 211.455L68.2596 200.183L77.4229 187.45L109.619 206.088Z" fill="#F78818" />
    <path d="M71.4407 201.995L88.1636 184.479L102.835 193.025L83.5612 209.084L71.4407 201.995Z" fill="#FFAF24" />
    <path d="M83.5612 209.084L77.5009 214.853L71.4407 201.995L83.5612 209.084Z" fill="#453726" />
    <path d="M83.5612 209.084L102.835 202.297V193.025L83.5612 209.084Z" fill="#C9510B" />
    <path d="M168.915 150.32L175.834 146.289L188.611 153.891L181.691 157.926L168.915 150.32Z" fill="#FFAF24" />
    <path d="M181.692 157.926L188.611 153.891L186.393 161.445L179.468 165.481L181.692 157.926Z" fill="#E87510" />
    <path d="M168.915 150.32L181.692 157.926L179.468 165.481L168.858 170.957L168.915 150.32Z" fill="#F78D1C" />
  </g>
  <defs>
    <clipPath id="clip0_132_1371">
      <rect width="267" height="263" fill="white" transform="translate(66 64)" />
    </clipPath>
  </defs>
  <g id="step2">
    <path d="M323.733 104.784L318.542 101.756L324.009 87.5142L329.199 90.5422L323.733 104.784Z" fill="#F78D1C" />
    <path d="M300.116 125.881L294.926 122.859L318.542 101.756L323.733 104.784L300.116 125.881Z" fill="#FFAF24" />
    <path d="M329.199 90.5422L324.009 87.5142L312.929 77.4382L318.125 80.461L329.199 90.5422Z" fill="#FFAF24" />
    <path d="M318.125 80.461L312.929 77.4382L314.45 73.4704L319.64 76.4984L318.125 80.461Z" fill="#A87C4A" />
    <path d="M273.97 123.798L268.779 120.776L294.926 122.859L300.116 125.881L273.97 123.798Z" fill="#F78D1C" />
    <path d="M270.789 132.078L265.598 129.056L268.779 120.776L273.97 123.798L270.789 132.078Z" fill="#A87C4A" />
    <path
      d="M319.64 76.4985L333 88.7254L326.044 107.52L298.372 134.282L270.789 132.078L273.97 123.798L300.116 125.881L323.733 104.784L329.199 90.5423L318.125 80.461L319.64 76.4985Z"
      fill="#E87510" />
    <path d="M312.612 67.0228L307.421 64L313.164 64.4594L318.354 67.4822L312.612 67.0228Z" fill="#C44514" />
    <path d="M312.898 76.7021L307.707 73.674L307.421 64L312.612 67.0228L312.898 76.7021Z" fill="#D6571C" />
    <path d="M304.662 78.1221L299.471 75.0993L307.707 73.674L312.898 76.702L304.662 78.1221Z" fill="#C44514" />
    <path d="M308.827 88.5009L303.636 85.4781L299.471 75.0993L304.662 78.1221L308.827 88.5009Z" fill="#C44514" />
    <path
      d="M312.612 67.0228L318.354 67.4823L323.332 79.8972L321.837 83.8023L308.827 88.5009L304.662 78.1221L312.898 76.7021L312.612 67.0228Z"
      fill="#B33510" />
    <path d="M189.564 327L174.855 318.427L167.379 309.594L182.087 318.166L189.564 327Z" fill="#C9510B" />
    <path d="M182.087 318.166L167.379 309.594L183.972 299.988L198.68 308.56L182.087 318.166Z" fill="#F78D1C" />
    <path d="M198.68 308.56L183.972 299.988L180.13 249.712L194.838 258.279L198.68 308.56Z" fill="#C9510B" />
    <path d="M194.838 258.279L180.13 249.712L198.269 239.208L212.977 247.78L194.838 258.279Z" fill="#D89F5F" />
    <path
      d="M212.977 247.781L213.159 313.337L189.564 327L182.087 318.167L198.68 308.56L194.838 258.279L212.977 247.781Z"
      fill="#E87510" />
    <path d="M152.947 305.741L138.239 297.169L130.768 288.335L145.476 296.908L152.947 305.741Z" fill="#BD3E08" />
    <path d="M145.476 296.908L130.768 288.335L147.355 278.729L162.063 287.301L145.476 296.908Z" fill="#E87510" />
    <path d="M162.063 287.302L147.355 278.729L143.518 228.448L158.226 237.021L162.063 287.302Z" fill="#E87510" />
    <path d="M158.226 237.021L143.518 228.448L161.652 217.949L176.36 226.522L158.226 237.021Z" fill="#D89F5F" />
    <path
      d="M176.36 226.522L176.548 292.078L152.947 305.741L145.476 296.908L162.063 287.301L158.226 237.021L176.36 226.522Z"
      fill="#C9510B" />
    <path d="M288.917 268.904L274.209 260.336L266.738 251.498L281.446 260.07L288.917 268.904Z" fill="#C9510B" />
    <path d="M281.446 260.07L266.738 251.498L283.336 241.891L298.044 250.459L281.446 260.07Z" fill="#F78D1C" />
    <path d="M298.044 250.459L283.336 241.891L279.489 191.616L294.197 200.188L298.044 250.459Z" fill="#C9510B" />
    <path d="M294.197 200.188L279.489 191.616L297.633 181.112L312.341 189.684L294.197 200.188Z" fill="#D89F5F" />
    <path
      d="M312.341 189.684L312.528 255.236L288.917 268.904L281.446 260.07L298.044 250.459L294.197 200.188L312.341 189.684Z"
      fill="#E87510" />
    <path d="M252.306 247.645L237.598 239.072L230.121 230.234L244.83 238.801L252.306 247.645Z" fill="#BD3E08" />
    <path d="M244.83 238.801L230.121 230.234L246.725 220.622L261.433 229.189L244.83 238.801Z" fill="#F78D1C" />
    <path d="M261.433 229.189L246.725 220.622L242.877 170.357L257.585 178.929L261.433 229.189Z" fill="#BD3E08" />
    <path d="M257.585 178.929L242.877 170.357L261.021 159.853L275.73 168.425L257.585 178.929Z" fill="#D89F5F" />
    <path
      d="M275.73 168.425L275.912 233.977L252.306 247.645L244.83 238.801L261.433 229.189L257.585 178.929L275.73 168.425Z"
      fill="#C9510B" />
    <path d="M241.716 157.874L200.185 133.676L246.928 106.612L288.459 130.81L241.716 157.874Z" fill="#FFAF24" />
    <path d="M177.433 157.592L135.906 133.394L200.185 133.676L241.716 157.874L177.433 157.592Z" fill="#F78D1C" />
    <path d="M160.595 174.68L119.069 150.476L135.906 133.394L177.433 157.592L160.595 174.68Z" fill="#D19A5C" />
    <path
      d="M177.433 157.592L241.716 157.874L288.459 130.81L312.164 149.38L312.32 205.19L289.985 217.949L263.354 208.928L195.863 261.046L163.901 246.126L160.595 174.68L177.433 157.592Z"
      fill="#E87510" />
    <path d="M109.666 116.63L116.591 112.595L116.528 133.237L109.609 137.273L109.666 116.63Z" fill="#C28F55" />
    <path d="M96.8896 109.452L103.814 105.416L116.591 112.595L109.666 116.63L96.8896 109.452Z" fill="#FFAF24" />
    <path d="M109.666 116.63L109.609 137.273L99.0711 119.549L96.8896 109.452L109.666 116.63Z" fill="#F78D1C" />
    <path d="M173.096 200.277L214.622 176.074L203.085 238.832L161.558 263.03L173.096 200.277Z" fill="#732107" />
    <path d="M151.911 160.223L193.437 136.02L214.622 176.074L173.096 200.277L151.911 160.223Z" fill="#85260B" />
    <path d="M88.5645 123.548L130.096 99.3496L193.437 136.02L151.911 160.223L88.5645 123.548Z" fill="#A64214" />
    <path
      d="M151.911 160.223L173.096 200.277L161.558 263.03L119.251 273.743L79.8178 217.798L66 138.275L88.5646 123.548L151.911 160.223Z"
      fill="#98350E" />
    <path d="M115.981 236.535L75.3195 212.843L75.4444 176.992L116.112 200.689L115.981 236.535Z" fill="#FFAF24" />
    <path d="M109.963 189.303L69.3008 165.606L95.9993 150.247L136.666 173.944L109.963 189.303Z" fill="#FFAF24" />
    <path d="M116.112 200.689L75.4444 176.993L69.3008 165.606L109.963 189.303L116.112 200.689Z" fill="#E87510" />
    <path d="M109.963 189.303L136.667 173.944L136.807 224.329L115.981 236.535L116.112 200.689L109.963 189.303Z"
      fill="#F78818" />
    <path d="M85.2793 190.029L76.7096 185.106V179.311L85.2793 184.234V190.029Z" fill="#302B26" />
    <path d="M113.113 206.051L104.543 201.128V195.328L113.113 200.251V206.051Z" fill="#302B26" />
    <path d="M102.419 217.797L102.362 237.866L83 245V225L102.419 217.797Z" fill="#C9510B" />
    <path d="M89 230L83 237L72 231L77 224L89 230Z" fill="#D1321C" />
    <path d="M99.8416 207.174L80.1198 214.571L69.3321 208.327L82.0045 196.847L99.8416 207.174Z" fill="#D89F5F" />
    <path d="M109.619 206.088L109.562 226.156L87.6691 231.523L87.7263 211.455L109.619 206.088Z" fill="#E87510" />
    <path d="M87.7524 211.455L87.6951 231.523L68.2596 220.267L68.2596 200.16L87.7524 211.455Z" fill="#FFAF24" />
    <path d="M109.619 206.088L87.7263 211.455L68.2596 200.183L77.4229 187.45L109.619 206.088Z" fill="#F78818" />
    <path d="M71.4407 201.995L88.1636 184.479L102.835 193.025L83.5612 209.084L71.4407 201.995Z" fill="#FFAF24" />
    <path d="M83.5612 209.084L77.5009 214.853L71.4407 201.995L83.5612 209.084Z" fill="#453726" />
    <path d="M83 237L81 236L82.5 233L83 237Z" fill="white" />
    <path d="M74 232.5L72 231L73.5 228L74 232.5Z" fill="white" />
    <path d="M83.5612 209.084L102.835 202.297V193.025L83.5612 209.084Z" fill="#C9510B" />
    <path d="M168.915 150.32L175.834 146.289L188.611 153.891L181.691 157.926L168.915 150.32Z" fill="#FFAF24" />
    <path d="M181.691 157.926L188.611 153.891L186.393 161.445L179.468 165.481L181.691 157.926Z" fill="#E87510" />
    <path d="M168.915 150.32L181.691 157.926L179.468 165.481L168.858 170.957L168.915 150.32Z" fill="#F78D1C" />
    <path d="M83 237V245L72 239V231L83 237Z" fill="#FFAF24" />
  </g>
</svg>