<svg width="196" height="194" viewBox="0 0 196 194" fill="none" xmlns="http://www.w3.org/2000/svg">
<g clip-path="url(#clip0_7_187)">
<path d="M117.406 11.9151L113.26 12.421L111.908 6.29647L116.057 5.78861L117.406 11.9151Z" fill="#421703"/>
<path d="M116.057 5.7886L111.908 6.29647L113.119 3.43814L117.265 2.93225L116.057 5.7886Z" fill="#5E2203"/>
<path d="M114.968 17.5087L110.822 18.0146L113.26 12.421L117.406 11.9151L114.968 17.5087Z" fill="#5E2203"/>
<path d="M115.309 21.863L111.163 22.369L99.4589 20.0089L103.605 19.503L115.309 21.863Z" fill="#421703"/>
<path d="M93.6367 36.3725L89.4905 36.8784L98.3647 15.4201L102.511 14.9142L93.6367 36.3725Z" fill="#421703"/>
<path d="M94.1799 65.4333L90.0337 65.9392L89.4905 36.8784L93.6367 36.3726L94.1799 65.4333Z" fill="#421703"/>
<path d="M97.431 65.4735L93.2822 65.9813L90.0338 65.9392L94.1799 65.4333L97.431 65.4735Z" fill="#542125"/>
<path d="M102.511 14.9142L114.968 17.5087L117.406 11.9151L116.057 5.78862L117.265 2.93226L119.444 12.0969L115.309 21.8631L103.605 19.503L96.279 36.8076L97.431 65.4735L94.1799 65.4333L93.6367 36.3726L102.511 14.9142Z" fill="#1F0902"/>
<path d="M93.5039 170.966L85.8005 171.908L79.7759 163.981L87.4767 163.041L93.5039 170.966Z" fill="#421703"/>
<path d="M87.4767 163.041L79.7759 163.981L70.4508 137.388L78.1535 136.45L87.4767 163.041Z" fill="#5E2203"/>
<path d="M78.1535 136.45L70.4508 137.388L53.3475 122.278L61.0483 121.338L78.1535 136.45Z" fill="#421703"/>
<path d="M61.0483 121.338L53.3475 122.278L60.3184 105.818L68.0192 104.877L61.0483 121.338Z" fill="#903940"/>
<path d="M68.0192 104.877L85.1906 127.458L92.5262 157.085L98.8198 158.409L93.5039 170.966L87.4767 163.041L78.1535 136.45L61.0483 121.338L68.0192 104.877Z" fill="#1F0902"/>
<path d="M113.093 168.515L105.392 169.456L99.3671 161.534L107.068 160.594L113.093 168.515Z" fill="#421703"/>
<path d="M107.068 160.594L99.3672 161.534L90.0421 134.94L97.7455 133.998L107.068 160.594Z" fill="#5E2203"/>
<path d="M97.7454 133.998L90.042 134.94L72.9387 119.831L80.6421 118.889L97.7454 133.998Z" fill="#421703"/>
<path d="M80.6422 118.889L72.9387 119.831L79.9103 103.365L87.6111 102.425L80.6422 118.889Z" fill="#903940"/>
<path d="M87.6111 102.425L104.784 125.008L112.12 154.636L118.411 155.961L113.093 168.515L107.068 160.594L97.7454 133.998L80.6421 118.889L87.6111 102.425Z" fill="#300F02"/>
<path d="M113.981 116.546L106.28 117.486L107.405 107.453L115.106 106.513L113.981 116.546Z" fill="#5E2203"/>
<path d="M116.722 121.233L109.017 122.172L106.28 117.486L113.981 116.546L116.722 121.233Z" fill="#5E2203"/>
<path d="M115.106 106.513L107.405 107.453L96.8864 104.385L104.587 103.444L115.106 106.513Z" fill="#1F0902"/>
<path d="M93.5001 81.5869L85.7967 82.529L94.1253 70.3028L101.826 69.3627L93.5001 81.5869Z" fill="#8C373E"/>
<path d="M104.587 103.444L96.8864 104.385L85.7967 82.529L93.5001 81.5869L104.587 103.444Z" fill="#5E2203"/>
<path d="M93.5001 81.5869L101.826 69.3627L108.339 90.0459L119.136 99.3601L123.514 105.189L116.722 121.233L113.981 116.546L115.106 106.513L104.587 103.444L93.5001 81.5869Z" fill="#1F0902"/>
<path d="M132.861 113.661L125.16 114.601L126.286 104.575L133.987 103.635L132.861 113.661Z" fill="#5E2203"/>
<path d="M135.597 118.351L127.896 119.291L125.16 114.601L132.861 113.661L135.597 118.351Z" fill="#5E2203"/>
<path d="M133.987 103.634L126.286 104.575L115.767 101.499L123.47 100.557L133.987 103.634Z" fill="#1F0902"/>
<path d="M123.47 100.557L115.767 101.499L104.679 79.6416L111.301 76.5708L123.47 100.557Z" fill="#5E2203"/>
<path d="M111.301 76.5708L120.762 66.7781L127.222 87.1585L138.014 96.4767L142.391 102.306L135.597 118.351L132.861 113.661L133.987 103.635L123.47 100.557L111.301 76.5708Z" fill="#300F02"/>
<path d="M78.5814 72.5355L50.1445 76.009L77.6157 57.4707L106.055 53.9998L78.5814 72.5355Z" fill="#421703"/>
<path d="M85.0694 122.631L57.5485 125.992L49.1326 120.812L80.8444 117.075L85.0694 122.631Z" fill="#421703"/>
<path d="M63.2678 96.8781L34.8334 100.35L50.1444 76.009L78.5814 72.5355L63.2678 96.8781Z" fill="#421703"/>
<path d="M78.7629 117.322L49.1326 120.812L34.8335 100.35L63.2678 96.8781L78.7629 117.322Z" fill="#5E2203"/>
<path d="M63.2678 96.8781L78.5814 72.5354L106.055 53.9998L120.762 66.7781L97.3124 94.2427L85.8 123.446L78.7629 117.322L63.2678 96.8781Z" fill="#300F02"/>
<path d="M12.4332 84.3588L14.2836 79.9562L22.241 78.9608L20.3907 83.3635L12.4332 84.3588Z" fill="#FFAB73"/>
<path d="M27.424 85.5523L29.2718 81.1516L35.8019 89.8387L33.9516 94.2413L27.424 85.5523Z" fill="#C28F55"/>
<path d="M20.3906 83.3635L22.241 78.9609L29.2717 81.1516L27.424 85.5523L20.3906 83.3635Z" fill="#FAB86E"/>
<path d="M20.3906 83.3635L27.424 85.5523L33.9515 94.2413L21.0701 95.8489L12.4332 84.3588L20.3906 83.3635Z" fill="#E69164"/>
<path d="M43.3092 87.8532L52.0924 66.9451L68.0161 88.134L59.2328 109.042L43.3092 87.8532Z" fill="#300F02"/>
<path d="M12.6378 91.6852L21.4237 70.7752L52.0924 66.9451L43.3091 87.8532L12.6378 91.6852Z" fill="#5E2203"/>
<path d="M43.3092 87.8532L59.2328 109.042L28.5634 112.877L12.6378 91.6852L43.3092 87.8532Z" fill="#421703"/>
<path d="M48.6063 82.9224L50.4541 78.5217L53.2746 75.0998L51.4243 79.5024L48.6063 82.9224Z" fill="#CF6B45"/>
<path d="M59.3863 78.5077L61.234 74.1071L69.8709 85.5972L68.0206 89.9999L59.3863 78.5077Z" fill="#CF6B45"/>
<path d="M51.4243 79.5024L53.2746 75.0998L61.234 74.1071L59.3862 78.5077L51.4243 79.5024Z" fill="#FFAB73"/>
<path d="M59.3862 78.5077L68.0205 89.9998L55.1338 91.6114L48.6063 82.9224L51.4243 79.5024L59.3862 78.5077Z" fill="#E69164"/>
<path d="M48.0409 124.796L30.2704 126.965L24.3256 119.149L42.0987 116.978L48.0409 124.796Z" fill="#D9825D"/>
<path d="M42.0987 116.978L24.3256 119.149L22.3321 109.976L40.1071 107.807L42.0987 116.978Z" fill="#E69164"/>
<path d="M40.1071 107.807L22.3321 109.976L25.89 101.576L43.6631 99.4052L40.1071 107.807Z" fill="#FFAB73"/>
<path d="M43.6631 99.4052L53.3807 112.184L48.0409 124.796L42.0987 116.978L40.1071 107.807L43.6631 99.4052Z" fill="#CF6B45"/>
<path d="M38.0549 95.4738L39.0092 93.2056L43.6991 99.4474L42.7474 101.714L38.0549 95.4738Z" fill="#CF6B45"/>
<path d="M20.2012 97.7057L21.1529 95.4394L39.0092 93.2056L38.0549 95.4738L20.2012 97.7057Z" fill="#FFAB73"/>
<path d="M38.0549 95.4738L42.7474 101.714L24.8891 103.945L20.2012 97.7057L38.0549 95.4738Z" fill="#E69164"/>
<path d="M32.5666 114.409L34.1867 110.556L35.5896 114.234L33.9721 118.085L32.5666 114.409Z" fill="#361C0B"/>
<path d="M26.9416 115.111L28.5616 111.258L34.1867 110.556L32.5666 114.409L26.9416 115.111Z" fill="#613113"/>
<path d="M32.5667 114.409L33.9722 118.085L30.8326 118.479L26.9416 115.111L32.5667 114.409Z" fill="#291408"/>
<path d="M41.4461 123.231L31.8099 124.471L30.7831 123.112L40.4193 121.872L41.4461 123.231Z" fill="#82442A"/>
<path d="M29.1083 102.6L26.426 102.934L23.9836 99.7032L26.6659 99.3693L29.1083 102.6Z" fill="#241B17"/>
<path d="M39.8775 101.226L37.1972 101.563L34.7548 98.3317L37.4351 97.9953L39.8775 101.226Z" fill="#241B17"/>
</g>
<defs>
<clipPath id="clip0_7_187">
<rect width="144.222" height="133.249" fill="white" transform="translate(0 86.9703) rotate(-37.0872)"/>
</clipPath>
</defs>
</svg>
