<svg width="168" height="175" viewBox="0 0 168 175" fill="none" xmlns="http://www.w3.org/2000/svg">
<g clip-path="url(#clip0_7_334)">
<path d="M159.968 29.4901L156.019 27.1994L159.917 9.70065L163.863 11.9914L159.968 29.4901Z" fill="#F1932E"/>
<path d="M145.835 36.4737L141.89 34.1861L156.019 27.1994L159.968 29.4901L145.835 36.4737Z" fill="#F1932E"/>
<path d="M126.02 31.6504L122.071 29.3629L141.89 34.1861L145.835 36.4737L126.02 31.6504Z" fill="#EB8328"/>
<path d="M111.808 39.843L107.859 37.5523L122.071 29.3629L126.02 31.6504L111.808 39.843Z" fill="#F1932E"/>
<path d="M159.831 2.29074L168 9.70384L163.799 32.8912L143.837 42.9482L124.347 39.7603L111.827 46.3971L111.808 39.843L126.02 31.6504L145.835 36.4737L159.968 29.4901L163.863 11.9914L157.555 3.80199L159.831 2.29074Z" fill="#DE6B23"/>
<path d="M163.863 11.9914L168 9.70384L159.831 2.29074L157.555 3.80199L163.863 11.9914Z" fill="#D9C8A5"/>
<path d="M163.863 11.9914L159.917 9.70067L153.606 1.51126L157.555 3.802L163.863 11.9914Z" fill="#EDE1C5"/>
<path d="M153.606 1.51125L155.882 0L159.831 2.29074L157.555 3.802L153.606 1.51125Z" fill="#BDAC8C"/>
<path d="M132.136 118.918L132.12 124.235L120.958 130.712L120.971 125.393L132.136 118.918Z" fill="#C7B795"/>
<path d="M120.971 125.393L120.958 130.712L115.951 132.071L115.964 126.754L120.971 125.393Z" fill="#C7B795"/>
<path d="M115.964 126.754L115.951 132.071L109.471 128.339L109.487 123.019L115.964 126.754Z" fill="#D9C8A5"/>
<path d="M132.136 118.918L120.971 125.393L115.964 126.754L109.487 123.019L111.824 120.121L122.986 113.643L132.136 118.918Z" fill="#EDE1C5"/>
<path d="M109.331 105.632L109.315 110.948L98.1532 117.426L98.1691 112.106L109.331 105.632Z" fill="#C7B795"/>
<path d="M98.1692 112.106L98.1533 117.426L93.146 118.785L93.1619 113.468L98.1692 112.106Z" fill="#C7B795"/>
<path d="M93.1619 113.468L93.1459 118.785L86.6661 115.053L86.6821 109.733L93.1619 113.468Z" fill="#D9C8A5"/>
<path d="M109.331 105.632L98.1692 112.106L93.1619 113.468L86.6821 109.733L89.0184 106.835L100.18 100.36L109.331 105.632Z" fill="#EDE1C5"/>
<path d="M100.164 76.7908L109.376 73.7874L109.287 105.765L100.075 111.111L100.164 76.7908Z" fill="#E87929"/>
<path d="M123.062 76.7749L132.388 93.8759L132.14 118.937L122.928 124.279L123.062 76.7749Z" fill="#DE6B23"/>
<path d="M123.062 58.3471L122.928 124.279L113.736 118.982L113.828 86.0174L100.164 78.143L100.075 111.111L90.8894 105.816L91.0233 39.8812L123.062 58.3471Z" fill="#F1932E"/>
<path d="M113.914 45.3822L81.6716 26.6776L100.021 31.695L132.264 50.3995L113.914 45.3822Z" fill="#C9551A"/>
<path d="M61.9008 75.3591L29.658 56.6545L81.6717 26.6776L113.915 45.3822L61.9008 75.3591Z" fill="#F1932E"/>
<path d="M45.9897 72.2602L13.7501 53.5557L29.6579 56.6545L61.9008 75.3591L45.9897 72.2602Z" fill="#C9551A"/>
<path d="M45.9897 72.2602L61.9008 75.3591L113.914 45.3821L132.264 50.3995L132.388 93.8759L122.708 99.4564L104.984 98.5687L49.7985 130.375L49.7348 78.5629L22.4387 93.0741L45.9897 72.2602Z" fill="#DE6B23"/>
<path d="M34.1807 54.0456L57.8624 67.6946L62.296 65.0953L38.6525 51.4685L34.1807 54.0456Z" fill="#3A3438"/>
<path d="M57.5182 53.9056L53.0815 56.505L73.8468 68.4709L78.3218 65.8939L57.5182 53.9056Z" fill="#3A3438"/>
<path d="M82.1944 59.0375L53.8592 42.7065L49.3842 45.2835L77.7577 61.6369L82.1944 59.0375Z" fill="#3A3438"/>
<path d="M68.693 41.6406L64.2562 44.24L90.0766 59.1203L94.5484 56.5432L68.693 41.6406Z" fill="#3A3438"/>
<path d="M88.5499 34.6888L84.1163 37.2882L106.035 49.9223L110.51 47.3452L88.5499 34.6888Z" fill="#3A3438"/>
<path d="M90.5738 44.5263L70.6372 33.0376L66.1654 35.6147L86.1403 47.1257L90.5738 44.5263Z" fill="#3A3438"/>
<path d="M58.9175 161.844L58.9015 167.164L47.7364 173.638L47.7523 168.319L58.9175 161.844Z" fill="#C7B795"/>
<path d="M47.7523 168.319L47.7364 173.638L42.7323 175L42.745 169.68L47.7523 168.319Z" fill="#C7B795"/>
<path d="M42.7451 169.68L42.7323 175L36.2525 171.265L36.2653 165.945L42.7451 169.68Z" fill="#D9C8A5"/>
<path d="M58.9175 161.844L47.7523 168.319L42.7451 169.68L36.2653 165.945L38.6016 163.047L49.7667 156.572L58.9175 161.844Z" fill="#EDE1C5"/>
<path d="M36.1122 148.558L36.0963 153.877L24.9343 160.352L24.9471 155.036L36.1122 148.558Z" fill="#C7B795"/>
<path d="M24.9471 155.036L24.9343 160.352L19.9271 161.714L19.9398 156.394L24.9471 155.036Z" fill="#C7B795"/>
<path d="M19.9398 156.394L19.9271 161.714L13.4473 157.979L13.4632 152.662L19.9398 156.394Z" fill="#D9C8A5"/>
<path d="M36.1122 148.558L24.9471 155.036L19.9398 156.394L13.4632 152.662L15.7995 149.76L26.9615 143.286L36.1122 148.558Z" fill="#EDE1C5"/>
<path d="M26.9455 119.72L36.1569 116.713L36.0676 148.691L26.8531 154.037L26.9455 119.72Z" fill="#E87929"/>
<path d="M49.8432 119.701L59.0545 114.359L58.9206 161.863L49.7093 167.208L49.8432 119.701Z" fill="#DE6B23"/>
<path d="M49.8432 101.273L49.7093 167.208L40.5171 161.911L40.6064 128.943L26.9455 121.069L26.8531 154.037L17.6705 148.742L17.8043 82.8072L49.8432 101.273Z" fill="#F1932E"/>
<path d="M26.8658 149.897L26.8818 144.912L36.1122 139.681L36.0772 144.695L26.8658 149.897Z" fill="#3A3438"/>
<path d="M36.1186 130.865L36.1027 135.867L26.8914 141.097L26.9041 136.115L36.1186 130.865Z" fill="#3A3438"/>
<path d="M36.1505 126.026L26.92 131.298L26.9328 126.315L36.1409 121.037L36.1505 126.026Z" fill="#3A3438"/>
<path d="M26.8658 149.897L26.8818 144.912L17.6768 139.64L17.6672 144.625L26.8658 149.897Z" fill="#3A3438"/>
<path d="M17.696 130.836L17.6864 135.822L26.8914 141.097L26.9041 136.115L17.696 130.836Z" fill="#3A3438"/>
<path d="M17.7151 126.026L26.92 131.298L26.9328 126.315L17.7246 121.037L17.7151 126.026Z" fill="#3A3438"/>
<path d="M49.7571 139.392L40.5968 134.142L40.5809 139.128L49.7444 144.38L49.7571 139.392Z" fill="#3A3438"/>
<path d="M49.7189 158.001L40.5426 152.742L40.5298 157.727L49.7093 162.986L49.7189 158.001Z" fill="#3A3438"/>
<path d="M40.5681 143.941L40.5554 148.927L49.7253 154.183L49.7348 149.197L40.5681 143.941Z" fill="#3A3438"/>
<path d="M49.7571 139.392L58.9175 134.142L58.9302 139.128L49.7667 144.38L49.7571 139.392Z" fill="#3A3438"/>
<path d="M49.7189 158.001L58.9589 152.748L58.9334 157.756L49.7093 162.986L49.7189 158.001Z" fill="#3A3438"/>
<path d="M58.943 143.941L58.9589 148.927L49.7858 154.183L49.7762 149.197L58.943 143.941Z" fill="#3A3438"/>
<path d="M60.9414 75.1713L56.4696 74.2996V93.0741L60.9414 90.3412V75.1713Z" fill="#3A3438"/>
<path d="M78.3218 65.8939L73.8468 68.4709V91.232L78.3218 88.6263V65.8939Z" fill="#3A3438"/>
<path d="M90.0767 99.8032L94.5485 97.2293V56.5273L90.0767 59.1043V99.8032Z" fill="#3A3438"/>
<path d="M40.9091 104.871L45.3809 108.158V73.7206L40.9091 84.4107V104.871Z" fill="#3A3438"/>
<path d="M110.511 47.3452L106.036 49.9223V86.1255L110.511 83.8412V47.3452Z" fill="#3A3438"/>
<path d="M119.123 46.8043L114.651 45.5826V99.0523L119.123 99.275V46.8043Z" fill="#3A3438"/>
<path d="M128.869 55.4519L124.398 58.0321V98.4828L128.869 95.9058V55.4519Z" fill="#3A3438"/>
<path d="M57.4959 125.937V102.065L53.0209 104.642V128.517L57.4959 125.937Z" fill="#3A3438"/>
<path d="M97.9174 80.6373L102.389 78.0602V60.2815L97.9174 62.8586V80.6373Z" fill="#3A3438"/>
<path d="M65.1582 121.521L69.63 118.944V82.7435L65.1582 85.3206V121.521Z" fill="#3A3438"/>
<path d="M82.1943 111.702L86.6661 109.125V80.1664L82.1943 82.7435V111.702Z" fill="#3A3438"/>
<path d="M59.1087 125.008V114.359L103.741 88.4322L103.83 99.2337L59.1087 125.008Z" fill="#EDE1C5"/>
<path d="M26.9456 121.069V106.516L40.7562 114.474L40.6064 128.943L26.9456 121.069Z" fill="#D9C8A5"/>
<path d="M41.9737 86.7078L49.8687 82.1263L49.7826 112.246L41.8876 116.825L41.9737 86.7078Z" fill="#D9C8A5"/>
<path d="M16.1693 71.837L24.0642 67.2556L49.8687 82.1263L41.9737 86.7078L16.1693 71.837Z" fill="#CCC2AA"/>
<path d="M41.9737 86.7078L41.8877 116.825L16.0832 101.954L16.1692 71.837L41.9737 86.7078Z" fill="#EDE1C5"/>
<path d="M12.2265 36.795L16.9342 34.0652L24.1311 38.3286L19.4235 41.0584L12.2265 36.795Z" fill="#EB8328"/>
<path d="M19.4235 41.0584L24.1312 38.3286L24.1088 50.145L19.4012 52.8748L19.4235 41.0584Z" fill="#C9551A"/>
<path d="M12.2265 36.795L19.4235 41.0584V53.5588L12.2074 42.6937L12.2265 36.795Z" fill="#EDE1C5"/>
<path d="M33.2978 92.8546L7.4041 77.8343L7.29254 62.8013L33.1863 77.8216L33.2978 92.8546Z" fill="#C9551A"/>
<path d="M33.1863 77.8216L7.29254 62.8013L10.856 50.8958L36.7497 65.9161L33.1863 77.8216Z" fill="#EB8328"/>
<path d="M36.7497 65.9161L10.856 50.8959L27.1367 41.1888L53.0305 56.2091L36.7497 65.9161Z" fill="#FFAF4D"/>
<path d="M53.0305 56.2091L53.1038 81.3373L33.2978 92.8546L33.1863 77.8216L36.7497 65.9161L53.0305 56.2091Z" fill="#DE6B23"/>
<path d="M13.9381 63.5967L10.6966 61.726V55.8941L13.9381 57.7617V63.5967Z" fill="#3A3438"/>
<path d="M31.5034 73.7206L28.2619 71.8498V66.0179L31.5034 67.8855V73.7206Z" fill="#3A3438"/>
<path d="M21.39 49.4928L24.2586 51.1695L34.3337 45.3631L31.4524 43.6927L21.39 49.4928Z" fill="#3A3438"/>
<path d="M27.0539 56.7277L40.5362 48.9614L37.6549 47.2911L24.1885 55.051L27.0539 56.7277Z" fill="#3A3438"/>
<path d="M43.867 50.8927L33.658 56.7754L36.5234 58.4553L46.7451 52.563L43.867 50.8927Z" fill="#3A3438"/>
<path d="M40.6701 53.5588L45.3778 50.829L52.5747 55.0924L47.8671 57.8254L40.6701 53.5588Z" fill="#EB8328"/>
<path d="M47.867 57.8253L52.5747 55.0923L52.5524 61.096L47.8447 63.8258L47.867 57.8253Z" fill="#C9551A"/>
<path d="M40.6701 53.5588L47.867 57.8253L47.8447 63.8258L40.6318 67.5387L40.6701 53.5588Z" fill="#EDE1C5"/>
<path d="M25.167 76.3517L25.1256 89.9403L9.95398 95.9757L9.99223 82.3872L25.167 76.3517Z" fill="#BDAC8C"/>
<path d="M9.99223 82.3872L9.95398 95.9757L2.61041 91.7442L2.64866 78.1557L9.99223 82.3872Z" fill="#D9C8A5"/>
<path d="M2.61041 88.6231L9.95398 92.8546V90.5925L2.61041 86.3928V88.6231Z" fill="#3A3438"/>
<path d="M33.1863 77.8216L33.2978 92.8546L14.6776 93.246L14.719 82.0245L33.1863 77.8216Z" fill="#C7B795"/>
<path d="M14.719 82.0245L14.6776 93.246L0 84.7861L0.041435 73.5678L14.719 82.0245Z" fill="#D9C8A5"/>
<path d="M33.1863 77.8216L14.719 82.0245L0.0414429 73.5678L7.33082 62.83L33.1863 77.8216Z" fill="#EDE1C5"/>
<path d="M9.02325 75.795L28.5997 61.1883L23.6435 72.2189L10.6966 79.7306L9.02325 75.795Z" fill="#DE6B23"/>
<path d="M4.38574 73.1224L20.0163 56.2091L28.5997 61.1883L9.02328 75.795L4.38574 73.1224Z" fill="#FFAF4D"/>
<path d="M9.02326 75.7949L10.6966 79.7306L6.48297 81.0191L2.29803 74.8914L4.38572 73.1224L9.02326 75.7949Z" fill="#3A3438"/>
<path d="M7.4169 87.8786L5.54913 86.8001V79.476H7.4169V87.8786Z" fill="#3A3438"/>
</g>
<defs>
<clipPath id="clip0_7_334">
<rect width="168" height="175" fill="white"/>
</clipPath>
</defs>
</svg>
