<svg width="400" height="400" viewBox="0 0 400 400" fill="none" xmlns="http://www.w3.org/2000/svg">
<style type="text/css">
@keyframes step1 {
  0% {
    opacity: 0;
  }
  50% {
    opacity: 0;
  }
  51% {
    opacity: 1;
  }
  100% {
    opacity: 1;
  }
}
@keyframes step2 {
  0% {
    opacity: 0;
  }
  49% {
    opacity: 0;
  }
  50% {
    opacity: 1;
  }
  100% {
    opacity: 1;
  }
}
#step1 {
  animation: step1 2s infinite;
}
#step2 {
  animation: step2 2s infinite reverse;
}
</style>
<g clip-path="url(#clip0_132_2574)" id="step1">
<path d="M177.205 274L164.932 266.856L164.905 257.704L177.181 264.851L177.205 274Z" fill="#B0A9A1"/>
<path d="M177.181 264.851L164.905 257.704L175.221 251.738L187.497 258.882L177.181 264.851Z" fill="#EDE8E1"/>
<path d="M187.497 258.882L175.221 251.738L175.177 235.108L187.45 242.255L187.497 258.882Z" fill="#B0A9A1"/>
<path d="M199.15 235.487L199.222 261.269L177.205 274L177.181 264.852L187.497 258.882L187.45 242.255L199.15 235.487Z" fill="#CFCAC2"/>
<path d="M146.161 256.943L133.884 249.799L133.857 240.647L146.133 247.794L146.161 256.943Z" fill="#B0A9A1"/>
<path d="M146.133 247.794L133.857 240.647L144.177 234.681L156.45 241.825L146.133 247.794Z" fill="#EDE8E1"/>
<path d="M168.113 218.426L168.184 244.205L146.161 256.943L146.133 247.794L156.45 241.825L156.405 225.198L168.113 218.426Z" fill="#CFCAC2"/>
<path d="M178.091 254.521L136.005 230.02L128.644 209.592L170.731 234.09L178.091 254.521Z" fill="#B0A9A1"/>
<path d="M170.731 234.09L128.644 209.592L124.836 199.009L166.923 223.511L170.731 234.09Z" fill="#B0A9A1"/>
<path d="M166.95 208.677L124.863 184.178L194.214 144.074L236.3 168.572L166.95 208.677Z" fill="#EDE8E1"/>
<path d="M236.3 168.572L250.882 182.324L251.056 212.324L178.091 254.521L170.731 234.09L166.923 223.511L166.95 208.677L236.3 168.572Z" fill="#CFCAC2"/>
<path d="M213.179 167.493L195.646 157.286L195.608 144.32L213.145 154.53L213.179 167.493Z" fill="#C4BBB2"/>
<path d="M213.145 154.53L195.608 144.32L213.455 134L230.992 144.207L213.145 154.53Z" fill="#EDE8E1"/>
<path d="M230.992 144.207L231.05 165.516L223.87 161.309L213.179 167.493L213.145 154.53L230.992 144.207Z" fill="#CFCAC2"/>
<path d="M218.709 250.051L210.82 245.458L210.789 235.548L218.682 240.141L218.709 250.051Z" fill="#B8B1A9"/>
<path d="M218.682 240.141L210.789 235.548L222.309 228.886L230.198 233.479L218.682 240.141Z" fill="#EDE8E1"/>
<path d="M230.198 233.479L222.309 228.886L222.248 207.229L230.137 211.822L230.198 233.479Z" fill="#B8B1A9"/>
<path d="M230.137 211.822L222.248 207.229L247.019 192.903L254.911 197.496L230.137 211.822Z" fill="#EDE8E1"/>
<path d="M254.911 197.496L255 229.064L218.709 250.051L218.682 240.141L230.198 233.479L230.137 211.822L254.911 197.496Z" fill="#CFCAC2"/>
<path d="M115.6 222.254L117.353 221.233L117.329 229.869L115.577 230.89L115.6 222.254Z" fill="#B7B8AD"/>
<path d="M111.789 220.048L113.541 219.027L117.353 221.233L115.6 222.254L111.789 220.048Z" fill="#DCDCDC"/>
<path d="M115.6 222.254L115.577 230.891L111.762 228.688L111.789 220.048L115.6 222.254Z" fill="#D8D9D1"/>
<path d="M120.973 225.259L122.729 224.238L122.705 232.878L120.95 233.899L120.973 225.259Z" fill="#B7B8AD"/>
<path d="M117.162 223.053L118.914 222.032L122.729 224.238L120.973 225.259L117.162 223.053Z" fill="#DCDCDC"/>
<path d="M120.973 225.259L120.95 233.899L117.138 231.693L117.162 223.053L120.973 225.259Z" fill="#D8D9D1"/>
<path d="M146.556 236.074L114.994 217.699L114.977 212.378L146.543 230.754L146.556 236.074Z" fill="#B0A9A1"/>
<path d="M134.603 237.594L103.041 219.218L103 205.361L134.566 223.733L134.603 237.594Z" fill="#C4BBB2"/>
<path d="M134.566 223.733L103 205.361L114.492 192.797L146.058 211.173L134.566 223.733Z" fill="#EDE8E1"/>
<path d="M146.058 211.173L114.492 192.797L114.465 183.079L146.031 201.454L146.058 211.173Z" fill="#C4BBB2"/>
<path d="M146.031 201.454L114.465 183.079L136.721 170.208L168.287 188.583L146.031 201.454Z" fill="#EDE8E1"/>
<path d="M168.287 188.583L168.385 223.449L146.556 236.074L146.543 230.754L134.603 237.594L134.566 223.733L146.058 211.173L146.031 201.454L168.287 188.583Z" fill="#CFCAC2"/>
<path d="M155.846 195.185L145.325 189.062L145.227 153.817L155.747 159.943L155.846 195.185Z" fill="#FFA6A6"/>
<path d="M151.905 162.166L141.381 156.04L141.371 152.447L151.895 158.574L151.905 162.166Z" fill="#EDE8E1"/>
<path d="M151.895 158.573L141.371 152.447L148.179 148.51L158.7 154.636L151.895 158.573Z" fill="#EDE8E1"/>
<path d="M158.7 154.636L158.809 193.47L155.846 195.185L155.747 159.943L151.905 162.166L151.895 158.574L158.7 154.636Z" fill="#CFCAC2"/>
<path d="M136.08 183.635L125.555 177.512L125.457 142.267L135.977 148.394L136.08 183.635Z" fill="#FFA6A6"/>
<path d="M132.135 150.617L121.614 144.49L121.604 140.898L132.125 147.024L132.135 150.617Z" fill="#EDE8E1"/>
<path d="M132.125 147.024L121.604 140.898L128.409 136.964L138.93 143.087L132.125 147.024Z" fill="#EDE8E1"/>
<path d="M138.93 143.087L139.042 181.924L136.08 183.635L135.977 148.394L132.135 150.617L132.125 147.024L138.93 143.087Z" fill="#CFCAC2"/>
<path d="M119.882 218.443L122.746 216.852L120.878 221.919L118.014 223.511L119.882 218.443Z" fill="#E68383"/>
<path d="M111.53 213.611L114.394 212.02L122.746 216.852L119.882 218.443L111.53 213.611Z" fill="#FFBDBD"/>
<path d="M119.882 218.443L118.014 223.511L113.354 220.813L111.53 213.611L119.882 218.443Z" fill="#FFA6A6"/>
<path d="M155.761 210.405L150.978 213.171V204.053L155.761 201.287V210.405Z" fill="#302C2C"/>
</g>
<defs>
<clipPath id="clip0_132_2574">
<rect width="152" height="140" fill="white" transform="translate(103 134)"/>
</clipPath>
</defs>
<g clip-path="url(#clip0_217_3602)" id="step2">
<path d="M198.205 269.768L185.932 262.636L185.905 253.499L198.181 260.635L198.205 269.768Z" fill="#B0A9A1"/>
<path d="M198.181 260.634L185.905 253.499L196.221 247.543L208.497 254.675L198.181 260.634Z" fill="#EDE8E1"/>
<path d="M208.497 254.675L196.221 247.543L196.177 230.94L208.45 238.076L208.497 254.675Z" fill="#B0A9A1"/>
<path d="M220.15 231.319L220.222 257.058L198.205 269.768L198.181 260.634L208.497 254.675L208.45 238.076L220.15 231.319Z" fill="#CFCAC2"/>
<path d="M167.161 252.739L154.884 245.607L154.857 236.47L167.133 243.605L167.161 252.739Z" fill="#B0A9A1"/>
<path d="M167.133 243.605L154.857 236.47L165.177 230.514L177.45 237.646L167.133 243.605Z" fill="#EDE8E1"/>
<path d="M189.113 214.286L189.184 240.022L167.161 252.739L167.133 243.605L177.45 237.646L177.405 221.047L189.113 214.286Z" fill="#CFCAC2"/>
<path d="M199.091 250.322L157.005 225.86L149.644 205.467L191.731 229.924L199.091 250.322Z" fill="#B0A9A1"/>
<path d="M191.731 229.924L149.644 205.467L145.836 194.901L187.923 219.363L191.731 229.924Z" fill="#B0A9A1"/>
<path d="M187.95 204.553L145.863 180.095L215.214 140.057L257.3 164.515L187.95 204.553Z" fill="#EDE8E1"/>
<path d="M257.3 164.515L271.882 178.244L272.056 208.194L199.091 250.322L191.731 229.924L187.923 219.362L187.95 204.553L257.3 164.515Z" fill="#CFCAC2"/>
<path d="M234.179 163.438L216.646 153.248L216.608 140.303L234.145 150.496L234.179 163.438Z" fill="#C4BBB2"/>
<path d="M234.145 150.496L216.608 140.303L234.455 130L251.992 140.19L234.145 150.496Z" fill="#EDE8E1"/>
<path d="M251.992 140.19L252.05 161.464L244.87 157.264L234.179 163.438L234.145 150.496L251.992 140.19Z" fill="#CFCAC2"/>
<path d="M239.709 245.859L231.82 241.273L231.789 231.38L239.682 235.965L239.709 245.859Z" fill="#B8B1A9"/>
<path d="M239.682 235.965L231.789 231.38L243.309 224.729L251.198 229.314L239.682 235.965Z" fill="#EDE8E1"/>
<path d="M251.198 229.314L243.309 224.728L243.248 203.107L251.137 207.693L251.198 229.314Z" fill="#B8B1A9"/>
<path d="M251.137 207.693L243.248 203.107L268.019 188.806L275.911 193.391L251.137 207.693Z" fill="#EDE8E1"/>
<path d="M275.911 193.391L276 224.906L239.709 245.859L239.682 235.965L251.198 229.314L251.137 207.693L275.911 193.391Z" fill="#CFCAC2"/>
<path d="M136.601 218.108L138.353 217.088L138.329 225.71L136.577 226.73L136.601 218.108Z" fill="#B7B8AD"/>
<path d="M132.789 215.906L134.541 214.886L138.353 217.089L136.6 218.108L132.789 215.906Z" fill="#DCDCDC"/>
<path d="M136.6 218.108L136.577 226.73L132.762 224.531L132.789 215.906L136.6 218.108Z" fill="#D8D9D1"/>
<path d="M141.973 221.108L143.729 220.089L143.705 228.714L141.95 229.733L141.973 221.108Z" fill="#B7B8AD"/>
<path d="M138.162 218.906L139.914 217.886L143.729 220.089L141.973 221.108L138.162 218.906Z" fill="#DCDCDC"/>
<path d="M141.973 221.108L141.95 229.733L138.138 227.531L138.162 218.906L141.973 221.108Z" fill="#D8D9D1"/>
<path d="M167.556 231.905L135.994 213.56L135.977 208.248L167.543 226.593L167.556 231.905Z" fill="#B0A9A1"/>
<path d="M155.603 233.422L124.041 215.077L124 201.242L155.566 219.584L155.603 233.422Z" fill="#C4BBB2"/>
<path d="M155.566 219.584L124 201.242L135.492 188.7L167.058 207.045L155.566 219.584Z" fill="#EDE8E1"/>
<path d="M167.058 207.045L135.492 188.7L135.465 178.997L167.031 197.342L167.058 207.045Z" fill="#C4BBB2"/>
<path d="M167.031 197.342L135.465 178.997L157.721 166.148L189.287 184.493L167.031 197.342Z" fill="#EDE8E1"/>
<path d="M189.286 184.493L189.385 219.301L167.556 231.905L167.543 226.593L155.603 233.422L155.566 219.584L167.058 207.045L167.031 197.342L189.286 184.493Z" fill="#CFCAC2"/>
<path d="M176.846 191.083L166.325 184.97L166.227 156.602L176.747 162.718L176.846 191.083Z" fill="#FFA6A6"/>
<path d="M172.905 164.938L162.381 158.822L162.371 155.235L172.895 161.351L172.905 164.938Z" fill="#EDE8E1"/>
<path d="M172.895 161.351L162.371 155.235L169.179 151.304L179.7 157.42L172.895 161.351Z" fill="#EDE8E1"/>
<path d="M179.7 157.42L179.809 189.372L176.846 191.083L176.747 162.718L172.905 164.938L172.895 161.351L179.7 157.42Z" fill="#CFCAC2"/>
<path d="M157.08 179.553L146.555 173.44L146.457 145.076L156.977 151.188L157.08 179.553Z" fill="#FFA6A6"/>
<path d="M153.135 153.408L142.614 147.295L142.604 143.705L153.125 149.821L153.135 153.408Z" fill="#EDE8E1"/>
<path d="M153.125 149.821L142.604 143.705L149.409 139.778L159.93 145.89L153.125 149.821Z" fill="#EDE8E1"/>
<path d="M159.93 145.89L160.042 177.845L157.08 179.553L156.977 151.188L153.135 153.408L153.125 149.821L159.93 145.89Z" fill="#CFCAC2"/>
<path d="M140.882 214.303L143.746 212.714L141.878 217.774L139.014 219.362L140.882 214.303Z" fill="#E68383"/>
<path d="M132.53 209.479L135.394 207.89L143.746 212.714L140.882 214.303L132.53 209.479Z" fill="#FFBDBD"/>
<path d="M140.882 214.303L139.014 219.362L134.354 216.669L132.53 209.479L140.882 214.303Z" fill="#FFA6A6"/>
<path d="M176.761 206.278L171.978 209.039V199.937L176.761 197.175V206.278Z" fill="#302C2C"/>
</g>
<defs>
<clipPath id="clip0_217_3602">
<rect width="152" height="139.768" fill="white" transform="translate(124 130)"/>
</clipPath>
</defs>
</svg>
