<svg width="370" height="277" viewBox="0 0 370 277" fill="none" xmlns="http://www.w3.org/2000/svg">
<g clip-path="url(#clip0_7_368)">
<path d="M312.332 35.8395L296.909 26.1536L340.479 7.10657L364.274 32.3884L361.321 33.1219L338.767 16.4497L312.332 35.8395Z" fill="#6C8EA8"/>
<path d="M210.251 52.3253L333.409 128.153L335.121 219.654L292.865 195.323L288.405 130.197L253.345 110.008L248.541 179.101L206.436 154.854L210.251 52.3253Z" fill="#5B768C"/>
<path d="M152.523 167.329L187.402 147.11L182.598 206.914L147.719 227.134L152.523 167.329Z" fill="#5B768C"/>
<path d="M232.497 180.232L234.299 277L192.043 252.644L189.186 203.415L154.126 183.226L147.719 227.134L105.614 202.868L109.429 109.647L181.351 121.467L232.497 180.232Z" fill="#89AABF"/>
<path d="M307.511 49.6318L221.901 0L270.896 9.95642L356.511 59.5822L307.511 49.6318Z" fill="#5B768C"/>
<path d="M181.351 121.467L95.7411 71.8353L221.901 0L307.511 49.6318L181.351 121.467Z" fill="#89AABF"/>
<path d="M335.121 219.654L370 199.435L368.499 108.366L356.511 59.5822L307.511 49.6318L181.351 121.467L232.352 188.655L232.636 188.486L234.299 277L269.178 256.781L267.509 186.539L333.421 147.669L335.121 219.654Z" fill="#6C8EA8"/>
<path d="M118.023 210.029L107.892 204.197V194.09L118.023 199.922V210.029ZM131.904 207.918L121.772 202.086V212.193L131.904 218.025V207.918ZM145.598 215.801L135.466 209.969V220.075L145.598 225.907V215.801Z" fill="#E0E3E6"/>
<path d="M204.187 259.684L194.056 253.853V243.746L204.187 249.578V259.684ZM218.062 257.574L207.93 251.742V261.849L218.062 267.681V257.574ZM231.756 265.462L221.624 259.63V269.737L231.756 275.569V265.462Z" fill="#E0E3E6"/>
<path d="M304.684 202.147L294.552 196.315V186.208L304.684 192.04V202.147ZM318.564 200.03L308.433 194.198V204.305L318.564 210.137V200.03ZM332.258 207.918L322.126 202.086V212.193L332.258 218.025V207.918Z" fill="#E0E3E6"/>
<path d="M118.361 174.448L112.087 170.81L112.038 154.312L118.313 157.956L118.361 174.448Z" fill="#959B9E"/>
<path d="M82.8129 199.754L76.5326 196.116L112.087 170.81L118.361 174.448L82.8129 199.754Z" fill="#E3E3E3"/>
<path d="M82.8249 204.407L76.5446 200.764L76.5326 196.116L82.8129 199.754L82.8249 204.407Z" fill="#959B9E"/>
<path d="M126.582 151.974L126.654 179.161L82.8249 204.407L82.8129 199.754L118.361 174.448L118.313 157.956L126.582 151.974Z" fill="#C0C4C7"/>
<path d="M6.28028 156.284L0 152.641L35.5541 127.335L41.8283 130.979L6.28028 156.284Z" fill="#E3E3E3"/>
<path d="M6.29233 160.932L0.0120543 157.295L0 152.641L6.28028 156.284L6.29233 160.932Z" fill="#959B9E"/>
<path d="M50.0494 109.719L50.1217 135.692L6.29233 160.932L6.28027 156.284L41.8283 130.979L41.7801 114.481L50.0494 109.719Z" fill="#C0C4C7"/>
<path d="M71.289 146.358L90.3107 135.326L79.721 151.096L60.6993 162.122L71.289 146.358Z" fill="#5A5750"/>
<path d="M80.8359 132.824L99.8576 121.798L90.3106 135.325L71.2889 146.358L80.8359 132.824Z" fill="#595650"/>
<path d="M81.3482 72.8875L100.376 61.8549L99.8576 121.798L80.8359 132.824L81.3482 72.8875Z" fill="#817C73"/>
<path d="M44.7395 51.8022L63.7672 40.7756L100.376 61.8549L81.3483 72.8875L44.7395 51.8022Z" fill="#A6C4DB"/>
<path d="M44.7395 51.8022L81.3483 72.8875L80.836 132.824L71.289 146.358L60.6993 162.122L16.1166 80.3668L44.7395 51.8022Z" fill="#789BB3"/>
<path d="M61.278 68.6728L91.9199 51.1288L168.941 95.2112L138.178 112.966L61.278 68.6728Z" fill="#9CBACF"/>
<path d="M61.2779 68.6728L35.976 113.537L101.593 150.483L138.178 112.966L61.2779 68.6728Z" fill="#89AABF"/>
<path d="M35.976 113.537L29.4788 162.748L57.3844 178.819L101.593 150.483L35.976 113.537Z" fill="#789BB3"/>
<path d="M57.3844 178.819L53.5873 239.543L65.732 266.863L46.4331 256.065L32.854 227.951L29.4788 162.748L57.3844 178.819Z" fill="#6F92AB"/>
<path d="M75.3573 189.172L118.192 160.752L169.019 166.355L168.862 95.2233L138.178 112.966L101.593 150.483L57.3844 178.819L53.5873 239.543L65.732 266.863L80.5045 257.905L68.619 231.968L75.3573 189.172Z" fill="#5B768C"/>
<path d="M181.357 130.107L200.378 119.074L228.748 180.466L209.72 191.493L181.357 130.107Z" fill="#789BB3"/>
<path d="M144.76 109.028L163.787 98.0009L200.378 119.074L181.357 130.107L144.76 109.028Z" fill="#A6C4DB"/>
<path d="M181.357 130.107L209.72 191.493L163.872 218.915L144.916 163.698L144.76 109.028L181.357 130.107Z" fill="#9CBACF"/>
<path d="M59.0599 118.749L50.1217 113.579L57.1313 100.935L66.0695 106.1L59.0599 118.749Z" fill="#302B26"/>
<path d="M97.266 140.153L88.3278 134.989L95.3373 122.345L104.276 127.509L97.266 140.153Z" fill="#302B26"/>
</g>
<defs>
<clipPath id="clip0_7_368">
<rect width="370" height="277" fill="white"/>
</clipPath>
</defs>
</svg>
